<?xml version="1.0" encoding="UTF-8" standalone="no"?>
<!-- Generator: Gravit.io -->

<svg
   style="isolation:isolate"
   viewBox="0 0 64 54"
   width="64pt"
   height="54pt"
   version="1.1"
   id="svg6"
   sodipodi:docname="wifi-vertical.svg"
   inkscape:version="1.4 (e7c3feb1, 2024-10-09)"
   xmlns:inkscape="http://www.inkscape.org/namespaces/inkscape"
   xmlns:sodipodi="http://sodipodi.sourceforge.net/DTD/sodipodi-0.dtd"
   xmlns="http://www.w3.org/2000/svg"
   xmlns:svg="http://www.w3.org/2000/svg">
  <sodipodi:namedview
     id="namedview6"
     pagecolor="#ffffff"
     bordercolor="#000000"
     borderopacity="0.25"
     inkscape:showpageshadow="2"
     inkscape:pageopacity="0.0"
     inkscape:pagecheckerboard="0"
     inkscape:deskcolor="#d1d1d1"
     inkscape:document-units="pt"
     inkscape:zoom="6.1"
     inkscape:cx="42.704918"
     inkscape:cy="40.245902"
     inkscape:window-width="1200"
     inkscape:window-height="1186"
     inkscape:window-x="0"
     inkscape:window-y="25"
     inkscape:window-maximized="0"
     inkscape:current-layer="svg6" />
  <defs
     id="defs1">
    <clipPath
       id="_clipPath_zEYtJ0DgNYzuuZSiWAtN8c2dOai7qpD3">
      <rect
         width="54"
         height="54"
         id="rect1"
         x="0"
         y="0" />
    </clipPath>
    <filter
       style="color-interpolation-filters:sRGB"
       inkscape:label="Invert"
       id="filter2"
       x="0"
       y="0"
       width="1"
       height="1">
      <feColorMatrix
         values="-1 0 0 0 1 0 -1 0 0 1 0 0 -1 0 1 0.21 0.72 0.07 1 0 "
         result="fbSourceGraphic"
         id="feColorMatrix2" />
      <feColorMatrix
         result="fbSourceGraphicAlpha"
         in="fbSourceGraphic"
         values="0 0 0 -1 0 0 0 0 -1 0 0 0 0 -1 0 0 0 0 1 0"
         id="feColorMatrix3" />
      <feColorMatrix
         id="feColorMatrix4"
         values="-1 0 0 0 1 0 -1 0 0 1 0 0 -1 0 1 0.21 0.72 0.07 1 0 "
         result="fbSourceGraphic"
         in="fbSourceGraphic" />
      <feColorMatrix
         result="fbSourceGraphicAlpha"
         in="fbSourceGraphic"
         values="0 0 0 -1 0 0 0 0 -1 0 0 0 0 -1 0 0 0 0 1 0"
         id="feColorMatrix5" />
      <feColorMatrix
         id="feColorMatrix6"
         values="-1 0 0 0 1 0 -1 0 0 1 0 0 -1 0 1 0.21 0.72 0.07 1 0 "
         result="fbSourceGraphic"
         in="fbSourceGraphic" />
      <feColorMatrix
         result="fbSourceGraphicAlpha"
         in="fbSourceGraphic"
         values="0 0 0 -1 0 0 0 0 -1 0 0 0 0 -1 0 0 0 0 1 0"
         id="feColorMatrix7" />
      <feColorMatrix
         id="feColorMatrix8"
         values="-1 0 0 0 1 0 -1 0 0 1 0 0 -1 0 1 0.21 0.72 0.07 1 0 "
         result="fbSourceGraphic"
         in="fbSourceGraphic" />
      <feColorMatrix
         result="fbSourceGraphicAlpha"
         in="fbSourceGraphic"
         values="0 0 0 -1 0 0 0 0 -1 0 0 0 0 -1 0 0 0 0 1 0"
         id="feColorMatrix9" />
      <feColorMatrix
         id="feColorMatrix10"
         values="-1 0 0 0 1 0 -1 0 0 1 0 0 -1 0 1 0.21 0.72 0.07 1 0 "
         result="fbSourceGraphic"
         in="fbSourceGraphic" />
      <feColorMatrix
         result="fbSourceGraphicAlpha"
         in="fbSourceGraphic"
         values="0 0 0 -1 0 0 0 0 -1 0 0 0 0 -1 0 0 0 0 1 0"
         id="feColorMatrix11" />
      <feColorMatrix
         id="feColorMatrix12"
         values="-1 0 0 0 1 0 -1 0 0 1 0 0 -1 0 1 0.21 0.72 0.07 1 0 "
         result="fbSourceGraphic"
         in="fbSourceGraphic" />
      <feColorMatrix
         result="fbSourceGraphicAlpha"
         in="fbSourceGraphic"
         values="0 0 0 -1 0 0 0 0 -1 0 0 0 0 -1 0 0 0 0 1 0"
         id="feColorMatrix13" />
      <feColorMatrix
         id="feColorMatrix14"
         values="-1 0 0 0 1 0 -1 0 0 1 0 0 -1 0 1 0.21 0.72 0.07 1 0 "
         result="fbSourceGraphic"
         in="fbSourceGraphic" />
      <feColorMatrix
         result="fbSourceGraphicAlpha"
         in="fbSourceGraphic"
         values="0 0 0 -1 0 0 0 0 -1 0 0 0 0 -1 0 0 0 0 1 0"
         id="feColorMatrix15" />
      <feColorMatrix
         id="feColorMatrix16"
         values="-1 0 0 0 1 0 -1 0 0 1 0 0 -1 0 1 0.21 0.72 0.07 1 0 "
         result="fbSourceGraphic"
         in="fbSourceGraphic" />
      <feColorMatrix
         result="fbSourceGraphicAlpha"
         in="fbSourceGraphic"
         values="0 0 0 -1 0 0 0 0 -1 0 0 0 0 -1 0 0 0 0 1 0"
         id="feColorMatrix17" />
      <feColorMatrix
         id="feColorMatrix18"
         values="-1 0 0 0 1 0 -1 0 0 1 0 0 -1 0 1 0.21 0.72 0.07 1 0 "
         result="fbSourceGraphic"
         in="fbSourceGraphic" />
      <feColorMatrix
         result="fbSourceGraphicAlpha"
         in="fbSourceGraphic"
         values="0 0 0 -1 0 0 0 0 -1 0 0 0 0 -1 0 0 0 0 1 0"
         id="feColorMatrix19" />
      <feColorMatrix
         id="feColorMatrix20"
         values="-1 0 0 0 1 0 -1 0 0 1 0 0 -1 0 1 0.21 0.72 0.07 1 0 "
         result="color2"
         in="fbSourceGraphic" />
    </filter>
  </defs>
  <g
     clip-path="url(#_clipPath_zEYtJ0DgNYzuuZSiWAtN8c2dOai7qpD3)"
     id="g6"
     transform="matrix(1.1474502,0,0,0.99840406,-7.9507474,-6.4946525)"
     style="stroke-width:0.934277;filter:url(#filter2)">
    <rect
       width="54"
       height="54"
       style="fill:#ff0000;stroke-width:0.768353"
       fill-opacity="0"
       id="rect2"
       x="0"
       y="0" />
    <g
       id="g5"
       style="stroke-width:0.934277">
      <path
         d="m 25.085,19.361 c -2.054,0.169 -3.598,0.494 -5.484,1.157 -3.88,1.352 -7.647,3.895 -11.426,7.699 -0.528,0.528 -0.954,0.975 -0.954,0.992 0,0.022 0.84,0.862 1.865,1.867 1.029,1.01 2.024,1.989 2.214,2.179 l 0.346,0.343 0.797,-0.798 c 1.266,-1.273 2.185,-2.096 3.362,-3.006 2.708,-2.101 5.391,-3.397 8.078,-3.895 0.974,-0.178 1.442,-0.221 2.573,-0.221 1.126,0.004 1.552,0.039 2.573,0.221 3.948,0.706 8.094,3.111 12.393,7.183 0.358,0.334 0.658,0.607 0.666,0.602 0.059,-0.039 4.235,-4.527 4.235,-4.557 0,-0.07 -1.662,-1.612 -2.573,-2.392 -4.079,-3.483 -8.094,-5.719 -12.148,-6.754 -1.185,-0.303 -2.316,-0.494 -3.607,-0.607 -0.455,-0.039 -2.492,-0.047 -2.91,-0.013 z"
         fill="#ffffff"
         id="path3"
         style="stroke-width:0.934277" />
      <path
         d="m 25.465,30.448 c -2.831,0.23 -5.64,1.456 -8.205,3.583 -0.839,0.697 -2.298,2.105 -2.273,2.192 0.008,0.022 1.008,1.018 2.223,2.21 l 2.202,2.166 0.434,-0.438 c 2.421,-2.443 4.771,-3.574 7.019,-3.37 1.375,0.125 2.67,0.623 4.146,1.594 0.76,0.498 1.844,1.382 2.502,2.04 l 0.287,0.286 0.24,-0.26 c 0.135,-0.143 1.088,-1.165 2.117,-2.27 1.034,-1.104 1.882,-2.027 1.886,-2.058 0.004,-0.026 -0.207,-0.247 -0.464,-0.489 -3.21,-2.998 -6.306,-4.644 -9.588,-5.104 -0.481,-0.069 -2.067,-0.117 -2.526,-0.082 z"
         fill="#ffffff"
         id="path4"
         style="stroke-width:0.934277" />
      <path
         d="m 25.802,40.824 c -1.261,0.186 -2.383,1.022 -2.906,2.166 -0.232,0.503 -0.295,0.81 -0.295,1.404 0,0.593 0.063,0.901 0.295,1.404 0.649,1.412 2.126,2.283 3.729,2.196 1.493,-0.078 2.75,-0.897 3.336,-2.175 0.228,-0.489 0.304,-0.853 0.304,-1.425 0,-0.589 -0.08,-0.953 -0.329,-1.473 -0.705,-1.49 -2.405,-2.353 -4.134,-2.097 z"
         fill="#ffffff"
         id="path5"
         style="stroke-width:0.934277" />
    </g>
  </g>
</svg>
