<?xml version="1.0" encoding="UTF-8" standalone="no"?>
<svg
   version="1.1"
   viewBox="0 0 376.00142 119.449"
   id="svg15"
   sodipodi:docname="apple2.svg"
   width="376.00143"
   height="119.449"
   inkscape:version="1.4 (e7c3feb100, 2024-10-09)"
   xmlns:inkscape="http://www.inkscape.org/namespaces/inkscape"
   xmlns:sodipodi="http://sodipodi.sourceforge.net/DTD/sodipodi-0.dtd"
   xmlns="http://www.w3.org/2000/svg"
   xmlns:svg="http://www.w3.org/2000/svg">
  <sodipodi:namedview
     id="namedview15"
     pagecolor="#ffffff"
     bordercolor="#000000"
     borderopacity="0.25"
     inkscape:showpageshadow="2"
     inkscape:pageopacity="0.0"
     inkscape:pagecheckerboard="0"
     inkscape:deskcolor="#d1d1d1"
     inkscape:zoom="0.16145034"
     inkscape:cx="2034.6813"
     inkscape:cy="709.19639"
     inkscape:window-width="1920"
     inkscape:window-height="1164"
     inkscape:window-x="1920"
     inkscape:window-y="0"
     inkscape:window-maximized="1"
     inkscape:current-layer="svg15" />
  <defs
     id="defs13">
    <path
       id="SVGID_5_"
       d="M 943.9,810.2 C 891,754.5 864.2,690.4 864.2,619.6 c 0,-71.2 25.7,-134.6 76.3,-188.3 15.6,-16.6 32.4,-30.6 50.3,-42.2 -19.3,-25 -96.1,-114 -210.9,-114 -109.3,0 -137.5,65.4 -213.3,65.4 -83.5,0 -111.2,-72.4 -219.6,-72.4 0,0 -321.9,9.6 -321.9,400.2 0,140.9 123.1,551.6 306.2,551.6 91.6,0 80.6,-56.3 200.1,-56.3 118.9,0 98.6,47.6 210.5,47.6 115.7,0 266.3,-159.8 280.2,-341.7 -27.9,-14.1 -54.1,-33.9 -78.2,-59.3 z" />
  </defs>
  <path
     class="st7"
     d="m 332.89835,38.78494 h -9.59587 V 25.899057 h 24.63593 V 82.965108 H 323.30248 V 70.079226 h 9.59587 z"
     style="fill:#ffffff;stroke-width:0.097917"
     id="path1" />
  <path
     class="st7"
     d="m 366.40556,70.079226 h 9.59587 V 82.965108 H 351.36551 V 25.899057 h 24.63592 V 38.78494 h -9.59587 z"
     style="fill:#ffffff;stroke-width:0.097917"
     id="path2" />
  <path
     class="st7"
     d="m 89.966176,79.332386 c -5.179811,-5.453979 -7.803988,-11.730462 -7.803988,-18.662988 0,-6.971693 2.516468,-13.179634 7.47107,-18.437779 1.527506,-1.625423 3.172513,-2.996261 4.925228,-4.132099 -1.889799,-2.447926 -9.409828,-11.162542 -20.650704,-11.162542 -10.702333,0 -13.463593,6.403774 -20.885705,6.403774 -8.176073,0 -10.888375,-7.089194 -21.502582,-7.089194 0,0 -31.519495,0.940004 -31.519495,39.1864 0,13.796511 12.053588,54.011042 29.982198,54.011042 8.969201,0 7.892113,-5.51273 19.593199,-5.51273 11.642336,0 9.65462,4.66085 20.611537,4.66085 11.329002,0 26.075308,-15.64714 27.436355,-33.458254 -2.731886,-1.38063 -5.297312,-3.319387 -7.657113,-5.80648 z"
     style="fill:#ffffff;stroke-width:0.097917"
     id="path3" />
  <path
     class="st7"
     d="m 108.25708,38.863273 h 27.8574 V 82.9749 H 121.07442 V 51.749156 h -8.30337 c -2.72209,0 -4.97418,0.842086 -6.76606,2.536051 -1.79188,1.684173 -2.68293,3.867723 -2.68293,6.521275 0,2.614385 0.92042,4.817518 2.76126,6.599608 1.84084,1.78209 4.11252,2.673136 6.83461,2.673136 h 4.72939 v 12.885882 h -9.23357 c -5.67919,0 -10.692544,-2.291259 -15.040061,-6.863985 -4.357308,-4.572725 -6.531066,-9.71337 -6.531066,-15.441517 0,-5.767313 2.066049,-10.839416 6.198148,-15.226099 4.132099,-4.376892 9.204199,-6.570234 15.216309,-6.570234 z"
     style="fill:#ffffff;stroke-width:0.097917"
     id="path4" />
  <path
     class="st7"
     d="M 140.76554,95.860782 V 38.863273 h 28.35677 c 5.77711,0 10.73171,2.18355 14.85402,6.540858 4.1321,4.357309 6.19815,9.664412 6.19815,15.901728 0,6.051273 -2.07585,11.172334 -6.22753,15.372975 -4.15168,4.190849 -9.19441,6.296066 -15.1086,6.296066 h -9.59587 V 70.079226 h 4.29856 c 2.86897,0 5.27773,-0.80292 7.23607,-2.428343 1.95834,-1.615631 2.93751,-3.711056 2.93751,-6.276482 0,-2.477301 -0.93021,-4.660851 -2.79063,-6.560442 -2.0073,-2.046466 -4.46502,-3.064803 -7.37316,-3.064803 h -7.73544 v 44.111626 z"
     style="fill:#ffffff;stroke-width:0.097917"
     id="path5" />
  <path
     class="st7"
     d="M 193.18053,95.860782 V 38.863273 h 28.35677 c 5.77711,0 10.73171,2.18355 14.85402,6.540858 4.1321,4.357309 6.19815,9.664412 6.19815,15.901728 0,6.051273 -2.07584,11.172334 -6.22753,15.372975 -4.15168,4.190849 -9.19441,6.296066 -15.1086,6.296066 h -9.59587 V 70.079226 h 4.29856 c 2.86897,0 5.27773,-0.80292 7.23607,-2.428343 1.95834,-1.615631 2.93751,-3.711056 2.93751,-6.276482 0,-2.477301 -0.93021,-4.660851 -2.79063,-6.560442 -2.0073,-2.046466 -4.46502,-3.064803 -7.37316,-3.064803 h -7.73544 v 44.111626 z"
     style="fill:#ffffff;stroke-width:0.097917"
     id="path6" />
  <path
     class="st7"
     d="m 245.59552,25.899057 h 15.04006 v 57.066051 h -15.04006 z"
     style="fill:#ffffff;stroke-width:0.097917"
     id="path7" />
  <path
     class="st7"
     d="m 314.04932,70.079226 v 12.885882 h -25.41926 c -6.77586,0 -12.53338,-1.958341 -17.25298,-5.865231 -5.06231,-4.190849 -7.58857,-9.65462 -7.58857,-16.371729 0,-5.718355 2.4773,-10.790458 7.45148,-15.2261 4.9644,-4.435641 10.79046,-6.648567 17.4684,-6.648567 h 25.35072 v 12.856508 l -10.03649,14.648389 h -17.03757 l 10.59463,-14.609222 h -7.73545 c -2.86897,0 -5.17981,0.832294 -6.94232,2.496884 -1.7625,1.66459 -2.65355,3.779598 -2.65355,6.345024 0,2.712302 0.93021,4.974186 2.79064,6.77586 1.86042,1.811465 4.13209,2.712302 6.80523,2.712302 z"
     style="fill:#ffffff;stroke-width:0.097917"
     id="path8" />
  <path
     class="st7"
     d="m 70.196726,118.59712 c 7.040235,0 15.392559,-6.04148 21.03258,-14.88339 h -79.92968 c 4.954603,8.94962 11.329002,15.73527 18.692363,15.73527 8.969201,0 7.892114,-5.51273 19.5932,-5.51273 11.632544,0 9.65462,4.66085 20.611537,4.66085 z"
     style="fill:#ffffff;stroke-width:0.097917"
     id="path9" />
  <path
     class="st7"
     d="m 11.299626,103.71373 h 79.939472 c 2.898344,-4.543352 5.091686,-9.830872 6.012106,-15.421935 H 4.6608511 c 1.7722984,5.28752 4.0048069,10.653374 6.6387749,15.421935 z"
     style="fill:#ffffff;stroke-width:0.097917"
     id="path10" />
  <path
     class="st7"
     d="M 4.6608511,88.282003 H 97.241412 c 0.176251,-1.03792 0.303543,-2.095424 0.381877,-3.152928 C 94.881612,83.748444 92.325977,81.819479 89.956385,79.332386 88.017627,77.28592 86.431371,75.131745 85.2172,72.860069 H 0.7343778 c 0.7637529,4.543351 2.0954247,9.93858 3.9264733,15.421934 z"
     style="fill:#ffffff;stroke-width:0.097917"
     id="path11" />
  <path
     class="st7"
     d="m 82.162188,60.659606 c 0,-1.096671 0.06854,-2.163966 0.195834,-3.22147 H 0.50916861 C 0.17625068,59.905645 0,62.559197 0,65.437958 c 0,1.987716 0.25458431,4.533559 0.7343778,7.422111 H 85.2172 C 83.190317,69.080472 82.162188,64.997331 82.162188,60.659606 Z"
     style="fill:#ffffff;stroke-width:0.097917"
     id="path12" />
  <path
     class="st7"
     d="M 5.591063,42.016202 C 3.2018872,46.040592 1.3610469,51.093111 0.50916861,57.438136 H 82.348231 c 0.665836,-5.669397 3.094178,-10.780666 7.275236,-15.216308 0.06854,-0.06854 0.137084,-0.137084 0.205625,-0.205626 z"
     style="fill:#ffffff;stroke-width:0.097917"
     id="path13" />
  <path
     d="m 89.966176,79.332386 c -5.179811,-5.453979 -7.803988,-11.730462 -7.803988,-18.662988 0,-6.971693 2.516468,-13.179634 7.47107,-18.437779 1.527506,-1.625423 3.172513,-2.996261 4.925228,-4.132099 -1.889799,-2.447926 -9.409828,-11.162542 -20.650704,-11.162542 -10.702333,0 -13.463593,6.403774 -20.885705,6.403774 -8.176073,0 -10.888375,-7.089194 -21.502582,-7.089194 0,0 -31.519495,0.940004 -31.519495,39.1864 0,13.796511 12.053588,54.011042 29.982198,54.011042 8.969201,0 7.892113,-5.51273 19.593199,-5.51273 11.642336,0 9.65462,4.66085 20.611537,4.66085 11.329002,0 26.075308,-15.64714 27.436355,-33.458254 -2.731886,-1.38063 -5.297312,-3.319387 -7.657113,-5.80648 z"
     style="overflow:visible;fill:#ffffff;stroke-width:0.097917"
     id="path14" />
  <path
     class="st7"
     d="M 67.768383,20.425495 C 69.295889,18.90778 72.566318,7.9410719 72.566318,0 V 0 C 65.359624,1.6743814 58.61314,5.6302298 54.716042,11.03525 v 0 c -3.887307,5.405021 -6.100232,12.23963 -4.788143,20.425495 v 0 c 9.742745,-0.842087 14.315471,-5.737939 17.840484,-11.03525 z"
     style="fill:#ffffff;stroke-width:0.097917"
     id="path15" />
</svg>
