<?xml version="1.0" encoding="UTF-8" standalone="no"?>
<svg
   version="1.1"
   id="Layer_1"
   x="0px"
   y="0px"
   viewBox="0 0 380.00003 169.98402"
   width="380.00003"
   height="169.98402"
   xmlns="http://www.w3.org/2000/svg"
   xmlns:svg="http://www.w3.org/2000/svg">
  <defs
     id="defs20" />
  <path
     class="st1"
     d="m 356.29311,137.67532 c 0.88097,0.36625 1.54417,1.3264 2.6528,1.25711 2.20736,1.10863 3.23681,3.75153 5.52336,4.71169 -1.47488,1.77183 -3.01904,-1.25711 -4.78098,-1.39569 -1.62335,-2.35584 -5.00864,-2.72209 -5.67184,-5.44418 0.88097,-0.82157 1.76194,-0.0891 2.27666,0.87107"
     style="fill:#ffffff;stroke-width:0.098985"
     id="path1" />
  <path
     class="st1"
     d="m 369.5472,146.87103 c 3.46448,2.28655 7.2853,3.75153 10.45282,6.33504 -4.26626,-0.51472 -7.9485,-3.60305 -11.84851,-5.67184 -1.09873,-0.29696 -2.20736,-0.81168 -2.80127,-1.91041 0.0792,-0.51472 -0.29696,-1.17792 0.36624,-1.39569 1.55407,0.21777 2.43503,2.05889 3.83072,2.6429"
     style="fill:#ffffff;stroke-width:0.098985"
     id="path2" />
  <path
     class="st1"
     d="m 370.42817,154.968 c -0.44543,0.73249 -1.24721,0.14848 -1.76193,0 -2.72209,-1.24721 -5.22641,-3.08833 -7.73073,-4.92945 -0.51473,-0.51472 0.0792,-1.17792 0.6632,-0.88097 3.16752,1.47488 5.95889,4.04849 8.82946,5.81042"
     style="fill:#ffffff;stroke-width:0.098985"
     id="path3" />
  <path
     class="st1"
     d="m 367.27055,161.53071 c -1.17793,0.51472 -2.50432,-0.73249 -3.53377,-1.62336 0.96016,-1.84112 2.20737,1.17793 3.53377,1.24722 v 0.37614"
     style="fill:#ffffff;stroke-width:0.098985"
     id="path4" />
  <path
     class="st1"
     d="m 148.40479,52.647198 c 1.9896,0.514722 1.76193,3.682242 4.19697,2.652798 0.66319,-0.148477 1.47487,0.6632 0.88096,1.474877 -0.36624,0.217767 -0.81168,0.445433 -1.25711,0.6632 0.36625,0.732489 1.17792,1.692643 0.36625,2.50432 -2.20737,1.177922 -4.78098,1.25711 -7.21601,1.910411 -8.76017,3.315998 -18.25284,10.017283 -21.93508,19.28228 -1.84112,6.186563 -2.13807,14.135059 1.62336,19.579236 3.08833,3.16752 6.70128,6.55281 11.11601,7.2853 3.90001,0.88096 7.2853,-0.58402 10.08657,-3.01905 0,-0.88096 -1.76193,-1.3264 -0.73248,-2.13807 -2.05889,-2.50432 0.21776,-5.226412 -0.36625,-7.9485 0.73249,-2.870565 1.02945,-5.226408 2.13808,-7.948496 -1.62336,-0.148477 -3.16752,0.960155 -4.92946,1.029444 0.73249,-0.366244 0,-1.326399 -0.51472,-0.663199 -3.316,1.544166 -6.84976,2.50432 -9.93809,4.563209 -0.44544,-0.06929 -1.25711,-0.435534 -0.6632,-1.029445 3.24671,-0.950256 1.9896,-5.295698 5.67184,-5.523363 0.51472,-2.207366 3.16752,-2.504321 5.07793,-2.939855 -0.51472,-2.207366 1.9896,-0.811677 2.87056,-1.474877 2.57361,-1.326399 5.52337,-1.989598 7.73073,-4.414731 1.02945,-0.514722 1.9896,-0.296955 2.28656,0.880967 0.0792,0.435534 -0.0792,0.880966 0.36624,1.108632 1.17792,-0.148478 2.05889,-1.989599 3.16752,-1.108632 -0.0792,11.412971 -6.77057,21.568833 -4.04848,33.268866 -0.14848,1.09873 0.21776,2.42513 0.36624,3.68224 -0.22767,0.36624 -0.59391,0.36624 -0.88097,0.51472 -0.36624,-0.29696 0,-0.88097 -0.36624,-1.25711 -2.50432,1.3264 -1.25711,-2.6528 -3.316,-2.28655 -1.02944,-1.02945 -1.54417,-2.57361 -3.23681,-2.42514 -2.05889,2.20737 -3.46447,5.44418 -6.70128,5.9589 -4.34545,1.17792 -9.42338,0.44543 -13.40257,-1.91041 -5.82032,-2.28655 -9.9381,-7.65154 -12.37313,-13.105615 -2.50432,-10.086572 -1.9896,-21.935078 3.68224,-30.398296 1.02945,-3.385288 4.34544,-5.374886 5.81042,-8.611696 2.93986,-1.623354 4.19697,-5.592653 7.2853,-7.285297 0.51472,0.07919 1.25711,0 1.25711,-0.663199 3.75153,-2.138077 7.94849,-3.088333 12.36323,-3.751532 0.89086,2.365741 4.64239,0.455331 3.53376,3.543663"
     style="fill:#ffffff;stroke-width:0.098985"
     id="path5" />
  <path
     class="st1"
     d="m 235.64028,63.248493 c -3.83072,4.780976 -8.02768,9.423373 -10.38353,14.867548 h 0.51472 c 0.6632,-1.029444 3.16753,-0.366244 3.53377,-2.286554 1.84112,-0.584011 3.46447,-2.801275 5.67184,-1.395688 -0.73249,-1.544166 1.39569,-1.989599 0.14848,-3.019043 -0.14848,-0.811677 0.0792,-1.989599 1.02944,-2.286554 -0.21776,-1.91041 1.17792,-3.533765 1.10863,-5.523363 -0.0792,0.296955 -0.58401,0.950256 -1.10863,0.880966 -0.36624,-0.277158 -0.58401,-0.643402 -0.51472,-1.237312 m -51.01687,-17.96578 c -1.17793,1.910411 2.57361,2.870566 0.51472,4.711687 1.17792,0.811677 2.42513,0.366244 3.16752,1.989599 -1.25711,3.603054 -3.83072,6.701285 -5.2957,10.23505 -2.42513,1.623354 -1.3264,4.711686 -2.80128,6.701285 -2.57361,3.682242 -5.00864,7.433774 -6.03808,11.700028 -4.86016,6.40433 -7.21601,13.907394 -9.35408,21.499548 -0.36625,1.09873 -0.29696,2.65279 0.88096,3.23681 3.316,0.43553 5.59266,-3.46448 8.09698,-4.78098 0.96015,-1.544166 3.01904,-1.989599 3.75153,-3.751532 3.60305,-3.315998 9.12642,-6.849763 9.49266,-11.996983 1.62335,-1.395689 0.14848,-4.048487 2.13808,-5.295698 0,-1.910411 0,-4.345442 1.77183,-5.077931 -0.44543,-1.395689 -0.81168,-2.939855 0.36624,-4.117777 -0.21776,-0.514722 0.36625,-0.811677 0.14848,-1.395688 0.51472,0.296955 1.10863,-0.435534 1.62335,-0.6632 1.91042,-1.326399 -1.62335,-2.286554 0.36625,-3.533765 1.24721,-1.623354 1.61345,-4.117776 3.316,-5.008641 -0.58401,-1.029444 1.17792,-1.544166 1.10863,-2.652798 1.47488,-2.058889 2.20736,-4.642397 4.41473,-6.335041 0.88097,0.811677 2.57361,-0.148478 3.16752,1.395689 1.47488,-0.73249 2.72209,-0.811678 4.19697,0 0.51472,0.880966 1.32639,1.841121 0.88096,2.870565 -0.21777,0.514722 -0.81168,0.880966 -0.6632,1.544166 0.96016,0.514722 2.35585,0.880967 2.28656,2.286554 v 1.108632 c -7.43378,13.254093 -13.17491,27.161487 -18.03507,41.524208 -0.0792,1.3264 -0.6632,2.72209 -0.14848,4.04849 0.36624,0.88097 1.24721,1.9896 2.27665,2.13808 0.29696,0.29695 0.6632,0.81167 1.02945,0.36624 2.20736,-4.34544 6.18656,-7.51296 8.31474,-11.848505 -1.47488,0.217768 -3.16752,0.960155 -4.79087,1.395689 -0.21777,-1.177921 1.39568,-1.841121 1.47487,-3.157622 0.29696,-1.029444 -1.54416,-0.880966 -0.58401,-1.771831 1.54417,-0.880967 3.68224,-1.247211 4.41473,-2.870566 1.47488,-1.177921 3.75153,-1.029444 4.41473,-3.16752 3.75154,-0.811677 3.46448,-4.860164 5.88961,-7.06753 0.36625,-2.286553 2.80128,-3.533765 3.68224,-5.454074 0.29696,0.227666 0.6632,0.148478 0.88097,-0.217767 -0.59391,-2.722088 4.19696,-2.652798 3.68224,-5.820318 2.13808,-0.6632 1.84112,-2.939855 3.53377,-4.048487 1.25711,-1.692644 2.50432,-3.533765 4.42463,-4.790875 -0.22767,-0.435534 0.43553,-0.514722 0.36624,-0.880966 2.50432,-2.504321 6.70129,-4.048487 6.40433,-7.948497 0.0792,-1.029444 0.14848,-2.652798 1.39569,-3.315997 1.24721,0 2.42513,0.584011 3.316,1.029444 0.0792,0.584011 -0.21777,1.692643 0.73249,1.623354 2.57361,0.663199 4.34544,0 6.70128,1.177921 0.36625,0.296955 0,0.811678 0.36625,1.108633 -5.00864,20.608679 -3.90001,44.464066 -7.06753,65.884424 0.44543,3.01904 -0.73249,6.25585 -0.36625,8.97794 -0.51472,0.36624 -0.44543,1.24721 -1.02944,0.88097 0.14848,-0.44544 -0.29696,-0.73249 -0.51472,-1.02945 0,-1.02944 0.29695,-2.6528 -0.59391,-3.53376 -0.14848,0.29695 -0.51473,0.36624 -0.88097,0.36624 -0.51472,-0.36624 -0.29695,-1.02944 -0.88097,-1.39569 1.69265,-0.51472 1.25711,-2.35584 1.10864,-3.53376 -1.10864,-0.0792 -0.88097,-1.3264 -1.39569,-1.9896 0.29695,-0.44543 1.76193,-0.36625 1.17792,-1.54417 -0.36625,-0.96015 -0.73249,0.43554 -1.39569,0 -0.36624,-0.81167 -0.81168,-1.69264 -0.51472,-2.50432 -1.02945,-1.47487 0.14848,-3.9792 -1.24721,-5.15712 0,-0.88096 0.81167,-1.9896 0,-2.80127 -0.88097,0.44543 -0.44544,2.05889 -1.02945,2.50432 -0.29695,-3.01905 -1.84112,-6.48352 0,-9.205608 -0.29695,-1.474877 -1.62335,-3.088333 -0.88096,-4.929454 -0.29696,-3.23681 0.6632,-6.919052 0.36624,-10.086572 -1.77183,-0.296955 -3.16752,1.326399 -5.00864,1.395688 -0.44543,1.029444 -1.76193,0.960155 -2.6528,1.395689 -2.57361,0.584011 -3.75153,3.533765 -6.47362,3.751532 -0.44543,0.445432 -1.09873,0.445432 -1.62335,0.663199 0,-0.148477 0.0693,-0.445432 -0.14848,-0.514722 -0.6632,0.880967 -2.57361,0.148478 -1.9896,1.771832 -0.88097,0 -1.47488,0.960155 -1.91041,1.613456 -3.53376,6.631995 -6.83986,13.32338 -10.96754,19.72771 -0.6632,1.84112 -2.13808,3.38529 -2.6528,5.2957 -0.29695,0.36624 -0.96015,0.14848 -1.02944,-0.14848 -0.6632,-0.88096 -1.47488,0.58401 -1.62336,1.02945 -1.69264,3.38528 -3.46447,7.06753 -6.18656,9.72032 -0.29695,0.14848 -0.51472,-0.14847 -0.73249,-0.29695 0.0792,-0.81168 0.59391,-1.54417 0.59391,-2.13808 -1.3264,1.10864 -2.13807,2.43503 -3.01904,3.68225 -1.69264,0.43553 -0.44543,-1.47488 -1.10863,-2.13808 -1.62336,1.62335 -2.13808,4.79087 -4.92946,4.79087 -0.14847,-0.81167 0.21777,-1.84112 0.36625,-2.80127 -0.59391,-0.58401 -1.25711,0.73249 -1.77183,-0.21777 0.36624,-1.47488 2.13807,-2.72209 2.50432,-4.41473 1.54416,-0.58401 1.10863,-2.87057 2.6528,-3.68224 -0.29696,-1.3264 1.02944,-1.54417 1.02944,-2.6528 1.54417,-1.47488 1.47488,-3.68224 3.16752,-5.15712 -3.61295,0.51472 -9.2749,4.26625 -11.84851,-0.6632 0.51473,-1.02944 0.0792,-2.28655 -0.88096,-2.87056 0.51472,-3.08834 -0.14848,-5.2957 1.10863,-8.09698 -0.14848,-1.47488 1.69264,-2.058887 0.88097,-3.385286 -3.75154,4.117776 -7.9485,8.314746 -12.22465,12.076176 -3.16752,1.54416 -6.77058,2.13807 -10.08657,0.29695 -1.24722,-0.73249 -1.17793,-2.05889 -2.05889,-2.94975 -1.3264,-5.88961 -1.09874,-11.927697 1.39569,-17.154105 1.39568,-2.939855 0.73249,-6.770575 2.80127,-9.344185 0.96016,-6.038086 4.19697,-11.116017 6.40433,-16.63938 1.3264,-3.16752 2.28656,-6.552808 4.56321,-9.354084 1.10863,-3.464475 2.43503,-7.285296 5.67184,-9.344185 0.51472,-0.296955 1.10863,-1.177921 1.76194,-0.584011 1.32639,0.366244 1.62335,-2.138076 3.16752,-1.177922 0.28705,0.227666 0.57411,0.524621 0.72259,0.890865"
     style="fill:#ffffff;stroke-width:0.098985"
     id="path6" />
  <path
     class="st1"
     d="m 108.80089,36.601728 c -0.29696,0.584012 -1.09874,0.584012 -1.62336,1.029444 -4.78097,0.732489 -9.789613,1.029444 -14.43201,2.138076 -0.732489,1.910411 1.326399,1.841121 2.425133,1.761933 0.366244,0.514723 1.029444,-0.148477 1.108632,0 0,2.207366 -3.533765,1.3264 -2.870566,3.90001 -1.841121,1.692644 -4.642397,1.029444 -6.552807,2.652798 0.148477,0.148478 0.296955,0.217767 0.366244,0.366245 -3.16752,1.257109 -6.473619,2.801275 -9.868805,3.16752 0.514722,1.247211 -1.395689,2.286554 -1.989599,3.019043 -2.128178,-0.148478 -3.682242,0.960154 -5.444176,1.761933 -2.118279,13.254093 -6.681488,25.548031 -10.43302,38.138924 -3.969298,7.512966 -6.107375,15.758416 -12.511705,22.311226 -6.552808,8.61169 -15.896992,18.62897 -27.903874,15.01602 -7.06753,-2.93985 -16.1246583,-5.52336 -19.0645131,-13.8381 -0.07918801,-0.73249 0.58401156,-1.02945 1.1779216,-1.17792 0.5147221,-0.21777 0.3662446,0.29695 0.5840116,0.51472 0.8809666,0.51472 1.9104107,0.88096 2.0588882,2.13807 4.4939194,2.6528 8.3147407,6.84977 14.1350597,6.17667 10.967539,-1.17792 17.965779,-12.44242 23.192188,-20.90564 7.136819,-14.352822 10.967539,-30.180525 14.501304,-46.087416 -0.148478,-0.148478 -0.296956,-0.217767 -0.366245,-0.366245 -9.126418,0.811677 -17.965779,2.791377 -27.013009,3.019043 -0.514722,-0.732489 -0.6632,-1.544166 -1.108632,-2.286554 -0.960155,-0.366244 -2.286554,0.811677 -2.652799,-0.366244 0.514722,-0.148478 -0.07919,-0.366245 -0.148477,-0.514722 1.108632,0.07919 1.910411,-0.732489 2.435031,-1.623355 0.296955,-1.108632 -1.029444,-1.257109 -1.544166,-1.91041 -0.732489,-0.148478 -1.395689,-0.296955 -1.623354,-1.108632 0,-0.732489 0,-1.474877 0.732489,-1.910411 1.029444,-0.6632 3.900009,0.732489 3.306099,-1.25711 -0.663199,-0.06929 -2.355843,0.366245 -2.425133,-1.029444 0.07919,-1.108632 0.217767,-2.138076 1.544167,-1.989598 9.423373,0.811677 17.589636,-1.910411 26.864531,-2.425133 13.323383,-1.841121 25.983565,-5.671841 39.089181,-7.433774 4.414731,-0.73249 8.82946,-1.395689 13.25409,-2.138077 1.10863,0.0099 2.58351,-0.138579 2.80128,1.25711"
     style="fill:#ffffff;stroke-width:0.098985"
     id="path7" />
  <path
     class="st1"
     d="m 96.803905,63.99088 c -0.148477,0.296955 -0.514722,0.514722 -0.514722,0.880967 -0.445432,0.514722 -1.326399,2.504321 -1.989599,0.732489 -3.682242,5.889608 -6.770574,11.996983 -9.868805,18.183546 -0.217767,0.445433 -0.217767,0.960155 0,1.405587 1.761933,0.366245 1.544166,-1.029444 2.138076,-1.920309 1.029444,-0.584011 2.207366,-1.247211 3.533765,-0.732489 1.474877,-2.207366 4.196964,-2.870565 6.47362,-3.900009 -0.138579,-5.008642 0.445432,-9.651039 0.227665,-14.649782 M 108.28617,47.935512 c 0.81167,1.544166 -1.24721,5.295698 1.76193,5.077931 1.54417,2.722087 0.0792,5.958897 0.14848,9.057128 -1.62336,16.787858 -1.9896,34.822927 -1.76194,51.749359 -0.36624,0.73249 0.29696,3.09824 -1.39568,2.13808 -0.81168,-0.81168 -0.88097,-2.43503 -1.91042,-2.6528 -1.25711,2.13808 -0.59391,4.86017 -1.25711,6.84976 -1.39568,-0.51472 -1.47487,-1.91041 -1.62335,-3.16752 1.39569,-2.35584 -2.20736,-3.53376 -1.24721,-6.18656 -1.029445,0.58401 0,2.72209 -0.88097,3.68224 -1.029441,0.29696 -1.177919,-1.02944 -1.771829,-1.77183 0.148478,-1.61345 -1.761933,-3.38529 -0.296955,-4.56321 1.029444,-2.6528 -1.761933,-4.26625 -0.732489,-6.70128 C 97.17015,96.665832 96.952383,90.993991 96.803905,86.430782 l -0.366244,-0.366245 c -4.414732,1.841122 -9.205606,3.464476 -13.620338,4.790875 -0.960154,0.435534 -1.761933,1.474877 -3.019043,1.395689 -4.711686,8.760169 -8.245451,18.035069 -12.511705,27.013009 0.217767,2.42513 -3.019043,2.93985 -2.504321,5.52336 -0.584011,1.10864 -0.880966,2.50432 -1.761933,3.3061 -0.732489,-1.39569 1.623354,-3.23681 0,-4.56321 0.584012,-1.47487 1.177922,-3.16752 0.880967,-4.78097 -2.207366,3.08833 -3.464475,6.77057 -5.077931,10.23505 -0.732489,0.21776 -0.880967,-0.96016 -0.514722,-1.39569 0.435534,-0.88097 1.247211,-2.13808 0.663199,-3.01904 h -0.376143 c -1.395688,2.06878 -1.692643,5.00864 -4.048487,6.18656 0.584012,-1.92031 -0.296955,-2.80128 -0.148477,-4.56321 0,-2.13808 2.058888,-2.93985 1.910411,-4.78098 0.811677,-0.44543 -0.217767,-1.77183 1.108632,-1.77183 -0.07919,-0.96015 2.286553,-1.61345 1.029444,-2.50432 0.950256,-2.80127 2.722088,-5.37488 3.900009,-7.94849 1.029444,-0.88097 0.6632,-2.35585 1.910411,-3.15763 0.960154,-2.50432 2.207366,-5.15712 4.048487,-7.43377 -0.811677,-1.326399 1.544166,-1.395689 0.732489,-2.801276 0.296955,-0.811677 1.029444,-1.474877 1.25711,-2.286554 -0.6632,-0.514722 -2.949754,0.366245 -2.652799,-1.395688 0.366245,-0.514722 -0.59391,-0.514722 -0.880966,-0.732489 1.029444,-1.029445 2.801275,-1.623355 4.196964,-1.623355 0.296955,-0.811677 1.326399,-0.584011 1.989599,-0.880966 0.732489,-1.841121 3.019043,-3.385288 2.286554,-5.592653 1.177921,-0.811677 2.286553,-1.989599 2.286553,-3.23681 0,-2.870565 3.385288,-5.147221 3.751532,-7.730729 1.623354,-1.177922 1.910411,-3.385288 2.949753,-4.780976 1.474877,-0.296955 0.06929,-1.692644 1.623355,-1.761934 1.761933,-3.236809 2.138076,-7.216007 5.295698,-9.720328 1.177921,-1.692643 1.841121,-3.533764 2.286553,-5.444175 0.811677,-0.435534 1.247211,0 2.138077,-0.217767 0.663199,0.663199 0,2.504321 1.623354,2.138076 0.514722,-1.108632 0.06929,-3.682242 2.276655,-3.682242 1.771828,-0.07919 3.830718,0.960154 4.929458,-0.732489 1.01954,-0.613707 2.79137,-1.207617 3.89011,-0.178173"
     style="fill:#ffffff;stroke-width:0.098985"
     id="path8" />
  <path
     class="st1"
     d="m 303.14806,46.6883 c 3.83072,-0.06929 7.216,3.157622 10.60129,5.305597 4.04849,3.454577 6.03809,7.800019 5.82032,13.026427 -0.44543,9.938095 -10.67058,17.589637 -18.69827,21.568834 0.6632,1.098734 2.05889,2.058888 3.16752,2.870565 3.53377,3.464476 5.9589,8.245452 10.08657,11.482257 1.17793,2.50433 4.26626,2.6528 6.18657,4.71169 2.87056,5.07793 8.46322,6.55281 11.63074,11.18531 3.83072,3.31599 7.66144,7.36448 11.8485,10.23505 1.84112,3.38528 5.67184,2.6528 7.21601,6.33504 1.02944,0.36624 1.76193,1.47487 2.13808,2.28655 -2.35585,2.12818 -4.04849,-2.28655 -6.18657,-3.16752 -1.62335,-1.02944 -2.87056,-2.50432 -4.56321,-3.68224 -7.73073,-6.03809 -14.43201,-12.22465 -22.4498,-17.52035 -2.50432,-1.25711 -4.19696,-4.12767 -6.03808,-6.33504 -4.41473,-1.24721 -5.74113,-6.038084 -9.34419,-8.463217 -0.58401,-1.108632 -1.54416,-2.207366 -2.43503,-3.019043 -0.0693,1.25711 -1.47488,0.811677 -1.9896,0.148478 -1.3264,-1.692644 -3.60305,-2.355843 -5.07793,-3.682243 0.59391,-1.841121 -1.54416,-0.663199 -2.12818,-1.247211 -0.88096,-1.098733 -1.98959,-2.355843 -3.16752,-3.019043 -0.88096,0.445433 0,0.960155 0.14848,1.405588 2.80128,1.989598 3.60306,6.186563 7.06753,6.919052 3.316,3.682242 6.99824,6.552809 10.6013,9.571849 -0.29696,0.36625 -1.10864,0.21777 -1.62336,0.51472 6.99824,3.38529 12.36323,10.67059 19.1437,14.64978 2.57361,2.42514 5.22641,4.71169 7.36449,7.06753 0.14847,0.21777 -0.29696,0.29696 -0.14848,0.51473 9.05713,6.10737 16.27314,15.89699 25.98356,21.05411 0.29696,0.73249 -0.51472,0.81168 -0.88096,0.51472 -10.45282,-6.6221 -19.43076,-15.75841 -30.03205,-22.08356 -8.83937,-6.5528 -14.71908,-15.97618 -24.58788,-20.83634 -0.29696,-1.69264 -2.05889,-1.61346 -3.16752,-2.28655 -1.10863,-1.62336 -3.46448,-3.019047 -3.53377,-5.157123 -1.54416,-1.692644 -4.41473,-2.425133 -5.15711,-4.929453 -1.39569,-0.732489 -2.6528,-2.138077 -4.41474,-1.623355 -1.24721,-0.811677 -1.84112,-2.801275 -3.53376,-3.019042 -0.29696,-0.6632 -1.25711,-0.59391 -1.17792,-1.395689 1.54416,-0.217767 1.02944,-2.207366 2.6528,-2.435031 1.32639,0.732489 2.80127,0.663199 4.19696,0.148477 1.17792,-2.286553 -2.13808,-2.870565 -3.01904,-4.563209 -0.6632,-0.960154 0.58401,-1.91041 0.73249,-2.355843 2.42513,-0.06929 3.83072,4.780976 6.5528,2.870565 0.6632,0 0.95026,0.811677 1.76194,0.514722 1.76193,-2.939854 4.11777,-5.671841 6.32514,-8.463218 0.73249,-1.771832 2.28655,-3.454577 1.39569,-5.671841 -3.16752,-4.048487 -8.82946,-4.790874 -13.9074,-3.900009 -1.3264,1.177921 -3.97919,0.435534 -4.26625,2.652798 -0.22767,1.910411 -1.47488,3.315998 -2.28655,4.929453 -0.44544,-0.06929 -0.51473,-0.435534 -0.51473,-0.880966 0.36625,-0.217767 -0.29695,-0.584012 -0.51472,-0.6632 -2.28655,2.801276 -2.57361,6.770575 -4.11777,10.086573 -0.51473,0 -0.29696,-0.732489 -0.88097,-0.732489 -3.9792,11.996983 -6.25585,24.58788 -8.98784,37.09958 -0.29695,0.88097 -0.88097,1.24721 -1.61346,1.76193 -1.10863,-0.81167 0.88097,-2.80127 -1.02944,-3.38528 -2.35584,5.37488 -4.49392,10.81906 -6.91905,16.12466 -0.73249,-1.10864 0.0792,-2.13808 -0.6632,-3.16752 -1.02945,-0.21777 -1.54417,0.21776 -1.76193,1.02944 -1.02945,2.28655 -0.73249,5.44417 -2.6528,7.06753 0.0792,-0.51472 0.59391,-2.05889 0,-2.80128 -0.96016,0.6632 -0.88097,2.93986 -2.13808,2.28656 0,-1.54417 -1.61345,-3.316 0,-4.6424 -2.12818,-2.94975 1.39569,-6.55281 2.50432,-9.72033 0.6632,-0.51472 2.05889,-0.88096 0.88097,-1.91041 0.73249,-0.81168 -0.44543,-3.16752 1.17792,-3.01904 0.95026,-0.6632 0.0693,-1.10863 -0.51472,-1.39569 1.25711,-2.72209 1.76193,-5.74113 3.01904,-8.46322 1.24721,-0.44543 2.20737,-1.47488 2.28655,-2.87056 -0.96015,-0.14848 -0.73248,-1.3264 -0.51472,-1.91041 2.35585,-6.552812 3.68224,-13.551052 6.70129,-19.806905 0.36624,-1.395689 0.58401,-3.306099 1.76193,-4.563209 0.44543,-2.435031 1.84112,-4.345442 2.28655,-6.701285 -3.08833,0.584011 -6.10737,4.642397 -9.71042,2.652798 0.0693,-3.682242 -4.71169,0.584012 -4.56321,-3.019043 -0.29696,-2.207365 -2.94976,-0.217767 -3.53377,-2.286554 0,-1.474876 0.81168,-2.207365 0.51472,-3.533764 1.3264,0.663199 2.12818,-0.960155 3.38529,-0.880967 1.39569,-1.098734 0.73249,-3.088332 1.91041,-4.266254 3.01904,-0.732489 5.59265,-2.939855 8.46322,-3.385287 0.36624,-0.514722 0.6632,-1.25711 1.47488,-1.177922 1.47487,0.07919 2.93985,-0.880966 4.41473,-1.247211 0,0.06929 0.0792,0.06929 0.14848,0.148478 1.47487,-0.950257 3.53376,-0.880967 4.78097,-2.128178 3.01904,-0.296955 5.88961,-2.058888 8.82946,-1.544166 1.9896,-0.366245 4.79088,0.148477 6.33504,-1.761934 1.54417,-1.098733 3.38529,0.73249 4.92946,-0.880966 1.67285,1.078937 4.32564,-0.762185 6.01829,0.861169"
     style="fill:#ffffff;stroke-width:0.098985"
     id="path9" />
  <path
     class="st1"
     d="m 285.47923,91.370134 c 0.81168,0.514722 1.62336,1.177922 2.6528,1.247211 3.316,5.077931 9.12642,8.463215 12.37313,13.768815 1.62335,1.47488 4.49392,1.91041 4.92945,4.41473 3.316,2.72209 7.43378,5.44418 9.35408,9.20561 2.28656,1.17792 4.34545,2.6528 6.77058,3.316 6.70128,5.29569 11.77922,10.96753 17.96578,16.77795 3.9792,4.56321 9.34418,5.59266 13.62034,9.20561 2.93985,2.80128 6.84976,5.59265 9.05712,8.83936 -0.14847,0.29696 -0.81167,0.29696 -1.10863,0 -9.2056,-7.94849 -19.28228,-14.06577 -28.41859,-22.23203 -1.3264,0.14848 -2.50433,-0.88097 -3.53377,-1.76193 -6.03808,-3.08834 -9.8688,-10.89825 -16.63938,-12.5909 -2.05889,-3.68224 -5.82032,-5.88961 -9.35408,-7.94849 -2.80128,-1.09874 -3.08834,-4.71169 -5.82032,-5.44418 -0.81168,-1.02944 -2.28656,-1.10863 -2.6528,-2.50432 -2.6528,-2.94975 -5.2957,-6.255853 -8.69088,-8.096974 -1.02945,-1.029444 -1.54417,-2.207366 -2.28656,-3.385288 -1.17792,-0.217767 -3.23681,0.6632 -4.04848,-1.029444 -1.17793,0 -2.50433,0.217767 -3.16752,-0.880966 0.14847,-1.247212 1.32639,-1.910411 0,-3.019043 1.39568,-3.682243 4.49391,0.296955 6.84976,0 0.97005,0.425635 1.70254,1.158124 2.14797,2.118279"
     style="fill:#ffffff;stroke-width:0.098985"
     id="path10" />
  <path
     class="st1"
     d="m 288.28051,100.94198 c 1.47488,1.24722 2.72209,2.6528 2.6528,4.56321 2.57361,4.49392 6.91905,7.65154 10.60129,10.96754 1.17792,2.13808 2.57361,4.19697 4.11778,6.18657 3.08833,-1.3264 4.92945,2.20736 6.84976,4.04848 -0.36624,2.28656 2.57361,2.72209 3.90001,4.04849 1.10863,-0.44543 1.77183,0.6632 1.91041,1.61346 2.50432,1.02944 3.60305,4.26625 6.40433,4.5632 1.10863,2.20737 4.26625,1.25711 4.41473,3.90001 2.35585,1.84112 5.00864,3.23681 7.21601,4.92946 -0.21777,1.47487 2.13808,0.6632 1.9896,2.28655 1.10863,0.81168 2.20736,2.35584 3.83072,2.12818 0.29695,2.13807 2.6528,2.13807 3.90001,3.16752 6.70128,5.67184 14.28353,10.74977 20.68786,16.63938 -0.96015,0 -1.77183,-0.59391 -2.65279,-0.88097 -17.45106,-13.68962 -35.92166,-25.7658 -53.15495,-40.2671 -0.96016,-0.51472 -1.02945,-1.61346 -1.47488,-2.50432 -5.9589,-0.81168 -9.12642,-7.2853 -14.13506,-10.6013 -1.84112,-5.00864 -8.76017,-6.10737 -9.34419,-11.63073 -1.84112,-1.69265 -5.07793,-1.02945 -5.95889,-3.90001 -0.51472,-0.21777 -0.51472,-0.960158 -0.73249,-1.395692 -1.02945,-1.029444 -4.04849,-0.732489 -3.16752,-2.870565 2.72209,-1.395689 4.92945,1.692644 7.58225,2.138076 1.24721,1.247211 3.08833,1.910411 4.56321,2.870561"
     style="fill:#ffffff;stroke-width:0.098985"
     id="path11" />
  <path
     class="st1"
     d="m 265.9,118.61081 c -0.36625,3.01904 -1.69265,5.74113 -3.38529,8.24545 -0.73249,-0.14848 -0.6632,-1.3264 -1.62335,-1.54417 0.0792,-0.36624 0.51472,-0.58401 0.73249,-0.88096 0.36624,0 0.66319,-0.0792 0.88096,-0.36625 1.10863,-1.9896 -0.21777,-5.37488 2.50432,-6.18656 0.29696,0.13858 0.59391,0.43553 0.89087,0.73249"
     style="fill:#ffffff;stroke-width:0.098985"
     id="path12" />
  <path
     class="st1"
     d="m 125.37098,0.06636079 c 0.74239,0 1.49467,0 2.23706,0 0,1.75203471 0,3.50406931 0,5.25610401 0.01,1.4649782 -0.0297,2.9200578 -0.0891,4.385036 -0.099,2.1083802 -0.22766,4.2266602 -0.58401,6.3053452 -0.23756,1.435283 -0.73249,2.821073 -1.35609,4.137573 -1.00965,2.11828 -2.58351,3.919807 -4.36524,5.424379 -1.59366,1.395689 -3.48427,2.415234 -5.48377,3.108129 -1.12843,0.386042 -2.28655,0.692895 -3.47437,0.851271 0,-1.464978 0,-2.939855 0,-4.404833 1.42538,-0.217767 2.79137,-0.72259 4.06828,-1.38579 1.50457,-0.801778 2.87056,-1.870817 4.00889,-3.137825 1.17792,-1.306602 2.11828,-2.821072 2.84087,-4.42463 0.84137,-1.851019 1.28681,-3.840618 1.59366,-5.840115 0.38604,-2.5340164 0.54442,-5.1076267 0.60381,-7.6713384 0,-0.8710681 0,-1.74213623 0,-2.60330581 z"
     style="fill:#ffffff;stroke-width:0.098985"
     id="path13" />
  <path
     class="st1"
     d="m 128.5088,0.06636079 c 1.366,-0.0098985 2.74189,0 4.11778,0 0,9.82921151 0,19.64852421 0,29.47773621 -1.36599,0 -2.74188,-0.0099 -4.10788,0 -0.0198,-3.137825 0,-6.265751 -0.01,-9.403576 0,-6.691387 0,-13.3827735 0,-20.07416021 z"
     style="fill:#ffffff;stroke-width:0.098985"
     id="path14" />
  <path
     class="st1"
     d="m 133.53724,0.05646229 c 0.74239,0 1.48478,0 2.21727,0 -0.0198,2.99924581 0.0792,5.99849161 0.43553,8.97794041 0.28706,2.3162493 0.70279,4.6423973 1.62335,6.7903713 0.87107,2.078686 2.12818,4.018792 3.77133,5.582755 1.56397,1.494674 3.46448,2.6429 5.52337,3.306099 0.57411,0.188072 1.16802,0.326651 1.76193,0.415737 0,1.464978 0,2.939855 0,4.404833 -1.17792,-0.158376 -2.32615,-0.465229 -3.44468,-0.841372 -1.3363,-0.46523 -2.6231,-1.069038 -3.81092,-1.841122 -0.86117,-0.554316 -1.65305,-1.227414 -2.40534,-1.920309 -1.24721,-1.148226 -2.36574,-2.454828 -3.19721,-3.939603 -0.6533,-1.148226 -1.13833,-2.395437 -1.50457,-3.672344 -0.34645,-1.276907 -0.48503,-2.593407 -0.62361,-3.909908 -0.25736,-2.830971 -0.35635,-5.6817394 -0.33655,-8.5325077 -0.01,-1.5936587 -0.01,-3.2071144 -0.01,-4.82057001 z"
     style="fill:#ffffff;stroke-width:0.098985"
     id="path15" />
  <path
     class="st1"
     d="m 162.40127,1.2739779 c 1.14823,-1.46497814 3.52387,-1.71244066 4.92945,-0.48502654 0.57412,0.48502654 0.97996,1.14822614 1.18782,1.87081664 2.60331,8.958143 5.21651,17.916287 7.81982,26.884329 -1.53427,0 -3.07843,0 -4.6127,0 -0.72259,-2.474625 -1.43528,-4.949251 -2.14798,-7.413977 -2.96955,-0.0099 -5.9391,0 -8.91854,0 -0.7226,2.474625 -1.44519,4.94925 -2.15788,7.423875 -1.52437,0 -3.05863,0 -4.583,0 2.47462,-8.552305 4.94925,-17.094711 7.43377,-25.6470158 0.29696,-0.9007636 0.40584,-1.9005122 1.04924,-2.6330013 m 2.71219,5.4936681 c -1.08883,3.711938 -2.15787,7.433774 -3.23681,11.145712 2.15787,0.0099 4.31575,0 6.48352,0 -1.08884,-3.711938 -2.16777,-7.423876 -3.24671,-11.145712 z"
     style="fill:#ffffff;stroke-width:0.098985"
     id="path16" />
  <path
     class="st1"
     d="m 194.77927,1.4719479 c 0.80178,-1.15812459 2.34594,-1.72233914 3.71194,-1.36599311 1.24721,0.28705653 2.20736,1.36599311 2.53401,2.57361031 2.60331,8.9581429 5.21651,17.9063879 7.80992,26.8645319 -1.53427,0.0099 -3.07843,0 -4.6127,0.0099 -0.71269,-2.474625 -1.42539,-4.94925 -2.14798,-7.423875 -2.96955,0 -5.9292,-0.0099 -8.89875,0 -0.71269,2.474625 -1.44518,4.939352 -2.14797,7.413977 -1.52437,0 -3.04874,0 -4.58301,0 2.47463,-8.591899 4.97895,-17.183798 7.46347,-25.7756968 0.26726,-0.7720831 0.37614,-1.6233542 0.87107,-2.2964523 m -0.37614,16.4513091 c 2.14797,0 4.30584,0 6.45382,0 -1.06904,-3.721837 -2.15788,-7.443673 -3.22691,-11.1655095 -1.06904,3.7218365 -2.14798,7.4337745 -3.22691,11.1655095 z"
     style="fill:#ffffff;stroke-width:0.098985"
     id="path17" />
  <path
     class="st1"
     d="m 172.89368,0.05646229 c 5.56296,0 11.11602,0 16.67898,0 0,1.50457211 0,2.99924581 0,4.49391941 -2.04899,0 -4.09798,0 -6.13707,0 0,8.3246393 0,16.6591773 0,24.9838163 -1.46498,0 -2.92996,0 -4.39494,0 0,-8.324639 0,-16.659177 0,-24.9838163 -2.04899,0 -4.09798,0 -6.13707,0 -0.01,-1.4946736 -0.01,-2.9893473 -0.01,-4.49391941 z"
     style="fill:#ffffff;stroke-width:0.098985"
     id="path18" />
  <path
     class="st1"
     d="m 213.7349,0.2445338 c 0.42563,-0.14847751 0.87107,-0.19797002 1.3165,-0.18807151 1.75203,0.0098985 3.50407,0 5.2561,0 2.94976,0.0494925 5.77083,1.89061371 7.04773,4.54341191 0.88097,1.7223392 0.97996,3.7317349 0.75229,5.6223488 -0.15838,1.9797 -0.97995,3.9594 -2.50432,5.275901 -0.80178,0.712692 -1.80153,1.148226 -2.6726,1.791629 -0.47512,0.356346 -0.49492,1.059139 -0.25736,1.563963 2.32615,3.593156 4.74139,7.12692 7.11703,10.690381 -1.73224,0 -3.47438,0 -5.21651,0 -2.27666,-3.414983 -4.52362,-6.849763 -6.79038,-10.274644 -0.6632,-0.970053 -0.85127,-2.266757 -0.44543,-3.375389 0.30686,-0.851271 1.05914,-1.474877 1.89062,-1.801527 1.58376,-0.603809 3.14772,-1.554065 4.01879,-3.048739 0.6632,-1.1185302 0.6335,-2.5043204 0.33655,-3.741633 -0.35635,-1.5936586 -1.91041,-2.8507683 -3.55357,-2.7913773 -1.13832,0.0099 -2.26675,0 -3.40508,0 -0.51472,-0.0099 -0.99975,0.4355341 -0.98985,0.9502561 -0.01,8.0177862 0,16.0454702 0,24.0632562 -1.47488,0 -2.94975,0 -4.43453,0 0,-8.631493 0,-17.272884 0,-25.9043774 0.0198,-1.4946736 1.09873,-2.92005775 2.53402,-3.3753888 z"
     style="fill:#ffffff;stroke-width:0.098985"
     id="path19" />
  <path
     class="st1"
     d="m 232.12631,0.05646229 c 1.55407,0 3.10813,0 4.6622,0 0,9.82921151 0,19.65842271 0,29.48763471 -1.55407,0 -3.10813,0 -4.6622,0 0,-9.829212 0,-19.6584232 0,-29.48763471 z"
     style="fill:#ffffff;stroke-width:0.098985"
     id="path20" />
</svg>
