<?xml version="1.0" encoding="UTF-8"?>
<svg version="1.1" xmlns="http://www.w3.org/2000/svg" width="1650" height="822">
<path d="M0 0 C2.45284945 1.90527144 4.76385149 3.88823934 7.0546875 5.984375 C7.73660156 6.57476562 8.41851563 7.16515625 9.12109375 7.7734375 C24.43420202 21.85790108 32.45384241 42.77665796 33.44140625 63.22265625 C34.79675569 113.65513412 6.52484122 155.15543076 -23.9453125 192.984375 C-24.4609375 193.62616699 -24.9765625 194.26795898 -25.5078125 194.92919922 C-31.76774992 202.7108582 -38.09258979 210.43001827 -44.60742188 218.00024414 C-47.03306752 220.81524904 -47.03306752 220.81524904 -48.9453125 223.984375 C-15.2853125 224.314375 18.3746875 224.644375 53.0546875 224.984375 C53.0546875 237.524375 53.0546875 250.064375 53.0546875 262.984375 C-4.3653125 262.984375 -61.7853125 262.984375 -120.9453125 262.984375 C-119.91691223 257.84237365 -119.37892995 256.92413757 -115.9453125 253.359375 C-107.48524623 244.31217479 -99.95390106 234.50266885 -92.33056641 224.75195312 C-91.01279253 223.07047923 -89.68935434 221.39368309 -88.36328125 219.71875 C-80.08180803 209.2496293 -71.96750093 198.65331202 -63.9453125 187.984375 C-63.40712891 187.26894531 -62.86894531 186.55351562 -62.31445312 185.81640625 C-32.09194329 145.90801884 -32.09194329 145.90801884 -10.9453125 100.984375 C-10.60886719 99.994375 -10.27242187 99.004375 -9.92578125 97.984375 C-5.12397479 81.1451633 -6.2362591 62.0183544 -14.6953125 46.671875 C-21.4928966 36.26465567 -30.59220101 29.60015893 -42.9453125 26.984375 C-64.14915652 25.25922778 -80.55398537 30.34578983 -96.9453125 43.984375 C-97.83476563 44.67273438 -97.83476563 44.67273438 -98.7421875 45.375 C-103.56424159 49.22379546 -107.23011274 53.84846619 -111.02734375 58.69140625 C-112.9453125 60.984375 -112.9453125 60.984375 -114.9453125 61.984375 C-115.25086895 54.88711614 -115.46022336 47.79156314 -115.60449219 40.68920898 C-115.66465335 38.27645508 -115.74641109 35.86413538 -115.85058594 33.45288086 C-116.74110364 12.30308545 -116.74110364 12.30308545 -112.45581055 7.49438477 C-109.3767608 5.16288874 -106.47056909 3.54006528 -102.9453125 1.984375 C-101.71854242 1.20067915 -100.50249724 0.39931589 -99.30859375 -0.43359375 C-90.59119383 -5.48990894 -81.63018396 -9.20518538 -71.9453125 -12.015625 C-70.93730591 -12.30928955 -70.93730591 -12.30928955 -69.90893555 -12.60888672 C-46.1693004 -18.71608832 -20.03462075 -13.71069537 0 0 Z " fill="#FEFEFE" transform="translate(1596.9453125,153.015625)"/>
<path d="M0 0 C13.2 0 26.4 0 40 0 C40.06799212 36.28096463 40.12162186 72.56191054 40.15319599 108.84292594 C40.15694756 113.13812261 40.16083058 117.43331915 40.16479492 121.72851562 C40.16558185 122.58351723 40.16636878 123.43851883 40.16717956 124.31942958 C40.18019006 138.11573665 40.20381955 151.91200576 40.23145839 165.7082904 C40.25963443 179.89231957 40.27620187 194.07632903 40.28226548 208.26038504 C40.2863568 216.9941341 40.2992202 225.7277758 40.3237494 234.46149176 C40.3397577 240.47196171 40.34436674 246.48237716 40.34050413 252.49286681 C40.3386057 255.94696789 40.34125779 259.40088301 40.35761642 262.85494995 C40.47703983 292.49012552 40.44611815 323.89128328 18.59375 346.56640625 C0.44177395 363.59755245 -19.93606386 365.49025293 -43.5925293 365.16113281 C-46 365 -46 365 -48 364 C-48.6779914 361.43136048 -49.23323738 358.92183718 -49.7265625 356.31640625 C-49.87910492 355.54570297 -50.03164734 354.77499969 -50.18881226 353.98094177 C-50.67563048 351.50963516 -51.15017696 349.03613617 -51.625 346.5625 C-51.95237577 344.89763895 -52.28049138 343.23292321 -52.609375 341.56835938 C-52.91992409 339.98450295 -53.2298411 338.40052243 -53.5390625 336.81640625 C-53.68590485 336.0642836 -53.83274719 335.31216095 -53.98403931 334.5372467 C-55 329.23783501 -55 329.23783501 -55 327 C-54.31075439 326.96036133 -53.62150879 326.92072266 -52.91137695 326.87988281 C-30.58792049 326.56562158 -30.58792049 326.56562158 -11.421875 316.7421875 C-0.81858621 303.75024574 -0.85647201 285.96995185 -0.84178162 269.97138977 C-0.83684364 268.81042933 -0.83190566 267.64946889 -0.82681805 266.45332783 C-0.81420461 263.26293492 -0.80585939 260.07256524 -0.79939139 256.88215506 C-0.79132569 253.42967937 -0.77764955 249.97722513 -0.76467896 246.52476501 C-0.74300298 240.55375663 -0.72482642 234.58274597 -0.70907402 228.61171913 C-0.68629399 219.97877703 -0.65816279 211.34585878 -0.62875474 202.71293702 C-0.58117808 188.70422444 -0.53788724 174.69550206 -0.49731445 160.68676758 C-0.45790886 147.08422077 -0.41647063 133.48168264 -0.37231445 119.87915039 C-0.36959018 119.0397076 -0.36686591 118.2002648 -0.36405908 117.33538435 C-0.35037877 113.12385312 -0.33665866 108.91232203 -0.32291877 104.700791 C-0.20911005 69.80054521 -0.10253224 34.90028064 0 0 Z " fill="#FEFEFE" transform="translate(779,143)"/>
<path d="M0 0 C9.66107779 4.50634583 14.28259816 17.48536379 18 27 C28.60870948 57.19696108 23.04662749 89.06041007 9.5234375 117.265625 C0.04815605 136.31689641 -12.44976225 152.84274178 -26.75390625 168.53515625 C-28.25179512 170.17892647 -29.73883167 171.83265156 -31.21484375 173.49609375 C-38.97247425 182.23535764 -47.11994177 190.40733077 -56 198 C-57.11430689 198.97669567 -58.22748447 199.95468052 -59.33984375 200.93359375 C-66.10086727 206.86660979 -72.95234265 212.60385714 -80.06738281 218.10742188 C-84.4825959 221.54175667 -88.66439545 225.17546626 -92.78125 228.96484375 C-94.77699099 230.7954442 -96.81230611 232.55836483 -98.875 234.3125 C-121.25541856 253.94602614 -142.53390458 280.66898395 -145.20703125 311.37841797 C-147.34790337 349.43241998 -124.61933327 379.7824207 -103.6875 409.375 C-97.35354965 418.33239023 -91.54053355 427.53373798 -86 437 C-85.64873047 437.59264648 -85.29746094 438.18529297 -84.93554688 438.79589844 C-81.04838721 445.38397719 -81.04838721 445.38397719 -80 448 C-80.33 448.99 -80.66 449.98 -81 451 C-82.12535156 449.96552734 -82.12535156 449.96552734 -83.2734375 448.91015625 C-84.30721573 447.9608548 -85.34107609 447.01164278 -86.375 446.0625 C-86.9201123 445.56177979 -87.46522461 445.06105957 -88.02685547 444.54516602 C-91.36823465 441.48069402 -94.73568065 438.44902898 -98.125 435.4375 C-102.45589144 431.55774309 -106.54397842 427.47575352 -110.62890625 423.33984375 C-112.71401432 421.28221651 -114.83967962 419.34340342 -117.0625 417.4375 C-123.68098863 411.75307226 -129.65741376 405.50688393 -135.328125 398.88671875 C-136.94204468 397.06540284 -138.62497231 395.37732032 -140.375 393.6875 C-144.50534788 389.61210131 -148.08939419 385.13810871 -151.70507812 380.60693359 C-153.08333206 378.89658907 -154.48520749 377.20761034 -155.890625 375.51953125 C-177.22438197 349.70062143 -191.06744755 322.07245963 -189 288 C-185.52704788 260.14477577 -158.51341436 234.40639119 -138 217 C-136.96143394 216.09858363 -135.92375043 215.19614991 -134.88671875 214.29296875 C-127.34483765 207.74476337 -119.63523233 201.46763403 -111.74121094 195.35009766 C-108.86194588 193.11757722 -105.99211377 190.87309628 -103.125 188.625 C-102.27083496 187.95525146 -102.27083496 187.95525146 -101.39941406 187.27197266 C-95.43805923 182.58235136 -89.56122999 177.7898953 -83.68359375 172.99609375 C-80.74396592 170.60003947 -77.78469991 168.2306009 -74.8125 165.875 C-64.14500905 157.34814269 -53.90663204 148.3973193 -44 139 C-43.175 138.21753906 -42.35 137.43507812 -41.5 136.62890625 C-35.84867578 131.12475193 -30.86704497 125.20210245 -26 119 C-25.2575 118.07445313 -24.515 117.14890625 -23.75 116.1953125 C-6.05877022 93.52842434 4.15472169 66.77661288 4.3125 38 C4.31644775 37.34014099 4.32039551 36.68028198 4.32446289 36.00042725 C4.35877652 23.67773327 2.79456418 12.00165511 0 0 Z " fill="#FFFFFF" transform="translate(385,0)"/>
<path d="M0 0 C0.66513611 0.00054382 1.33027222 0.00108765 2.01556396 0.00164795 C12.05311092 0.03942968 20.94184802 0.51366587 30.3125 4.375 C31.36824219 4.79910156 32.42398437 5.22320312 33.51171875 5.66015625 C47.57512198 11.9948636 57.71047269 23.37685738 63.1875 37.65625 C65.00972859 43.33319292 65.60264865 48.93491423 65.87695312 54.86499023 C65.91743523 55.69053878 65.95791733 56.51608732 65.99962616 57.36665249 C66.41346225 66.48500686 66.50964016 75.60471389 66.57286072 84.7311573 C66.59431751 87.80392787 66.62128017 90.87661039 66.64953613 93.94932556 C66.71849141 101.55627866 66.77907657 109.16329237 66.83856201 116.77032471 C66.8894432 123.25358485 66.94414406 129.73678855 67.00437927 136.2199688 C67.03092386 139.2479524 67.0517305 142.2759417 67.0723877 145.30397034 C67.08897575 147.14283515 67.10584624 148.98169745 67.12304688 150.82055664 C67.12723129 151.66248566 67.13141571 152.50441467 67.13572693 153.37185669 C67.07616273 157.50634984 67.07616273 157.50634984 68.3125 161.375 C74.99122273 162.01718488 79.50497575 160.3276438 85.578125 157.56640625 C88.3125 156.375 88.3125 156.375 92.3125 155.375 C92.3125 161.975 92.3125 168.575 92.3125 175.375 C77.18547216 184.4512167 64.28415605 189.59923442 46.3125 187.375 C39.56257249 185.51540684 35.21230097 182.10283268 31.3125 176.375 C30.62976185 175.04982422 29.95945465 173.71800853 29.3125 172.375 C28.44109375 172.89449219 27.5696875 173.41398438 26.671875 173.94921875 C12.47884553 182.30419413 -0.39568667 187.777469 -17.0625 187.75 C-18.07820068 187.74838867 -19.09390137 187.74677734 -20.14038086 187.74511719 C-30.07355688 187.58213417 -37.73421481 185.52072038 -45.6875 179.375 C-46.24953125 178.96765625 -46.8115625 178.5603125 -47.390625 178.140625 C-55.51800193 171.85074198 -59.97398108 162.38485012 -62.375 152.5625 C-63.91134672 136.89176341 -60.43577584 124.65508896 -50.625 112.3125 C-37.38802013 97.88011005 -17.95839524 91.79699298 -0.01196289 85.65917969 C3.40113561 84.49105515 6.80917228 83.30898653 10.21679688 82.125 C12.38513529 81.37678822 14.55374542 80.62936333 16.72265625 79.8828125 C17.74134293 79.52978058 18.7600296 79.17674866 19.80958557 78.8130188 C20.75164352 78.49203217 21.69370148 78.17104553 22.66430664 77.84033203 C23.49193008 77.55642609 24.31955353 77.27252014 25.17225647 76.98001099 C27.3125 76.375 27.3125 76.375 30.3125 76.375 C30.08942265 73.06012494 29.82903053 69.74914183 29.5625 66.4375 C29.500625 65.51130859 29.43875 64.58511719 29.375 63.63085938 C28.58862379 54.29264186 25.65134834 45.60092408 18.3125 39.375 C9.74085518 33.32653246 -2.71748176 34.30705474 -12.6875 35.375 C-29.9100538 38.50941556 -43.08646694 49.86487058 -55.5 61.43359375 C-57.6875 63.375 -57.6875 63.375 -58.6875 63.375 C-58.91136432 57.84344655 -59.07391927 52.31457208 -59.18188477 46.77954102 C-59.22691994 44.90049271 -59.28817268 43.02175584 -59.36645508 41.14379883 C-59.995511 25.65586634 -59.995511 25.65586634 -56.88574219 20.2331543 C-54.61964574 17.89813355 -52.41890472 16.13301532 -49.6875 14.375 C-49.0685083 13.93019287 -48.4495166 13.48538574 -47.81176758 13.02709961 C-33.13786268 3.06028126 -17.42655848 -0.0239885 0 0 Z M15.0625 101.375 C14.10543152 101.74981506 14.10543152 101.74981506 13.12902832 102.13220215 C-8.58929218 110.24435868 -8.58929218 110.24435868 -24.1875 126.4375 C-26.92899089 133.5849584 -27.2767685 142.7237321 -24.1875 149.8125 C-20.67853714 155.61914673 -15.19449584 160.39582766 -8.6875 162.375 C6.7417886 163.81417442 17.16913732 160.16586622 29.3125 150.375 C30.55092645 149.35863041 30.55092645 149.35863041 30.43275452 147.24266052 C30.43053391 146.30334183 30.42831329 145.36402313 30.42602539 144.39624023 C30.42594986 143.33521591 30.42587433 142.27419159 30.42579651 141.18101501 C30.42063522 140.026866 30.41547394 138.87271698 30.41015625 137.68359375 C30.4087413 136.50861832 30.40732635 135.33364288 30.40586853 134.12306213 C30.40024992 130.35284936 30.38769426 126.58269496 30.375 122.8125 C30.3699874 120.26367273 30.36542408 117.71484453 30.36132812 115.16601562 C30.35027444 108.90232367 30.33351821 102.63866601 30.3125 96.375 C25.1597616 96.375 19.8337681 99.50601449 15.0625 101.375 Z " fill="#FEFEFE" transform="translate(1253.6875,231.625)"/>
<path d="M0 0 C0.66513611 0.00054382 1.33027222 0.00108765 2.01556396 0.00164795 C12.05311092 0.03942968 20.94184802 0.51366587 30.3125 4.375 C31.36824219 4.79910156 32.42398438 5.22320312 33.51171875 5.66015625 C47.57512198 11.9948636 57.71047269 23.37685738 63.1875 37.65625 C65.00972859 43.33319292 65.60264865 48.93491423 65.87695312 54.86499023 C65.91743523 55.69053878 65.95791733 56.51608732 65.99962616 57.36665249 C66.41346225 66.48500686 66.50964016 75.60471389 66.57286072 84.7311573 C66.59431751 87.80392787 66.62128017 90.87661039 66.64953613 93.94932556 C66.71849141 101.55627866 66.77907657 109.16329237 66.83856201 116.77032471 C66.8894432 123.25358485 66.94414406 129.73678855 67.00437927 136.2199688 C67.03092386 139.2479524 67.0517305 142.2759417 67.0723877 145.30397034 C67.08897575 147.14283515 67.10584624 148.98169745 67.12304688 150.82055664 C67.12723129 151.66248566 67.13141571 152.50441467 67.13572693 153.37185669 C67.07616273 157.50634984 67.07616273 157.50634984 68.3125 161.375 C74.99122273 162.01718488 79.50497575 160.3276438 85.578125 157.56640625 C88.3125 156.375 88.3125 156.375 92.3125 155.375 C92.3125 161.975 92.3125 168.575 92.3125 175.375 C77.18547216 184.4512167 64.28415605 189.59923442 46.3125 187.375 C39.56257249 185.51540684 35.21230097 182.10283268 31.3125 176.375 C30.62976185 175.04982422 29.95945465 173.71800853 29.3125 172.375 C28.44109375 172.89449219 27.5696875 173.41398438 26.671875 173.94921875 C12.47884553 182.30419413 -0.39568667 187.777469 -17.0625 187.75 C-18.07820068 187.74838867 -19.09390137 187.74677734 -20.14038086 187.74511719 C-30.07355688 187.58213417 -37.73421481 185.52072038 -45.6875 179.375 C-46.24953125 178.96765625 -46.8115625 178.5603125 -47.390625 178.140625 C-55.51800193 171.85074198 -59.97398108 162.38485012 -62.375 152.5625 C-63.91134672 136.89176341 -60.43577584 124.65508896 -50.625 112.3125 C-37.38802013 97.88011005 -17.95839524 91.79699298 -0.01196289 85.65917969 C3.40113561 84.49105515 6.80917228 83.30898653 10.21679688 82.125 C12.38513529 81.37678822 14.55374542 80.62936333 16.72265625 79.8828125 C17.74134293 79.52978058 18.7600296 79.17674866 19.80958557 78.8130188 C20.75164352 78.49203217 21.69370148 78.17104553 22.66430664 77.84033203 C23.49193008 77.55642609 24.31955353 77.27252014 25.17225647 76.98001099 C27.3125 76.375 27.3125 76.375 30.3125 76.375 C30.08942265 73.06012494 29.82903053 69.74914183 29.5625 66.4375 C29.500625 65.51130859 29.43875 64.58511719 29.375 63.63085938 C28.58862379 54.29264186 25.65134834 45.60092408 18.3125 39.375 C9.74085518 33.32653246 -2.71748176 34.30705474 -12.6875 35.375 C-29.9100538 38.50941556 -43.08646694 49.86487058 -55.5 61.43359375 C-57.6875 63.375 -57.6875 63.375 -58.6875 63.375 C-58.91136432 57.84344655 -59.07391927 52.31457208 -59.18188477 46.77954102 C-59.22691994 44.90049271 -59.28817268 43.02175584 -59.36645508 41.14379883 C-59.995511 25.65586634 -59.995511 25.65586634 -56.88574219 20.2331543 C-54.61964574 17.89813355 -52.41890472 16.13301532 -49.6875 14.375 C-49.0685083 13.93019287 -48.4495166 13.48538574 -47.81176758 13.02709961 C-33.13786268 3.06028126 -17.42655848 -0.0239885 0 0 Z M15.0625 101.375 C14.10543152 101.74981506 14.10543152 101.74981506 13.12902832 102.13220215 C-8.58929218 110.24435868 -8.58929218 110.24435868 -24.1875 126.4375 C-26.92899089 133.5849584 -27.2767685 142.7237321 -24.1875 149.8125 C-20.67853714 155.61914673 -15.19449584 160.39582766 -8.6875 162.375 C6.7417886 163.81417442 17.16913732 160.16586622 29.3125 150.375 C30.55092645 149.35863041 30.55092645 149.35863041 30.43275452 147.24266052 C30.43053391 146.30334183 30.42831329 145.36402313 30.42602539 144.39624023 C30.42594986 143.33521591 30.42587433 142.27419159 30.42579651 141.18101501 C30.42063522 140.026866 30.41547394 138.87271698 30.41015625 137.68359375 C30.4087413 136.50861832 30.40732635 135.33364288 30.40586853 134.12306213 C30.40024992 130.35284936 30.38769426 126.58269496 30.375 122.8125 C30.3699874 120.26367273 30.36542408 117.71484453 30.36132812 115.16601562 C30.35027444 108.90232367 30.33351821 102.63866601 30.3125 96.375 C25.1597616 96.375 19.8337681 99.50601449 15.0625 101.375 Z " fill="#FEFEFE" transform="translate(921.6875,231.625)"/>
<path d="M0 0 C1.12672119 -0.01015137 2.25344238 -0.02030273 3.41430664 -0.03076172 C9.81561149 0.0372812 15.90076553 0.45127647 21.6875 3.4375 C22.0175 4.0975 22.3475 4.7575 22.6875 5.4375 C22.06109619 5.49172119 21.43469238 5.54594238 20.78930664 5.60180664 C-2.86228959 7.76209303 -37.40606751 12.19045868 -55.13671875 30.30078125 C-56.51214967 32.40182028 -56.51214967 32.40182028 -56.33984375 34.9765625 C-54.46966362 39.45646168 -50.18696577 40.72755808 -45.98046875 42.61328125 C15.60317473 67.73876251 93.43154189 64.66934789 158.75 64.625 C159.53645779 64.62488041 160.32291557 64.62476082 161.13320541 64.6246376 C292.96317096 65.02847896 292.96317096 65.02847896 445.6875 26.4375 C448.07354769 23.19727547 448.70604542 20.36477113 448.625 16.3125 C447.54851031 13.01126496 446.01353482 10.98863497 443.6875 8.4375 C444.0175 7.7775 444.3475 7.1175 444.6875 6.4375 C458.26594146 13.25689504 458.26594146 13.25689504 460.4140625 19.57421875 C461.22097669 24.23375265 460.84276865 27.71924036 458.09765625 31.7578125 C421.46453219 75.39283562 324.73253229 78.62313081 271.6547699 83.37451172 C172.00784981 91.99274 71.54704016 89.94129757 -46.9375 73.875 C-47.92948395 73.73315277 -48.9214679 73.59130554 -49.94351196 73.44515991 C-59.94567479 72.00455356 -69.89661267 70.42556502 -79.79296875 68.37109375 C-80.9392424 68.13476479 -80.9392424 68.13476479 -82.1086731 67.8936615 C-91.71977383 65.82226764 -101.15977963 62.44081629 -108.3125 55.4375 C-110.3256392 52.29700285 -110.32357011 50.74192805 -110.1875 47 C-107.67973085 36.78979705 -98.32639147 30.38455712 -89.8125 25.0625 C-63.57932571 9.37450173 -30.47716414 0.19471579 0 0 Z " fill="#FFFFFF" transform="translate(110.3125,694.5625)"/>
<path d="M0 0 C0.33 0.66 0.66 1.32 1 2 C-0.05405029 2.61705811 -0.05405029 2.61705811 -1.12939453 3.24658203 C-28.86764267 19.51253245 -56.62980532 36.16224653 -82 56 C-82.80695313 56.62648437 -83.61390625 57.25296875 -84.4453125 57.8984375 C-91.81799005 63.70649538 -98.96189562 69.79253484 -106 76 C-106.7425 76.65484375 -107.485 77.3096875 -108.25 77.984375 C-121.33416666 90.3052986 -132.76646691 106.91697244 -135 125 C-135.66829847 148.44613798 -120.69125866 168.21662351 -107.39013672 186.17333984 C-95.61209781 202.10917268 -87.49975281 216.97514998 -89.46484375 237.484375 C-91.6064034 251.55301506 -97.88055011 263.248056 -107 274 C-107.66773438 274.79019531 -108.33546875 275.58039063 -109.0234375 276.39453125 C-121.32484422 290.49451909 -137.67976051 305.30632688 -155 313 C-155.66 312.67 -156.32 312.34 -157 312 C-156.38125 311.43345703 -156.38125 311.43345703 -155.75 310.85546875 C-142.63245132 298.35280516 -132.5954969 281.50979026 -131.83984375 263.09765625 C-132.10348434 246.66991842 -140.14438205 234.20502402 -150.64404297 222.22143555 C-170.31051741 199.44599733 -184.59234323 170.67042561 -183.15234375 140.07763672 C-181.45521404 116.93248639 -170.45914031 97.70994991 -155 81 C-154.12472656 80.05382812 -153.24945313 79.10765625 -152.34765625 78.1328125 C-133.90362175 59.01168422 -110.4865706 45.01588968 -87 33 C-86.1553418 32.5673584 -85.31068359 32.1347168 -84.44042969 31.68896484 C-57.7053761 18.15505887 -28.97698651 7.58826975 0 0 Z " fill="#FFFFFF" transform="translate(488,167)"/>
<path d="M0 0 C13.2 0 26.4 0 40 0 C47.03046298 15.57886682 53.98156731 31.18095507 60.75 46.875 C61.41421475 48.41406704 62.07844008 49.95312951 62.74267578 51.4921875 C64.10971179 54.66049935 65.47636454 57.82897624 66.84277344 60.99755859 C67.19319702 61.81013123 67.54362061 62.62270386 67.90466309 63.4598999 C68.65452065 65.19882903 69.40427132 66.93780426 70.15393066 68.67681885 C72.50906404 74.13887644 74.86913653 79.59875574 77.23547363 85.05596924 C77.99172442 86.80239412 78.74621731 88.54958133 79.49890137 90.29754639 C80.54437408 92.72502412 81.59569265 95.14988778 82.6484375 97.57421875 C82.95915192 98.29946243 83.26986633 99.02470612 83.58999634 99.77192688 C84.82556005 102.60326748 85.79497224 104.79497224 88 107 C98.13050354 83.2852313 108.14909301 59.52618758 118.04589844 35.71289062 C118.84438461 33.79165984 119.64288689 31.87043574 120.44140625 29.94921875 C120.82324066 29.03042938 121.20507507 28.11164001 121.59848022 27.16500854 C125.36971195 18.09760089 129.18228865 9.04793218 133 0 C146.2 0 159.4 0 173 0 C169.62540052 10.12379843 169.62540052 10.12379843 167.88134766 14.109375 C167.48803253 15.01361206 167.09471741 15.91784912 166.68948364 16.8494873 C166.26859467 17.80665649 165.84770569 18.76382568 165.4140625 19.75 C164.96521698 20.77967896 164.51637146 21.80935791 164.05392456 22.87023926 C163.08649013 25.0887653 162.11737082 27.30655723 161.14672852 29.52368164 C158.79805554 34.88911635 156.45980981 40.25908681 154.12149811 45.62904358 C153.58566415 46.85944158 153.04968811 48.08977771 152.51357269 49.3200531 C147.1227969 61.69083385 141.8021396 74.09101897 136.5 86.5 C128.01131054 106.35838868 119.43415681 126.1775032 110.8125 145.97851562 C109.89956127 148.07674534 108.98679638 150.17505071 108.07421875 152.2734375 C107.63975433 153.27207825 107.20528992 154.27071899 106.75765991 155.29962158 C103.57018984 162.64340592 100.44710984 170.01282743 97.38786316 177.41098022 C95.10591714 182.89408286 95.10591714 182.89408286 94 184 C91.81360547 184.07258946 89.62499611 184.08373783 87.4375 184.0625 C85.64119141 184.04896484 85.64119141 184.04896484 83.80859375 184.03515625 C82.88175781 184.02355469 81.95492188 184.01195312 81 184 C73.94308316 170.67513839 68.05086415 156.83725884 62.05412292 143.01591492 C58.01705206 133.72061682 53.91295164 124.45496462 49.8125 115.1875 C49.00215417 113.35508091 48.19185173 111.52264263 47.3815918 109.69018555 C45.73983008 105.97742987 44.09778762 102.26479854 42.45556641 98.55224609 C40.04593144 93.10440169 37.63793575 87.65583399 35.23046875 82.20703125 C34.83905701 81.32123886 34.44764526 80.43544647 34.04437256 79.52281189 C32.08328619 75.08449864 30.12286382 70.64589385 28.16357422 66.20678711 C24.45411978 57.80428441 20.73811295 49.4048426 17.00143433 41.0144043 C15.23593447 37.04912845 13.47379402 33.08236386 11.71191406 29.11547852 C10.87065836 27.22394246 10.02775518 25.33313816 9.18310547 23.44311523 C8.01242864 20.82328595 6.8474411 18.20099387 5.68359375 15.578125 C5.33868393 14.81030701 4.99377411 14.04248901 4.63841248 13.25140381 C4.31873001 12.52809875 3.99904755 11.8047937 3.66967773 11.05957031 C3.25600197 10.13159637 3.25600197 10.13159637 2.83396912 9.18487549 C1.69138634 6.19147794 0.88021971 3.08076899 0 0 Z " fill="#FEFEFE" transform="translate(1007,236)"/>
<path d="M0 0 C-0.49371094 0.44730469 -0.98742187 0.89460937 -1.49609375 1.35546875 C-5.45611133 5.06849104 -5.45611133 5.06849104 -8.1875 9.6875 C-8.17467137 12.07988913 -8.17467137 12.07988913 -6.6875 14.0625 C9.71055064 25.88435046 36.465545 24.31221859 56 26 C56.83208984 26.07492676 57.66417969 26.14985352 58.52148438 26.22705078 C63.344659 26.65003733 68.16115348 26.88197935 73 27 C74.66313232 27.04084717 74.66313232 27.04084717 76.35986328 27.08251953 C107.34475601 27.71551426 137.42231693 24.74081484 167.98822021 19.77479553 C169.51574309 19.52836258 171.04410978 19.28709906 172.57330322 19.05125427 C176.00719121 18.51748061 179.35423741 17.91743703 182.74267578 17.12768555 C192.72093623 15.00380717 198.9405877 17.99368276 207.375 22.9375 C209.27525254 23.99670878 211.18228434 25.04297431 213.08961487 26.08937073 C214.33639721 26.77507222 215.5807811 27.46515446 216.82261658 28.15977478 C221.70379443 30.88473371 226.66163076 33.27287832 231.8125 35.4375 C232.46331543 35.71263428 233.11413086 35.98776855 233.78466797 36.27124023 C235.18595852 36.85672175 236.59224151 37.43024578 238 38 C235.63385459 40.72603201 233.45831818 41.79868851 230.08203125 43.015625 C229.08840576 43.3760791 228.09478027 43.7365332 227.07104492 44.10791016 C225.9957251 44.4847998 224.92040527 44.86168945 223.8125 45.25 C222.1250769 45.84433838 222.1250769 45.84433838 220.40356445 46.45068359 C188.440397 57.56500125 155.7498559 64.39873748 122 67 C121.11618652 67.06912598 120.23237305 67.13825195 119.32177734 67.20947266 C113.88329092 67.61244164 108.45137267 67.86254156 103 68 C102.19062988 68.02191406 101.38125977 68.04382813 100.54736328 68.06640625 C60.40147628 68.99124911 -2.91862602 68.34423971 -34.6328125 38.5234375 C-37.99088417 34.78158621 -40.1970238 31.0685486 -40.5 25.9375 C-39.68166338 19.4930991 -36.18739849 15.56094502 -31.30078125 11.57421875 C-23.93932752 6.53743462 -8.93018136 -2.97672712 0 0 Z " fill="#FFFFFF" transform="translate(196,636)"/>
<path d="M0 0 C-3.20175694 2.13450463 -5.6734988 2.85918712 -9.37890625 3.84765625 C-10.69346409 4.20412251 -12.00791259 4.56099219 -13.32226562 4.91821289 C-14.01360596 5.10433136 -14.70494629 5.29044983 -15.41723633 5.48220825 C-51.60348681 14.24390077 -51.60348681 14.24390077 -83 33 C-84.21552355 35.00891317 -84.21552355 35.00891317 -84 37 C-75.6107647 47.24380393 -53.83198372 47.62458005 -41.6907959 48.86042786 C-22.36751162 50.58912037 -2.96960528 50.35279626 16.41398239 50.31785583 C19.53055696 50.31244697 22.64712398 50.31005675 25.76370239 50.3079834 C57.60627073 50.27498729 89.28500977 49.6587559 121.04724121 47.22460938 C123.98831036 47.0008892 126.92999606 46.78817676 129.87207031 46.578125 C170.69019453 43.63165383 211.40142143 38.54592849 251.75976562 31.77783203 C252.48642929 31.65718887 253.21309296 31.53654572 253.96177673 31.4122467 C255.87645022 31.09287847 257.78996752 30.76659923 259.70336914 30.43969727 C262.84920302 30.02011296 265.83111298 29.91764815 269 30 C265.55318344 32.83753081 261.74648492 34.70083802 257.75 36.625 C251.23136733 39.80802887 244.89982308 43.22554067 238.66894531 46.94189453 C229.62047619 52.20546104 219.65742038 54.16241868 209.5 56.3125 C208.79359375 56.46240387 208.0871875 56.61230774 207.359375 56.76675415 C164.51556924 65.77029162 120.6732024 69.80166434 77 72 C75.95021973 72.05784668 74.90043945 72.11569336 73.81884766 72.17529297 C33.01599555 74.37714424 -8.24276577 73.83103096 -49 71 C-49.73355713 70.94908203 -50.46711426 70.89816406 -51.22290039 70.84570312 C-75.27414975 69.14143251 -99.53053566 66.49000271 -122.8125 60 C-123.62356201 59.77530029 -124.43462402 59.55060059 -125.27026367 59.3190918 C-132.02972991 57.28961007 -138.36095942 54.38770338 -143.625 49.625 C-145 47 -145 47 -145.25 43.625 C-143.03569477 37.20351483 -137.35429957 33.52088172 -131.46875 30.4453125 C-129.8204941 29.65498212 -128.16373111 28.88221095 -126.5 28.125 C-125.5934668 27.70500732 -124.68693359 27.28501465 -123.75292969 26.85229492 C-84.56100022 9.03139966 -43.02311105 -0.70627661 0 0 Z " fill="#FFFFFF" transform="translate(211,452)"/>
<path d="M0 0 C-0.81404297 0.70962891 -0.81404297 0.70962891 -1.64453125 1.43359375 C-6.5645857 5.98131975 -10.27526716 10.12162646 -11 17 C-9.82266138 20.78430271 -8.22398628 21.84134305 -5 24.125 C6.00742749 29.7617489 18.60704176 30.06662637 30.6875 31.125 C32.52546879 31.29472856 34.36336029 31.46529633 36.20117188 31.63671875 C41.46500793 32.12212893 46.73144987 32.56909292 52 33 C53.95196289 33.16338867 53.95196289 33.16338867 55.94335938 33.33007812 C68.98443761 34.28867668 82.05516157 34.24369154 95.125 34.25 C96.38566284 34.25067474 97.64632568 34.25134949 98.94519043 34.25204468 C120.43348397 34.23385961 141.6521092 33.46222654 163 31 C163.75829102 30.91278687 164.51658203 30.82557373 165.29785156 30.73571777 C184.77191457 28.46842698 204.10035988 25.4883287 223.35449219 21.79174805 C224.37527863 21.60075279 224.37527863 21.60075279 225.41668701 21.40589905 C227.24522463 21.06337238 229.07191304 20.71101459 230.8984375 20.35791016 C236.60302208 19.69961978 239.43537421 21.06563619 243.91162109 24.59399414 C244.51828613 25.07860107 245.12495117 25.56320801 245.75 26.0625 C252.0060967 30.88987146 258.38483775 34.40323278 265.62792969 37.53735352 C270.91628445 39.8325689 270.91628445 39.8325689 272 42 C235.41708277 51.76764326 198.84490449 59.25946431 161.1875 63.3125 C160.05722382 63.43446747 160.05722382 63.43446747 158.90411377 63.55889893 C153.9400472 64.08728123 148.97285796 64.56249126 144 65 C142.8445166 65.1045752 141.6890332 65.20915039 140.49853516 65.31689453 C127.14487031 66.33708021 113.73742448 66.22295531 100.35253906 66.24023438 C97.47935999 66.24457623 94.60648847 66.25832334 91.73339844 66.28125 C-12.44360437 67.09458996 -12.44360437 67.09458996 -39.98046875 41.1328125 C-43.92200906 36.62017015 -45.50124365 33.49100363 -45.39453125 27.4375 C-44.37325616 21.12784003 -39.45254167 17.10299034 -34.5625 13.4375 C-26.82001579 8.33025891 -9.05639988 -3.01879996 0 0 Z " fill="#FFFFFF" transform="translate(177,546)"/>
<path d="M0 0 C0.33 0 0.66 0 1 0 C0.43905091 11.59294791 -4.54185351 20.15943246 -13 28 C-63.32402152 69.95881478 -147.14959007 72.37900834 -209.75 76.6875 C-210.62692505 76.74834778 -211.5038501 76.80919556 -212.40734863 76.87188721 C-239.87383446 78.7508601 -267.29294415 79.20670433 -294.8125 79.1875 C-295.67075127 79.18723312 -296.52900253 79.18696625 -297.41326141 79.18669128 C-324.97850125 79.1759487 -352.49316505 78.98398694 -380 77 C-381.36339508 76.90171906 -381.36339508 76.90171906 -382.7543335 76.80145264 C-481.56964172 69.54990864 -481.56964172 69.54990864 -496 54 C-487.24304806 54.5794157 -478.56798236 55.49577773 -469.86447144 56.61358643 C-425.03730311 62.32440193 -380.18690625 64.36421468 -335.01855469 64.26074219 C-330.004458 64.24934883 -324.99057379 64.2561436 -319.9764843 64.26762009 C-293.92723162 64.31813449 -267.99716531 63.66778716 -242 62 C-240.82095093 61.92438843 -239.64190186 61.84877686 -238.42712402 61.77087402 C-231.90287075 61.33734656 -225.38827423 60.82429755 -218.875 60.25 C-217.92160736 60.16729858 -216.96821472 60.08459717 -215.9859314 59.99938965 C-100.63245695 52.37370048 -100.63245695 52.37370048 -1 2 C-0.67 1.34 -0.34 0.68 0 0 Z " fill="#FFFFFF" transform="translate(606,743)"/>
<path d="M0 0 C2.45100933 2.15013693 4.73637878 4.36659712 6.984375 6.7265625 C7.55414062 7.28859375 8.12390625 7.850625 8.7109375 8.4296875 C17.65254122 17.87568938 21.93298356 31.1865316 22.421875 43.9765625 C21.92980769 61.1169072 15.04250261 75.80208424 3.984375 88.7265625 C3.03691406 89.89058594 3.03691406 89.89058594 2.0703125 91.078125 C-23.4621174 121.20065465 -67.57913539 139.021919 -105.015625 147.7265625 C-107.9206543 147.83398438 -107.9206543 147.83398438 -110.015625 147.7265625 C-107.70478469 142.69348228 -104.30451106 140.95854519 -99.515625 138.6640625 C-66.77902894 122.11407089 -28.12518143 96.16099211 -16.015625 59.7265625 C-12.2141509 47.96009506 -13.27315719 36.05251824 -18.015625 24.7265625 C-24.79985453 11.70003894 -35.63673781 4.13421494 -49.265625 -0.6484375 C-60.38824551 -3.77380194 -70.81444897 -2.83924636 -81.73754883 0.390625 C-85.16327246 1.38999459 -87.62361769 2.09195278 -91.015625 0.7265625 C-84.987838 -8.44615685 -74.14611921 -10.91965525 -64.015625 -13.2734375 C-41.72396414 -17.28540507 -18.33277944 -13.82082595 0 0 Z " fill="#FFFFFF" transform="translate(585.015625,458.2734375)"/>
<path d="M0 0 C17 0 17 0 21.046875 2.9375 C22.45629883 4.87646484 22.45629883 4.87646484 23.75 7 C24.78879313 8.47246405 25.82920702 9.94378579 26.87109375 11.4140625 C27.38140137 12.17364258 27.89170898 12.93322266 28.41748047 13.71582031 C31.00081442 17.44455719 33.91375027 20.88988275 36.8125 24.375 C37.89004902 25.69496147 38.96563505 27.01652834 40.0390625 28.33984375 C40.54211914 28.95972168 41.04517578 29.57959961 41.56347656 30.21826172 C42.89371712 31.868176 44.21202159 33.52651039 45.5234375 35.19140625 C46.59464844 36.55072266 46.59464844 36.55072266 47.6875 37.9375 C48.28949219 38.70964844 48.89148438 39.48179687 49.51171875 40.27734375 C50.9042767 42.11232665 50.9042767 42.11232665 53 43 C53.64324219 42.175 54.28648437 41.35 54.94921875 40.5 C61.70938315 31.85165612 68.59728028 23.31445674 75.53125 14.80517578 C77.59179416 12.27265192 79.64251683 9.73261492 81.6875 7.1875 C82.59048828 6.06408203 82.59048828 6.06408203 83.51171875 4.91796875 C84.74383929 3.33011788 85.88515038 1.67227442 87 0 C92.61 0 98.22 0 104 0 C104 36.3 104 72.6 104 110 C98.39 110 92.78 110 87 110 C86.67 82.94 86.34 55.88 86 28 C75.23130849 40.97633334 75.23130849 40.97633334 64.875 54.25 C63.35526148 56.2600975 61.83528732 58.26947547 60.29980469 60.26757812 C59.14913012 61.80123453 58.07231893 63.38970262 57.0078125 64.984375 C55 67 55 67 52.06640625 67.6875 C47.84583794 66.74123245 46.3021073 64.37833154 43.9375 61 C42.98494686 59.71345417 42.03043736 58.42835507 41.07421875 57.14453125 C40.32857666 56.12866943 40.32857666 56.12866943 39.56787109 55.09228516 C36.90332036 51.53650817 34.07202161 48.11865881 31.25 44.6875 C26.7433475 39.1895661 22.36680458 33.61446304 18 28 C17.67 55.06 17.34 82.12 17 110 C11.39 110 5.78 110 0 110 C0 73.7 0 37.4 0 0 Z " fill="#FEFEFE" transform="translate(783,562)"/>
<path d="M0 0 C20.79 0 41.58 0 63 0 C63 4.95 63 9.9 63 15 C47.49 15 31.98 15 16 15 C16 25.89 16 36.78 16 48 C30.85 48 45.7 48 61 48 C61 52.95 61 57.9 61 63 C46.15 63 31.3 63 16 63 C16 73.56 16 84.12 16 95 C31.84 95 47.68 95 64 95 C64 99.95 64 104.9 64 110 C42.88 110 21.76 110 0 110 C0 73.7 0 37.4 0 0 Z " fill="#FEFEFE" transform="translate(1210,562)"/>
<path d="M0 0 C4.95 0 9.9 0 15 0 C15 36.3 15 72.6 15 110 C-31.35610465 110 -31.35610465 110 -40.921875 102.08984375 C-48.97904376 93.98723982 -51.39799969 84.29007868 -51.375 73.1875 C-51.34939118 65.7609436 -51.00552978 59.46855741 -47 53 C-46.34644531 51.93265625 -46.34644531 51.93265625 -45.6796875 50.84375 C-40.58202132 43.37831538 -33.74612069 38.32625827 -25 36 C-21.77737638 35.62732713 -18.61539833 35.62320638 -15.375 35.6875 C-14.55515625 35.68427734 -13.7353125 35.68105469 -12.890625 35.67773438 C-7.86911132 35.72213683 -5.03167098 36.32277634 0 38 C0 25.46 0 12.92 0 0 Z M-29.7421875 55.0234375 C-35.80687707 63.52560996 -37.24597479 72.22807807 -35.60546875 82.4609375 C-33.92880676 88.79980153 -30.24875003 92.25566877 -25 96 C-22.46764607 97.26617696 -20.38741261 97.33107023 -17.5625 97.5625 C-16.59441406 97.64628906 -15.62632813 97.73007812 -14.62890625 97.81640625 C-9.75844928 98.06281258 -4.87668609 98 0 98 C0 82.82 0 67.64 0 52 C-9.56090997 47.21954501 -22.1614525 46.21890671 -29.7421875 55.0234375 Z " fill="#FEFEFE" transform="translate(1337,562)"/>
<path d="M0 0 C9.07457624 6.55469391 14.22705917 14.30510942 16.01953125 25.34375 C17.32374549 36.91865135 15.09273173 46.9739163 8.08984375 56.4296875 C2.28132292 62.87572891 -6.83579789 67.84951933 -15.54882812 68.64990234 C-29.05179394 69.13466939 -39.54591071 68.62539673 -50.38671875 59.64453125 C-58.17053718 52.14273523 -61.54289932 43.94256567 -62.40625 33.19140625 C-62.57372379 22.53398349 -59.52120054 13.12964247 -52.37109375 5.1328125 C-38.6259973 -7.8673574 -16.08183649 -10.1313005 0 0 Z M-40.19140625 14.29296875 C-45.26920272 20.63414042 -47.00766833 26.4777408 -46.8203125 34.578125 C-45.92765511 41.50326705 -42.81630616 46.76367016 -37.32421875 51.01953125 C-32.6198856 54.25032814 -28.81145413 54.63967534 -23.13671875 54.70703125 C-21.19345703 54.74570312 -21.19345703 54.74570312 -19.2109375 54.78515625 C-13.21509488 54.2621544 -8.7735741 51.55378895 -4.44921875 47.45703125 C0.21769676 40.754213 1.36536424 34.48480567 0.55078125 26.45703125 C-1.27167757 19.3064922 -5.38213787 14.53564615 -11.44921875 10.45703125 C-20.53745206 5.89766588 -33.06884171 6.78712719 -40.19140625 14.29296875 Z " fill="#FEFEFE" transform="translate(1552.44921875,605.54296875)"/>
<path d="M0 0 C9.07457624 6.55469391 14.22705917 14.30510942 16.01953125 25.34375 C17.32374549 36.91865135 15.09273173 46.9739163 8.08984375 56.4296875 C2.28132292 62.87572891 -6.83579789 67.84951933 -15.54882812 68.64990234 C-29.05179394 69.13466939 -39.54591071 68.62539673 -50.38671875 59.64453125 C-58.17053718 52.14273523 -61.54289932 43.94256567 -62.40625 33.19140625 C-62.57372379 22.53398349 -59.52120054 13.12964247 -52.37109375 5.1328125 C-38.6259973 -7.8673574 -16.08183649 -10.1313005 0 0 Z M-40.19140625 14.29296875 C-45.26920272 20.63414042 -47.00766833 26.4777408 -46.8203125 34.578125 C-45.92765511 41.50326705 -42.81630616 46.76367016 -37.32421875 51.01953125 C-32.6198856 54.25032814 -28.81145413 54.63967534 -23.13671875 54.70703125 C-21.19345703 54.74570312 -21.19345703 54.74570312 -19.2109375 54.78515625 C-13.21509488 54.2621544 -8.7735741 51.55378895 -4.44921875 47.45703125 C0.21769676 40.754213 1.36536424 34.48480567 0.55078125 26.45703125 C-1.27167757 19.3064922 -5.38213787 14.53564615 -11.44921875 10.45703125 C-20.53745206 5.89766588 -33.06884171 6.78712719 -40.19140625 14.29296875 Z " fill="#FEFEFE" transform="translate(1131.44921875,605.54296875)"/>
<path d="M0 0 C6.50583139 3.77723434 10.09819239 9.67694356 12.08209229 16.83294678 C12.97823659 21.61391001 12.73985094 26.49369244 12.6953125 31.33984375 C12.6924826 32.5063295 12.68965271 33.67281525 12.68673706 34.87464905 C12.67558388 38.58320576 12.65048786 42.29151685 12.625 46 C12.61496393 48.52148088 12.60583918 51.04296555 12.59765625 53.56445312 C12.5756604 59.73056272 12.54116373 65.89648978 12.5 72.0625 C7.55 72.0625 2.6 72.0625 -2.5 72.0625 C-2.51458252 70.69109863 -2.52916504 69.31969727 -2.54418945 67.90673828 C-2.60249803 62.78132046 -2.67972771 57.65632709 -2.76245117 52.53125 C-2.79554802 50.32005746 -2.82362656 48.10878353 -2.84643555 45.89746094 C-2.88026297 42.70472782 -2.93259209 39.51273042 -2.98828125 36.3203125 C-2.99467117 35.34385773 -3.0010611 34.36740295 -3.00764465 33.36135864 C-3.14010901 27.06931832 -3.67557425 20.78524088 -6.5 15.0625 C-10.61137478 11.34503114 -14.06862848 11.51183245 -19.4453125 11.63671875 C-23.93413792 12.26239902 -27.16641523 14.02808309 -30.5 17.0625 C-32.68500707 20.3400106 -32.76351236 21.36760051 -32.81884766 25.17651367 C-32.83871735 26.21736618 -32.85858704 27.25821869 -32.87905884 28.33061218 C-32.89638565 30.01354118 -32.89638565 30.01354118 -32.9140625 31.73046875 C-32.93342865 32.88041824 -32.9527948 34.03036774 -32.9727478 35.21516418 C-33.03259761 38.89336699 -33.07895106 42.571601 -33.125 46.25 C-33.16317476 48.74155022 -33.20222619 51.23308717 -33.2421875 53.72460938 C-33.33830378 59.83713202 -33.4223152 65.94971644 -33.5 72.0625 C-38.78 72.0625 -44.06 72.0625 -49.5 72.0625 C-49.5 48.3025 -49.5 24.5425 -49.5 0.0625 C-44.22 0.0625 -38.94 0.0625 -33.5 0.0625 C-33.17 1.7125 -32.84 3.3625 -32.5 5.0625 C-31.46875 4.27875 -30.4375 3.495 -29.375 2.6875 C-21.20899079 -3.518667 -9.26228097 -4.06979012 0 0 Z " fill="#FEFEFE" transform="translate(1632.5,599.9375)"/>
<path d="M0 0 C0.87495117 0.00322266 1.74990234 0.00644531 2.65136719 0.00976562 C9.52734015 0.15763601 14.92230661 1.4891737 21.1875 4.4375 C21.1875 9.7175 21.1875 14.9975 21.1875 20.4375 C15.1875 18.4375 15.1875 18.4375 12.1875 16.8125 C6.0219719 14.14855245 -2.08135748 14.096352 -8.35546875 16.3515625 C-13.86069073 19.55347397 -16.78393906 23.76324156 -19.0625 29.6875 C-20.60762591 37.41312955 -20.75637586 45.38553655 -16.8125 52.4375 C-12.18120821 57.69030714 -7.4539141 61.120318 -0.359375 61.73828125 C6.28468738 61.75878762 12.22128736 61.70242622 18.453125 59.09375 C20.1875 58.4375 20.1875 58.4375 23.1875 58.4375 C23.1875 63.3875 23.1875 68.3375 23.1875 73.4375 C11.95608643 77.46069292 -3.17351561 79.06235213 -14.625 74.8125 C-16.81640625 73.69140625 -16.81640625 73.69140625 -18.8125 72.4375 C-19.52277344 72.01339844 -20.23304688 71.58929687 -20.96484375 71.15234375 C-29.08230707 65.72558522 -33.50663535 57.77263866 -35.8125 48.4375 C-36.19728545 45.2765978 -36.24385651 42.18122758 -36.1875 39 C-36.17734863 38.16742676 -36.16719727 37.33485352 -36.15673828 36.47705078 C-35.87710423 25.39357092 -32.90075981 16.24389593 -24.703125 8.42578125 C-16.96718461 2.06363717 -9.94834392 -0.11413014 0 0 Z " fill="#FEFEFE" transform="translate(974.8125,597.5625)"/>
<path d="M0 0 C0 4.95 0 9.9 0 15 C7.59 15 15.18 15 23 15 C23 19.29 23 23.58 23 28 C15.41 28 7.82 28 0 28 C0.09725299 33.14161181 0.20017921 38.28247664 0.31738281 43.42358398 C0.35551913 45.17025973 0.39039802 46.91700991 0.421875 48.66381836 C0.46786087 51.18370046 0.52579747 53.7030769 0.5859375 56.22265625 C0.59748871 56.99585709 0.60903992 57.76905792 0.62094116 58.56568909 C0.74991533 63.37058134 1.294702 67.48372002 3 72 C7.46447926 74.97631951 11.76114758 74.50486148 17 74 C19.51875396 73.21628699 21.62716325 72.18641837 24 71 C24.99 71 25.98 71 27 71 C27 75.62 27 80.24 27 85 C17.74365102 89.62817449 7.98907381 90.92710167 -2.07421875 88.15234375 C-7.94494062 85.56360989 -11.57253723 81.96139693 -14 76 C-15.33574071 71.08497555 -15.12615351 66.15621241 -15.09765625 61.10546875 C-15.0962413 60.15811356 -15.09482635 59.21075836 -15.09336853 58.23469543 C-15.08778611 55.21893105 -15.07523682 52.20324182 -15.0625 49.1875 C-15.05748273 47.13867295 -15.05292022 45.08984473 -15.04882812 43.04101562 C-15.03782243 38.02731494 -15.02056988 33.0136702 -15 28 C-18.96 28 -22.92 28 -27 28 C-25.86648587 23.46594347 -23.93068193 21.50986792 -20.72265625 18.359375 C-19.93283607 17.56880707 -19.93283607 17.56880707 -19.12705994 16.76226807 C-18.01513644 15.65268083 -16.89952865 14.54677502 -15.78051758 13.44433594 C-14.06344507 11.75093205 -12.36015619 10.04452251 -10.65820312 8.3359375 C-9.57631205 7.25962076 -8.49365563 6.18407268 -7.41015625 5.109375 C-6.89864517 4.59695251 -6.38713409 4.08453003 -5.86012268 3.55657959 C-2.23104034 0 -2.23104034 0 0 0 Z " fill="#FEFEFE" transform="translate(1423,585)"/>
<path d="M0 0 C3.31240519 1.58897666 6.37046372 3.2290964 8.6171875 6.203125 C8.39427053 9.68350606 6.49660045 12.14354881 4.5546875 14.953125 C4.00683594 15.75234375 3.45898438 16.5515625 2.89453125 17.375 C2.47300781 17.97828125 2.05148437 18.5815625 1.6171875 19.203125 C-1.07133355 18.17935043 -3.29017766 17.27002794 -5.6328125 15.578125 C-9.57237651 13.60834299 -13.05727471 13.63584136 -17.3828125 14.203125 C-21.99250363 16.04700145 -23.96230981 18.9463789 -26.3828125 23.203125 C-28.67392608 28.59912443 -28.72536601 33.64764498 -28.796875 39.4140625 C-28.81624115 40.38219879 -28.8356073 41.35033508 -28.8555603 42.34780884 C-28.9150958 45.4244927 -28.9616372 48.50121451 -29.0078125 51.578125 C-29.04601623 53.67058877 -29.08506935 55.76303722 -29.125 57.85546875 C-29.22077595 62.97122896 -29.30490292 68.08706276 -29.3828125 73.203125 C-34.3328125 73.203125 -39.2828125 73.203125 -44.3828125 73.203125 C-44.3828125 49.443125 -44.3828125 25.683125 -44.3828125 1.203125 C-39.4328125 1.203125 -34.4828125 1.203125 -29.3828125 1.203125 C-29.0528125 4.833125 -28.7228125 8.463125 -28.3828125 12.203125 C-27.80273438 11.51605469 -27.22265625 10.82898438 -26.625 10.12109375 C-25.84382813 9.22003906 -25.06265625 8.31898438 -24.2578125 7.390625 C-23.49210937 6.49730469 -22.72640625 5.60398437 -21.9375 4.68359375 C-15.78691901 -1.28830064 -8.116405 -2.71433872 0 0 Z " fill="#FEFEFE" transform="translate(1059.3828125,598.796875)"/>
<path d="M0 0 C4.95 0 9.9 0 15 0 C15 23.76 15 47.52 15 72 C10.05 72 5.1 72 0 72 C0 48.24 0 24.48 0 0 Z " fill="#FEFEFE" transform="translate(1460,600)"/>
<path d="M0 0 C4.95 0 9.9 0 15 0 C15 23.76 15 47.52 15 72 C10.05 72 5.1 72 0 72 C0 48.24 0 24.48 0 0 Z " fill="#FEFEFE" transform="translate(1371,600)"/>
<path d="M0 0 C4.95 0 9.9 0 15 0 C15 23.76 15 47.52 15 72 C10.05 72 5.1 72 0 72 C0 48.24 0 24.48 0 0 Z " fill="#FEFEFE" transform="translate(908,600)"/>
<path d="M0 0 C2.82039198 1.90376459 3.70123492 3.24312848 4.9375 6.375 C5.0221688 9.93108969 3.83947665 12.00233435 2 15 C-1.46530209 16.73265104 -5.21107035 16.4643626 -9 16 C-11.5625 14.5 -11.5625 14.5 -13 12 C-13.77813307 8.00285328 -13.60389013 5.0502437 -11.5625 1.5 C-7.75573414 -0.72835075 -4.30240791 -0.78297497 0 0 Z " fill="#FEFEFE" transform="translate(1472,569)"/>
<path d="M0 0 C2.82039198 1.90376459 3.70123492 3.24312848 4.9375 6.375 C5.0221688 9.93108969 3.83947665 12.00233435 2 15 C-1.46530209 16.73265104 -5.21107035 16.4643626 -9 16 C-11.5625 14.5 -11.5625 14.5 -13 12 C-13.77813307 8.00285328 -13.60389013 5.0502437 -11.5625 1.5 C-7.75573414 -0.72835075 -4.30240791 -0.78297497 0 0 Z " fill="#FEFEFE" transform="translate(1383,569)"/>
<path d="M0 0 C2.82039198 1.90376459 3.70123492 3.24312848 4.9375 6.375 C5.0221688 9.93108969 3.83947665 12.00233435 2 15 C-1.46530209 16.73265104 -5.21107035 16.4643626 -9 16 C-11.5625 14.5 -11.5625 14.5 -13 12 C-13.77813307 8.00285328 -13.60389013 5.0502437 -11.5625 1.5 C-7.75573414 -0.72835075 -4.30240791 -0.78297497 0 0 Z " fill="#FEFEFE" transform="translate(920,569)"/>
</svg>
