<?xml version="1.0" encoding="UTF-8" standalone="no"?>
<svg
   width="142.463pc"
   height="29.820999pc"
   viewBox="0 0 175.74782 36.78833"
   version="1.1"
   id="svg2"
   sodipodi:docname="laserdisc.svg"
   inkscape:version="1.3.2 (091e20ef0f, 2023-11-25)"
   xmlns:inkscape="http://www.inkscape.org/namespaces/inkscape"
   xmlns:sodipodi="http://sodipodi.sourceforge.net/DTD/sodipodi-0.dtd"
   xmlns="http://www.w3.org/2000/svg"
   xmlns:svg="http://www.w3.org/2000/svg">
  <sodipodi:namedview
     id="namedview1"
     pagecolor="#ffffff"
     bordercolor="#000000"
     borderopacity="0.25"
     inkscape:showpageshadow="2"
     inkscape:pageopacity="0.0"
     inkscape:pagecheckerboard="0"
     inkscape:deskcolor="#d1d1d1"
     inkscape:document-units="pc"
     inkscape:zoom="0.36895545"
     inkscape:cx="1139.704"
     inkscape:cy="239.86635"
     inkscape:window-width="1920"
     inkscape:window-height="1164"
     inkscape:window-x="0"
     inkscape:window-y="0"
     inkscape:window-maximized="1"
     inkscape:current-layer="g2" />
  <defs
     id="defs2" />
  <g
     fill-rule="evenodd"
     clip-rule="evenodd"
     id="g2"
     transform="translate(-8.5040886,-77.98327)">
    <path
       d="M 14.249,77.984 H 24.378 L 20.75,99.301 h -9.827 z m -3.931,24.493 h 9.978 l -0.302,2.418 h 8.315 L 27.1,113.514 H 8.504 Z m 130.02,-22.679 h 9.223 l -0.909,6.048 h -9.22 z m -1.285,8.618 h 9.222 l -1.664,11.188 h -9.222 z m -2.117,14.061 h 9.222 l -1.662,11.037 h -9.223 z m -42.181,0 h 9.222 l -1.663,11.037 h -9.222 z m -56.393,0 c -0.078,0.713 -0.131,1.621 -0.051,2.438 0.11,0.996 0.497,1.793 1.442,1.793 1.244,0 1.995,-1.096 2.425,-2.389 0.243,-0.672 0.417,-1.23 0.543,-1.865 l 8.594,-0.023 -1.751,11.113 h -7.641 l 0.449,-2.213 c -1.893,2.41 -3.409,2.988 -6.595,2.988 -6.085,0 -7.057,-6.75 -6.672,-11.84 z m 4.742,-2.873 a 16.495,16.495 0 0 0 -0.032,-1.451 c -0.089,-1.145 -0.447,-2.141 -1.592,-2.141 -1.195,0 -1.91,1.195 -2.41,2.639 -0.072,0.225 -0.134,0.441 -0.415,0.951 l -9.336,-0.008 c 1.239,-5.322 4.028,-11.547 10.105,-11.673 1.659,-0.034 4.758,0.192 5.971,2.563 l 0.265,0.052 0.392,-2.143 h 7.488 l -1.725,11.21 h -8.711 z m 10.983,0 c -0.557,-1.113 -0.791,-2.445 -0.569,-4.031 0.758,-5.426 4.838,-8.181 10.961,-8.181 2.639,0 4.473,0.62 6.582,1.914 l -1.004,6.968 c -1.531,-1.281 -4.304,-1.962 -5.947,-1.962 -0.697,0 -1.562,0.165 -1.775,0.992 -0.31,1.201 1.035,1.863 2.671,2.439 1.353,0.479 2.503,1.072 3.421,1.85 z m 16.431,2.898 c 0.417,1.141 0.541,2.516 0.338,3.967 -0.829,5.924 -5.912,8.152 -11.338,8.152 -3.584,0 -5.092,-0.668 -7.942,-2.361 l 1.274,-7.797 c 0.971,1.244 4.26,3.229 6.461,3.117 0.846,-0.045 2.553,-0.625 2.685,-1.572 0.132,-0.945 -0.274,-1.643 -2.397,-2.316 -0.994,-0.316 -1.938,-0.65 -2.775,-1.166 z m 10.094,-0.022 c -0.367,2.223 -0.451,5.713 1.575,5.961 1.305,0.158 2.666,-0.9 3.078,-3.582 h 8.197 c -1.429,8.426 -6.366,9.955 -12.241,9.912 -6.4,-0.047 -10.231,-5.256 -9.762,-12.301 z m 86.027,-2.876 c 1.203,-6.606 4.42,-12.002 13.621,-12.212 a 7.77,7.77 0 0 1 3.992,1.007 l -1.189,7.152 c -3.65,-1.481 -5.637,1.426 -6.338,4.062 z m 9.875,2.876 c 0.246,1.646 1.193,3.182 3.039,3.182 l 2.008,-0.152 -1.17,8.004 c -1.426,0.377 -2.785,0.604 -4.631,0.578 -7.025,-0.098 -9.904,-5.264 -9.494,-11.621 z m -51.893,0 c -1.1,1.781 -2.199,3.096 -4.693,2.869 l 0.432,-2.877 -9.713,0.006 -1.756,11.035 h 9.828 c 8.131,0 13.713,-3.559 16.451,-11.059 z m -3.896,-2.871 1.924,-12.403 c 3.932,0 4.838,3.024 4.082,8.466 -0.188,1.36 -0.453,2.798 -0.807,3.96 l 10.225,0.01 c 0.369,-1.531 0.533,-3.23 0.713,-5.028 1.359,-13.607 -6.049,-16.631 -13.457,-16.631 h -9.223 l -1.283,9.676 c -1.514,0.302 -5.217,0.755 -7.182,3.402 -0.379,0.377 -0.605,0.227 -0.529,-0.227 l 0.377,-2.419 h -8.693 l -1.663,11.188 h 9.223 c 0.377,-1.588 4.535,-3.931 7.105,-2.721 l -0.432,2.713 z m 28.004,-0.005 c -0.557,-1.113 -0.789,-2.445 -0.568,-4.031 0.758,-5.426 4.838,-8.181 10.961,-8.181 2.639,0 4.473,0.62 6.582,1.914 l -1.004,6.968 c -1.533,-1.281 -4.305,-1.962 -5.947,-1.962 -0.697,0 -1.562,0.165 -1.777,0.992 -0.309,1.201 1.037,1.863 2.672,2.439 1.354,0.479 2.504,1.072 3.422,1.85 z m 16.431,2.898 c 0.416,1.141 0.541,2.516 0.338,3.967 -0.828,5.924 -5.912,8.152 -11.338,8.152 -3.584,0 -5.092,-0.668 -7.941,-2.361 l 1.273,-7.797 c 0.971,1.244 4.26,3.229 6.461,3.117 0.846,-0.045 2.553,-0.625 2.686,-1.572 0.131,-0.945 -0.275,-1.643 -2.398,-2.316 -0.994,-0.316 -1.938,-0.65 -2.775,-1.166 z m 14.094,-19.755 h 1.902 v 0.28 h -0.793 v 2.063 h -0.316 v -2.063 h -0.793 z m 4.125,2.343 v -1.384 c 0,-0.069 0.008,-0.366 0.008,-0.584 h -0.008 l -0.658,1.968 h -0.314 l -0.658,-1.965 h -0.008 c 0,0.215 0.008,0.512 0.008,0.581 v 1.384 h -0.307 v -2.343 h 0.453 l 0.668,1.981 h 0.008 l 0.666,-1.981 h 0.449 v 2.343 z m -99.064,2.302 c -7.4,0.05 -11.041,5.244 -12.479,12.208 l 22.343,0.006 c 0.248,-3.231 0.131,-6.361 -0.846,-7.781 -1.703,-2.479 -3.945,-4.467 -9.018,-4.433 z m 0.144,5.834 c 1.742,0 2.025,1.892 1.874,3.335 h -4.53 c 0.138,-1.344 1.013,-3.335 2.656,-3.335 z"
       id="path2"
       style="fill:#ffffff;fill-opacity:1" />
  </g>
</svg>
