<svg id="svg" version="1.1" xmlns="http://www.w3.org/2000/svg" xmlns:xlink="http://www.w3.org/1999/xlink" width="400" height="47" viewBox="0, 0, 400,47"><g id="svgg"><path id="path0" d="M6.893 5.948 C 6.305 6.007,6.187 6.084,6.097 6.467 C 5.936 7.159,5.771 35.238,5.911 38.204 L 6.035 40.825 6.559 40.904 C 8.536 41.201,40.636 41.087,40.941 40.781 C 41.085 40.637,41.141 35.585,41.000 35.445 C 40.834 35.279,35.907 35.179,27.051 35.159 C 20.379 35.145,17.978 35.089,17.865 34.945 C 17.776 34.832,17.670 28.744,17.613 20.438 C 17.559 12.567,17.468 6.079,17.411 6.021 C 17.294 5.904,7.975 5.839,6.893 5.948 M59.482 5.986 C 58.512 6.122,56.082 8.314,53.564 11.323 C 52.878 12.143,52.841 12.935,52.941 24.917 L 53.027 35.250 55.887 38.125 L 58.746 41.000 70.582 40.997 L 82.417 40.994 85.292 38.147 L 88.167 35.299 88.167 23.451 L 88.167 11.603 85.297 8.718 L 82.427 5.833 71.338 5.856 C 65.240 5.868,59.904 5.926,59.482 5.986 M100.250 6.125 C 100.072 6.559,99.961 31.928,100.116 36.750 L 100.250 40.917 103.083 40.952 L 105.917 40.988 111.663 35.327 C 114.824 32.214,117.505 29.667,117.621 29.667 C 117.859 29.667,120.589 32.250,125.711 37.321 C 127.615 39.206,129.303 40.799,129.461 40.862 C 129.905 41.038,134.717 41.016,135.000 40.837 C 135.326 40.631,135.331 6.431,135.005 6.106 C 134.791 5.892,124.902 5.832,124.151 6.040 C 123.606 6.191,123.500 7.854,123.500 16.256 C 123.500 21.807,123.440 22.833,123.118 22.833 C 123.023 22.833,122.001 21.907,120.848 20.775 C 117.482 17.473,117.853 17.502,114.926 20.318 C 112.983 22.188,112.117 22.858,111.925 22.640 C 111.897 22.609,111.834 18.983,111.785 14.583 C 111.692 6.155,111.687 6.089,111.113 5.935 C 110.089 5.661,100.370 5.830,100.250 6.125 M147.298 6.208 C 147.048 6.645,146.890 35.693,147.120 38.915 L 147.250 40.747 148.083 40.887 C 149.117 41.060,157.590 41.120,158.183 40.958 C 158.732 40.808,158.831 39.452,158.833 32.135 C 158.833 28.921,158.893 27.149,159.005 27.080 C 159.249 26.929,159.675 27.326,166.996 34.528 L 173.575 41.000 177.663 40.997 C 179.911 40.996,181.852 40.930,181.977 40.851 C 182.292 40.652,182.522 38.251,182.396 36.500 L 182.293 35.083 177.104 29.898 C 172.182 24.980,171.291 23.987,171.560 23.718 C 171.624 23.654,172.826 23.523,174.233 23.426 L 176.790 23.249 179.353 20.606 C 182.578 17.280,182.396 17.634,182.408 14.659 C 182.419 11.712,182.651 12.140,179.094 8.540 L 176.417 5.830 161.964 5.832 L 147.512 5.833 147.298 6.208 M195.417 5.988 L 194.250 6.083 194.117 15.250 C 193.979 24.724,194.060 40.525,194.247 40.828 C 194.319 40.944,199.973 41.000,211.764 41.000 L 229.175 41.000 229.129 38.125 L 229.083 35.250 217.750 35.167 C 211.517 35.121,206.323 35.023,206.208 34.948 C 205.952 34.782,205.909 24.236,206.163 23.833 C 206.296 23.622,207.172 23.570,211.783 23.500 L 217.246 23.417 217.493 22.917 C 217.821 22.254,217.855 18.345,217.537 17.961 C 217.354 17.741,216.534 17.695,211.897 17.642 C 205.349 17.568,206.000 17.918,206.000 14.468 L 206.000 12.000 206.542 11.999 C 211.986 11.985,228.511 11.794,228.775 11.741 C 229.174 11.661,229.499 8.355,229.263 6.781 L 229.154 6.051 226.884 5.942 C 224.168 5.812,197.084 5.851,195.417 5.988 M244.224 8.708 L 241.368 11.583 241.258 13.917 C 241.086 17.565,240.954 17.250,243.966 20.352 C 245.388 21.818,246.709 23.102,246.901 23.206 C 247.142 23.337,249.893 23.424,255.798 23.489 C 263.140 23.570,264.369 23.619,264.512 23.833 C 264.776 24.232,264.640 34.593,264.367 34.867 C 264.195 35.038,261.819 35.101,252.917 35.167 C 244.101 35.232,241.637 35.296,241.470 35.463 C 241.235 35.698,241.150 40.173,241.370 40.708 C 241.483 40.983,242.341 41.000,256.073 41.000 L 270.657 41.000 273.407 38.237 C 276.709 34.920,276.513 35.398,276.621 30.417 C 276.768 23.587,276.839 23.791,273.015 20.064 L 270.601 17.712 262.027 17.633 C 254.242 17.562,253.433 17.529,253.247 17.275 C 252.813 16.681,252.804 12.474,253.236 12.042 C 253.305 11.973,258.462 11.878,264.696 11.830 C 277.750 11.731,276.473 11.936,276.538 9.926 C 276.584 8.475,276.535 7.090,276.412 6.375 L 276.318 5.833 261.699 5.833 L 247.080 5.833 244.224 8.708 M312.394 5.942 C 311.910 6.045,311.795 10.908,311.865 28.167 L 311.917 40.917 314.250 41.069 C 317.114 41.255,323.055 41.011,323.373 40.694 C 323.534 40.533,323.605 38.584,323.676 32.367 C 323.728 27.903,323.784 24.231,323.801 24.208 C 323.978 23.977,324.995 24.911,329.701 29.625 L 335.150 35.083 335.200 37.703 C 335.270 41.361,334.826 41.161,342.500 41.006 L 346.917 40.917 347.050 37.000 C 347.209 32.341,347.091 6.553,346.909 6.105 C 346.758 5.734,335.857 5.743,335.486 6.114 C 335.365 6.235,335.265 8.073,335.193 11.468 C 335.133 14.312,335.029 16.693,334.964 16.759 C 334.745 16.977,334.119 16.416,329.026 11.433 C 326.246 8.714,323.775 6.360,323.535 6.203 C 323.112 5.925,313.524 5.701,312.394 5.942 M359.917 5.985 L 359.083 6.083 358.971 6.833 C 358.351 10.959,358.585 11.459,363.421 16.335 C 365.573 18.504,367.333 20.405,367.333 20.561 C 367.333 20.716,365.471 22.734,363.195 25.046 C 358.361 29.956,358.838 28.938,358.835 34.350 C 358.833 39.668,358.930 40.648,359.484 40.860 C 360.507 41.253,369.532 41.226,370.175 40.828 C 370.355 40.717,370.424 39.837,370.496 36.718 C 370.571 33.472,370.638 32.659,370.862 32.250 C 371.175 31.681,376.204 26.667,376.463 26.667 C 376.556 26.667,377.909 27.905,379.468 29.420 L 382.304 32.173 382.360 36.378 C 382.391 38.691,382.477 40.677,382.552 40.792 C 382.655 40.951,383.983 41.000,388.252 41.000 L 393.818 41.000 393.950 40.375 C 394.123 39.550,394.122 30.222,393.948 29.596 C 393.861 29.283,392.428 27.706,389.934 25.180 C 387.801 23.018,385.963 21.077,385.849 20.865 C 385.586 20.370,385.759 20.162,390.180 15.667 C 392.209 13.603,393.662 11.986,393.849 11.583 C 394.311 10.590,394.311 6.881,393.848 6.310 L 393.530 5.917 388.723 5.862 C 382.122 5.786,382.709 5.605,379.569 8.686 C 376.276 11.917,376.758 11.923,373.338 8.608 C 370.850 6.197,370.652 6.043,369.909 5.941 C 368.959 5.811,361.092 5.845,359.917 5.985 M75.708 11.999 L 76.333 12.000 76.331 23.125 C 76.328 35.695,76.385 34.929,75.443 35.070 C 74.457 35.218,66.736 35.232,65.812 35.088 L 65.041 34.968 64.941 33.526 C 64.759 30.895,64.620 17.629,64.745 14.800 L 64.868 12.017 65.642 11.942 C 66.068 11.901,68.367 11.897,70.750 11.933 C 73.133 11.969,75.365 11.999,75.708 11.999 M170.514 12.183 C 170.595 12.312,170.663 13.521,170.664 14.872 L 170.667 17.327 170.208 17.455 C 169.432 17.672,159.365 17.598,159.140 17.374 C 158.496 16.729,158.643 12.060,159.312 11.939 C 160.450 11.735,170.366 11.950,170.514 12.183 " stroke="none" fill="#dbdbd8" fill-rule="evenodd"></path><path id="path1" d="M305.083 23.500 L 305.083 47.000 352.542 47.000 L 400.000 47.000 400.000 35.944 L 400.000 24.889 399.359 24.194 C 399.006 23.812,398.631 23.500,398.526 23.500 C 398.420 23.500,398.333 23.429,398.333 23.342 C 398.333 23.255,398.146 22.982,397.917 22.734 C 397.688 22.487,397.500 22.229,397.500 22.162 C 397.500 22.094,397.350 22.000,397.167 21.952 C 396.983 21.904,396.833 21.745,396.833 21.599 C 396.833 21.453,396.748 21.333,396.644 21.333 C 396.540 21.333,396.278 21.143,396.063 20.910 L 395.670 20.487 396.237 20.152 C 396.549 19.968,396.845 19.709,396.897 19.576 C 396.948 19.442,397.104 19.333,397.245 19.333 C 397.385 19.333,397.500 19.269,397.500 19.191 C 397.500 19.113,397.688 18.846,397.917 18.599 C 398.146 18.352,398.333 18.078,398.333 17.991 C 398.333 17.904,398.441 17.833,398.572 17.833 C 398.703 17.833,398.855 17.694,398.909 17.524 C 398.963 17.355,399.230 17.017,399.503 16.773 L 400.000 16.331 400.000 8.165 L 400.000 0.000 352.542 0.000 L 305.083 0.000 305.083 23.500 M50.667 3.597 C 50.667 3.892,51.025 3.840,51.128 3.531 C 51.165 3.422,51.076 3.333,50.931 3.333 C 50.785 3.333,50.667 3.452,50.667 3.597 M50.000 4.250 C 50.000 4.387,50.112 4.500,50.250 4.500 C 50.387 4.500,50.500 4.387,50.500 4.250 C 50.500 4.112,50.387 4.000,50.250 4.000 C 50.112 4.000,50.000 4.112,50.000 4.250 M90.667 4.222 C 90.667 4.537,90.827 4.658,91.104 4.552 C 91.286 4.482,91.297 4.407,91.151 4.231 C 90.908 3.938,90.667 3.934,90.667 4.222 M238.417 4.167 C 238.281 4.387,238.480 4.699,238.678 4.576 C 238.881 4.451,238.879 4.000,238.677 4.000 C 238.590 4.000,238.473 4.075,238.417 4.167 M323.535 6.203 C 323.775 6.360,326.246 8.714,329.026 11.433 C 334.119 16.416,334.745 16.977,334.964 16.759 C 335.029 16.693,335.133 14.312,335.193 11.468 C 335.265 8.073,335.365 6.235,335.486 6.114 C 335.857 5.743,346.758 5.734,346.909 6.105 C 347.091 6.553,347.209 32.341,347.050 37.000 L 346.917 40.917 342.500 41.006 C 334.826 41.161,335.270 41.361,335.200 37.703 L 335.150 35.083 329.701 29.625 C 324.995 24.911,323.978 23.977,323.801 24.208 C 323.784 24.231,323.728 27.903,323.676 32.367 C 323.605 38.584,323.534 40.533,323.373 40.694 C 323.055 41.011,317.114 41.255,314.250 41.069 L 311.917 40.917 311.865 28.167 C 311.795 10.908,311.910 6.045,312.394 5.942 C 313.524 5.701,323.112 5.925,323.535 6.203 M369.909 5.941 C 370.652 6.043,370.850 6.197,373.338 8.608 C 376.758 11.923,376.276 11.917,379.569 8.686 C 382.709 5.605,382.122 5.786,388.723 5.862 L 393.530 5.917 393.848 6.310 C 394.311 6.881,394.311 10.590,393.849 11.583 C 393.662 11.986,392.209 13.603,390.180 15.667 C 385.759 20.162,385.586 20.370,385.849 20.865 C 385.963 21.077,387.801 23.018,389.934 25.180 C 392.428 27.706,393.861 29.283,393.948 29.596 C 394.122 30.222,394.123 39.550,393.950 40.375 L 393.818 41.000 388.252 41.000 C 383.983 41.000,382.655 40.951,382.552 40.792 C 382.477 40.677,382.391 38.691,382.360 36.378 L 382.304 32.173 379.468 29.420 C 377.909 27.905,376.556 26.667,376.463 26.667 C 376.204 26.667,371.175 31.681,370.862 32.250 C 370.638 32.659,370.571 33.472,370.496 36.718 C 370.424 39.837,370.355 40.717,370.175 40.828 C 369.532 41.226,360.507 41.253,359.484 40.860 C 358.930 40.648,358.833 39.668,358.835 34.350 C 358.838 28.938,358.361 29.956,363.195 25.046 C 365.471 22.734,367.333 20.716,367.333 20.561 C 367.333 20.405,365.573 18.504,363.421 16.335 C 358.585 11.459,358.351 10.959,358.971 6.833 L 359.083 6.083 359.917 5.985 C 361.092 5.845,368.959 5.811,369.909 5.941 M279.000 42.847 C 279.000 43.253,279.389 43.196,279.471 42.778 C 279.502 42.613,279.417 42.500,279.262 42.500 C 279.108 42.500,279.000 42.642,279.000 42.847 " stroke="none" fill="#faf8f7" fill-rule="evenodd"></path><path id="path2" d="M0.000 23.501 L 0.000 47.001 55.399 46.959 L 110.799 46.917 111.399 46.280 C 111.730 45.930,112.000 45.573,112.000 45.488 C 112.000 45.403,112.068 45.333,112.151 45.333 C 112.372 45.333,115.500 42.239,115.500 42.020 C 115.500 41.917,115.571 41.833,115.658 41.833 C 115.746 41.833,116.262 41.390,116.806 40.847 C 117.791 39.865,118.167 39.773,118.167 40.513 C 118.167 40.866,118.470 41.118,118.983 41.192 C 119.203 41.224,119.447 41.381,119.525 41.542 C 119.603 41.702,119.730 41.965,119.808 42.125 C 119.886 42.285,120.098 42.492,120.281 42.585 C 120.820 42.859,121.667 43.728,121.667 44.008 C 121.667 44.400,122.014 44.667,122.527 44.667 C 122.921 44.667,123.012 44.760,123.162 45.318 C 123.298 45.823,123.453 46.009,123.850 46.148 C 124.132 46.246,124.402 46.478,124.451 46.663 L 124.539 47.000 200.000 47.000 L 275.461 47.000 275.549 46.663 C 275.598 46.478,275.868 46.246,276.150 46.148 C 276.547 46.009,276.702 45.823,276.838 45.318 C 276.988 44.760,277.079 44.667,277.473 44.667 C 278.003 44.667,278.333 44.398,278.333 43.968 C 278.333 43.804,278.483 43.576,278.667 43.461 C 278.850 43.347,279.000 43.076,279.000 42.859 C 279.000 42.528,279.063 42.480,279.391 42.562 C 279.796 42.664,280.341 42.226,280.551 41.630 C 280.607 41.473,280.918 41.233,281.243 41.097 C 281.618 40.941,281.833 40.738,281.833 40.542 C 281.833 40.157,282.145 39.833,282.516 39.833 C 283.061 39.833,283.084 39.087,283.128 19.625 L 283.173 0.000 262.832 0.000 L 242.491 0.000 241.907 0.542 C 241.586 0.840,240.836 1.552,240.241 2.125 C 239.645 2.698,239.090 3.167,239.005 3.167 C 238.921 3.167,238.829 3.485,238.801 3.875 C 238.753 4.543,238.723 4.580,238.283 4.529 C 237.702 4.461,237.333 4.750,237.333 5.275 C 237.333 5.551,237.201 5.725,236.906 5.837 C 235.982 6.189,236.000 6.245,236.000 3.000 L 236.000 0.000 211.667 0.000 L 187.333 0.000 187.333 1.391 C 187.333 3.292,187.142 5.833,187.000 5.833 C 186.907 5.833,185.479 4.457,184.417 3.343 C 184.325 3.247,183.669 2.610,182.958 1.927 C 182.248 1.244,181.666 0.625,181.665 0.551 C 181.660 0.004,181.340 0.000,137.159 -0.000 L 93.550 -0.000 93.456 2.931 C 93.348 6.278,93.420 6.010,92.666 5.856 C 92.159 5.753,92.072 5.662,92.000 5.160 C 91.924 4.631,91.869 4.583,91.338 4.575 C 90.822 4.567,90.748 4.508,90.649 4.021 C 90.587 3.721,90.379 3.329,90.185 3.148 C 89.992 2.968,89.833 2.761,89.833 2.688 C 89.833 2.616,89.639 2.453,89.402 2.326 C 89.165 2.199,88.864 1.887,88.733 1.633 C 88.596 1.370,88.299 1.125,88.039 1.063 C 87.430 0.917,87.167 0.691,87.167 0.313 C 87.167 0.009,86.695 0.000,70.583 0.000 C 54.472 0.000,54.000 0.009,54.000 0.313 C 54.000 0.692,53.736 0.917,53.120 1.065 C 52.772 1.148,52.631 1.304,52.554 1.690 C 52.478 2.068,52.305 2.265,51.898 2.435 C 51.313 2.680,50.994 3.106,51.123 3.469 C 51.168 3.593,51.048 3.729,50.851 3.780 C 50.651 3.833,50.500 4.007,50.500 4.186 C 50.500 4.417,50.379 4.501,50.042 4.503 C 49.426 4.506,49.177 4.688,49.028 5.245 C 48.938 5.580,48.742 5.763,48.328 5.897 C 47.888 6.039,47.733 6.196,47.668 6.560 C 47.608 6.897,47.416 7.117,47.011 7.310 C 46.114 7.738,46.113 7.760,46.141 18.458 L 46.167 28.333 41.353 28.333 L 36.538 28.333 36.450 27.792 C 36.402 27.494,36.354 23.879,36.345 19.760 C 36.335 15.640,36.279 11.968,36.220 11.599 C 36.117 10.957,26.408 0.931,25.189 0.208 C 24.917 0.047,22.056 0.000,12.419 0.000 L 0.000 0.000 0.000 23.501 M17.411 6.021 C 17.468 6.079,17.559 12.567,17.613 20.438 C 17.670 28.744,17.776 34.832,17.865 34.945 C 17.978 35.089,20.379 35.145,27.051 35.159 C 35.907 35.179,40.834 35.279,41.000 35.445 C 41.141 35.585,41.085 40.637,40.941 40.781 C 40.636 41.087,8.536 41.201,6.559 40.904 L 6.035 40.825 5.911 38.204 C 5.771 35.238,5.936 7.159,6.097 6.467 C 6.187 6.084,6.305 6.007,6.893 5.948 C 7.975 5.839,17.294 5.904,17.411 6.021 M85.297 8.718 L 88.167 11.603 88.167 23.451 L 88.167 35.299 85.292 38.147 L 82.417 40.994 70.582 40.997 L 58.746 41.000 55.887 38.125 L 53.027 35.250 52.941 24.917 C 52.823 10.765,52.574 12.305,55.480 9.229 C 58.997 5.507,57.226 5.884,71.338 5.856 L 82.427 5.833 85.297 8.718 M111.113 5.935 C 111.687 6.089,111.692 6.155,111.785 14.583 C 111.834 18.983,111.897 22.609,111.925 22.640 C 112.117 22.858,112.983 22.188,114.926 20.318 C 117.853 17.502,117.482 17.473,120.848 20.775 C 122.001 21.907,123.023 22.833,123.118 22.833 C 123.440 22.833,123.500 21.807,123.500 16.256 C 123.500 7.854,123.606 6.191,124.151 6.040 C 124.902 5.832,134.791 5.892,135.005 6.106 C 135.331 6.431,135.326 40.631,135.000 40.837 C 134.717 41.016,129.905 41.038,129.461 40.862 C 129.303 40.799,127.615 39.206,125.711 37.321 C 120.589 32.250,117.859 29.667,117.621 29.667 C 117.505 29.667,114.824 32.214,111.663 35.327 L 105.917 40.988 103.083 40.952 L 100.250 40.917 100.116 36.750 C 99.961 31.928,100.072 6.559,100.250 6.125 C 100.370 5.830,110.089 5.661,111.113 5.935 M179.094 8.540 C 182.651 12.140,182.419 11.712,182.408 14.659 C 182.396 17.634,182.578 17.280,179.353 20.606 L 176.790 23.249 174.233 23.426 C 172.826 23.523,171.624 23.654,171.560 23.718 C 171.291 23.987,172.182 24.980,177.104 29.898 L 182.293 35.083 182.396 36.500 C 182.522 38.251,182.292 40.652,181.977 40.851 C 181.852 40.930,179.911 40.996,177.663 40.997 L 173.575 41.000 166.996 34.528 C 159.675 27.326,159.249 26.929,159.005 27.080 C 158.893 27.149,158.833 28.921,158.833 32.135 C 158.831 39.452,158.732 40.808,158.183 40.958 C 157.590 41.120,149.117 41.060,148.083 40.887 L 147.250 40.747 147.120 38.915 C 146.890 35.693,147.048 6.645,147.298 6.208 L 147.512 5.833 161.964 5.832 L 176.417 5.830 179.094 8.540 M226.884 5.942 L 229.154 6.051 229.263 6.781 C 229.499 8.355,229.174 11.661,228.775 11.741 C 228.511 11.794,211.986 11.985,206.542 11.999 L 206.000 12.000 206.000 14.468 C 206.000 17.918,205.349 17.568,211.897 17.642 C 216.534 17.695,217.354 17.741,217.537 17.961 C 217.855 18.345,217.821 22.254,217.493 22.917 L 217.246 23.417 211.783 23.500 C 207.172 23.570,206.296 23.622,206.163 23.833 C 205.909 24.236,205.952 34.782,206.208 34.948 C 206.323 35.023,211.517 35.121,217.750 35.167 L 229.083 35.250 229.129 38.125 L 229.175 41.000 211.764 41.000 C 199.973 41.000,194.319 40.944,194.247 40.828 C 194.060 40.525,193.979 24.724,194.117 15.250 L 194.250 6.083 195.417 5.988 C 197.084 5.851,224.168 5.812,226.884 5.942 M276.412 6.375 C 276.535 7.090,276.584 8.475,276.538 9.926 C 276.473 11.936,277.750 11.731,264.696 11.830 C 258.462 11.878,253.305 11.973,253.236 12.042 C 252.804 12.474,252.813 16.681,253.247 17.275 C 253.433 17.529,254.242 17.562,262.027 17.633 L 270.601 17.712 273.015 20.064 C 276.839 23.791,276.768 23.587,276.621 30.417 C 276.513 35.398,276.709 34.920,273.407 38.237 L 270.657 41.000 256.073 41.000 C 242.341 41.000,241.483 40.983,241.370 40.708 C 241.150 40.173,241.235 35.698,241.470 35.463 C 241.637 35.296,244.101 35.232,252.917 35.167 C 261.819 35.101,264.195 35.038,264.367 34.867 C 264.640 34.593,264.776 24.232,264.512 23.833 C 264.369 23.619,263.140 23.570,255.798 23.489 C 249.893 23.424,247.142 23.337,246.901 23.206 C 246.709 23.102,245.388 21.818,243.966 20.352 C 240.954 17.250,241.086 17.565,241.258 13.917 L 241.368 11.583 244.224 8.708 L 247.080 5.833 261.699 5.833 L 276.318 5.833 276.412 6.375 M65.642 11.942 L 64.868 12.017 64.745 14.800 C 64.620 17.629,64.759 30.895,64.941 33.526 L 65.041 34.968 65.812 35.088 C 66.736 35.232,74.457 35.218,75.443 35.070 C 76.385 34.929,76.328 35.695,76.331 23.125 L 76.333 12.000 75.708 11.999 C 75.365 11.999,73.133 11.969,70.750 11.933 C 68.367 11.897,66.068 11.901,65.642 11.942 M159.312 11.939 C 158.643 12.060,158.496 16.729,159.140 17.374 C 159.365 17.598,169.432 17.672,170.208 17.455 L 170.667 17.327 170.664 14.872 C 170.663 13.521,170.595 12.312,170.514 12.183 C 170.366 11.950,160.450 11.735,159.312 11.939 " stroke="none" fill="#fbfbfb" fill-rule="evenodd"></path></g></svg>