<?xml version="1.0" encoding="UTF-8" standalone="no"?>
<svg
   version="1.1"
   id="TEXT"
   x="0px"
   y="0px"
   enable-background="new 0 -0.001 566.929 157.78"
   width="264"
   height="73.503845"
   xmlns="http://www.w3.org/2000/svg"
   xmlns:svg="http://www.w3.org/2000/svg">
  <defs
     id="defs1" />
  <g
     transform="scale(0.44)"
     id="g1">
    <polygon
       points="366.832,4.098 274.184,95.76 262.668,96.986 263.646,2.672 182.678,84.888 172.044,84.94 170.798,5.982 127.116,49.978 114.966,50.598 115.426,3.622 0,119.978 38.016,119.358 87.86,70.98 97.422,70.98 96.96,119.59 136.662,78.96 146.154,78.96 146.154,120.348 102.462,163.726 144.332,163.104 226.712,79.792 237.81,79.792 237.81,120.72 289.158,121.032 338.814,71.064 348.4,70.444 348.252,117.678 387.93,77.996 397.304,77.996 397.926,118.012 397.116,120.092 517.008,120.092 539.96,96.832 465.418,95.562 464.738,84.744 476.356,72.51 504.48,72.508 528.912,47.76 514.142,47.136 514.142,36.724 526.69,24.184 576.75,24.496 600,0.312 514.344,0 433.86,80.8 422.59,81.42 422.904,3.69 377.654,49.872 366.832,51.156 "
       id="polygon8"
       style="fill:#ffffff;fill-opacity:1" />
  </g>
  <path
     style="font-style:italic;font-weight:bold;font-size:13.3333px;font-family:Sans;-inkscape-font-specification:'Sans, Bold Italic';fill:#ffffff;stroke-width:250.205;paint-order:markers fill stroke"
     d="m 181.26419,73.295463 h -7.61066 l 0.37109,-1.60156 q 1.08073,-0.6901 2.03125,-1.36067 0.95052,-0.67057 1.60807,-1.20442 1.01562,-0.82032 1.49088,-1.47136 0.47526,-0.65755 0.47526,-1.2565 0,-0.56641 -0.37761,-0.83333 -0.3776,-0.27344 -1.04166,-0.27344 -0.67708,0 -1.3802,0.23437 -0.70313,0.22787 -1.34115,0.64453 h -0.20833 l 0.48177,-2.15494 q 0.48177,-0.19531 1.45182,-0.39713 0.97005,-0.20834 1.83593,-0.20834 1.56901,0 2.40234,0.57943 0.83333,0.57943 0.83333,1.72526 0,1.18489 -0.625,2.09634 -0.625,0.90495 -1.98567,1.97917 -0.67057,0.52734 -1.28255,0.944 -0.60547,0.41667 -1.05468,0.70313 h 4.35545 z m 15.26689,-6.71222 q 0,1.34114 -0.3125,2.62369 -0.3125,1.27604 -0.91797,2.20703 -0.6901,1.04166 -1.61458,1.56249 -0.91797,0.52083 -2.09635,0.52083 -1.69921,0 -2.60416,-0.76822 -0.90494,-0.77474 -0.90494,-2.40885 0,-1.39323 0.30599,-2.62369 0.30598,-1.23698 0.92447,-2.20703 0.61849,-0.96354 1.5625,-1.52343 0.95052,-0.5599 2.16796,-0.5599 1.73828,0 2.61067,0.80078 0.87891,0.79427 0.87891,2.3763 z m -2.51302,0.0977 q 0,-0.76171 -0.27995,-1.12629 -0.27343,-0.36459 -0.82031,-0.36459 -0.51432,0 -0.97005,0.46224 -0.44921,0.46224 -0.77473,1.32161 -0.28646,0.7487 -0.4362,1.64062 -0.14323,0.88542 -0.14323,1.60807 0,0.76823 0.27344,1.13281 0.27343,0.35807 0.85937,0.35807 0.5599,0 0.98958,-0.5013 0.42969,-0.50781 0.72266,-1.28255 0.27343,-0.72265 0.42317,-1.59504 0.15625,-0.8724 0.15625,-1.65365 z m 16.54944,-0.0977 q 0,1.34114 -0.3125,2.62369 -0.3125,1.27604 -0.91797,2.20703 -0.6901,1.04166 -1.61458,1.56249 -0.91796,0.52083 -2.09635,0.52083 -1.69921,0 -2.60416,-0.76822 -0.90494,-0.77474 -0.90494,-2.40885 0,-1.39323 0.30599,-2.62369 0.30599,-1.23698 0.92447,-2.20703 0.61849,-0.96354 1.5625,-1.52343 0.95052,-0.5599 2.16796,-0.5599 1.73828,0 2.61067,0.80078 0.87891,0.79427 0.87891,2.3763 z m -2.51302,0.0977 q 0,-0.76171 -0.27994,-1.12629 -0.27344,-0.36459 -0.82031,-0.36459 -0.51432,0 -0.97005,0.46224 -0.44922,0.46224 -0.77474,1.32161 -0.28646,0.7487 -0.4362,1.64062 -0.14323,0.88542 -0.14323,1.60807 0,0.76823 0.27344,1.13281 0.27344,0.35807 0.85937,0.35807 0.5599,0 0.98958,-0.5013 0.42969,-0.50781 0.72266,-1.28255 0.27344,-0.72265 0.42317,-1.59504 0.15625,-0.8724 0.15625,-1.65365 z m 14.47262,5.88541 q -0.64453,0.46224 -1.46484,0.70312 -0.8138,0.23437 -1.82291,0.23437 -1.17838,0 -2.10286,-0.21484 -0.92447,-0.22135 -1.51041,-0.52083 l 0.45573,-2.10937 0.2539,0.007 q 0.59245,0.42318 1.32812,0.67708 0.73568,0.25391 1.45182,0.25391 1.04818,0 1.63411,-0.39063 0.59245,-0.39713 0.59245,-1.1263 0,-0.30598 -0.11719,-0.5013 -0.11067,-0.19531 -0.36458,-0.30599 -0.27344,-0.12369 -0.6901,-0.15625 -0.41667,-0.0391 -0.9375,-0.0391 h -0.53385 l 0.37109,-1.71874 h 0.55339 q 1.33463,0 1.86197,-0.28646 0.53385,-0.29297 0.53385,-0.88542 0,-0.46874 -0.44922,-0.6901 -0.4427,-0.22135 -1.23046,-0.22135 -0.67708,0 -1.41927,0.21484 -0.74218,0.21484 -1.32812,0.50781 l -0.24088,-0.007 0.44921,-2.08984 q 0.57943,-0.19531 1.4388,-0.34505 0.86588,-0.15625 1.69271,-0.15625 0.83333,0 1.49088,0.13021 0.65755,0.1237 1.1263,0.3776 0.49479,0.26693 0.76171,0.67709 0.27344,0.41015 0.27344,1.02864 0,0.59245 -0.20833,1.04817 -0.20182,0.44922 -0.54688,0.7487 -0.33203,0.29297 -0.76171,0.48177 -0.42969,0.1888 -0.83984,0.27995 l -0.0195,0.0911 q 0.70964,0.11719 1.1849,0.56641 0.48177,0.44921 0.48177,1.16536 0,0.80729 -0.36459,1.47135 -0.36458,0.65755 -0.98307,1.10026 z"
     id="text1"
     aria-label="2 0 0 3" />
</svg>
