<?xml version="1.0" encoding="UTF-8"?>
<svg version="1.1" xmlns="http://www.w3.org/2000/svg" width="500" height="165">
<path d="M0 0 C3.01999999 0.12298959 6.01839375 0.18579555 9.03955078 0.20532227 C9.97618561 0.21522186 10.91282043 0.22512146 11.87783813 0.23532104 C14.98363693 0.26698922 18.08945104 0.29171448 21.1953125 0.31640625 C23.34480189 0.33697119 25.49428719 0.35796753 27.64376831 0.37937927 C33.30890601 0.4346475 38.97408049 0.48403581 44.63928223 0.53222656 C50.41710698 0.58240694 56.19487813 0.63811106 61.97265625 0.69335938 C73.31506014 0.80099906 84.6575094 0.90192085 96 1 C96 10.57 96 20.14 96 30 C53.43 30.495 53.43 30.495 10 31 C11.65 32.65 13.3 34.3 15 36 C17.46952775 39.52789679 17.16209613 42.78550064 17 47 C16.34 47 15.68 47 15 47 C14.80593522 48.64507218 14.61992065 50.29109594 14.4375 51.9375 C14.33308594 52.85402344 14.22867187 53.77054688 14.12109375 54.71484375 C14.08113281 55.46894531 14.04117187 56.22304687 14 57 C14.33 57.33 14.66 57.66 15 58 C15.3125 60.36328125 15.3125 60.36328125 15 63 C8.72495835 69.4348228 0.72403472 71.03794589 -7.875 71.3125 C-16.39261138 71.14086048 -23.10120725 68.95950276 -30.1171875 64.1875 C-31.98154493 63.01163971 -33.74958051 62.25956868 -35.8125 61.5 C-39.44302455 59.79151786 -40.58042498 58.72638442 -42 55 C-42 52.375 -42 52.375 -41 50 C-37.41170317 47.25600831 -33.15189466 45.72342797 -29 44 C-28.34 43.67 -27.68 43.34 -27 43 C-25.00039988 42.960008 -22.99952758 42.95653201 -21 43 C-21 42.34 -21 41.68 -21 41 C-22.32 41 -23.64 41 -25 41 C-25 40.01 -25 39.02 -25 38 C-25.5775 37.7525 -26.155 37.505 -26.75 37.25 C-29.32939979 35.81700012 -31.06121592 34.21575324 -33 32 C-33 31.34 -33 30.68 -33 30 C-43.23 30 -53.46 30 -64 30 C-58.340547 38.79177508 -58.340547 38.79177508 -50.25 45.0625 C-49.13625 45.5265625 -49.13625 45.5265625 -48 46 C-47.25 48.3125 -47.25 48.3125 -47 51 C-46.43473423 56.87681487 -42.87747507 59.52063993 -38.8359375 63.5 C-37 66 -37 66 -37.38525391 68.65625 C-37.58812012 69.4296875 -37.79098633 70.203125 -38 71 C-42.33331896 71.0292427 -46.66661221 71.04688017 -51 71.0625 C-52.22074219 71.07087891 -53.44148438 71.07925781 -54.69921875 71.08789062 C-71.82922535 71.13418794 -71.82922535 71.13418794 -75 68.0625 C-76 66 -76 66 -76 64 C-74.68 63.34 -73.36 62.68 -72 62 C-75.96 57.05 -75.96 57.05 -80 52 C-80.06058594 53.20398438 -80.12117188 54.40796875 -80.18359375 55.6484375 C-80.26799732 57.22397077 -80.35264541 58.79949096 -80.4375 60.375 C-80.49647461 61.56609375 -80.49647461 61.56609375 -80.55664062 62.78125 C-80.88671875 68.7734375 -80.88671875 68.7734375 -82 71 C-85.64581687 71.02887512 -89.29160463 71.04675585 -92.9375 71.0625 C-93.97841797 71.07087891 -95.01933594 71.07925781 -96.09179688 71.08789062 C-97.57583008 71.09272461 -97.57583008 71.09272461 -99.08984375 71.09765625 C-100.46450806 71.10551147 -100.46450806 71.10551147 -101.86694336 71.11352539 C-104 71 -104 71 -105 70 C-105.23363881 68.15108054 -105.41303635 66.29511969 -105.5625 64.4375 C-105.68818359 62.91962891 -105.68818359 62.91962891 -105.81640625 61.37109375 C-105.87699219 60.58863281 -105.93757813 59.80617187 -106 59 C-106.66 59 -107.32 59 -108 59 C-108 59.66 -108 60.32 -108 61 C-109.90625 62.62109375 -109.90625 62.62109375 -112.5 64.4375 C-113.3353125 65.03433594 -114.170625 65.63117188 -115.03125 66.24609375 C-121.71305408 70.19363326 -127.57992006 71.53152266 -135.3125 71.4375 C-136.14048096 71.43427734 -136.96846191 71.43105469 -137.8215332 71.42773438 C-144.42757439 71.27799314 -150.05862078 69.99071673 -156 67 C-156.33 68.32 -156.66 69.64 -157 71 C-164.92 71 -172.84 71 -181 71 C-184 65 -184 65 -184 63 C-188.95 63 -193.9 63 -199 63 C-199.33 61.35 -199.66 59.7 -200 58 C-200.99 58 -201.98 58 -203 58 C-203.12117187 58.60328125 -203.24234375 59.2065625 -203.3671875 59.828125 C-203.61855469 61.02695313 -203.61855469 61.02695313 -203.875 62.25 C-204.11863281 63.43335938 -204.11863281 63.43335938 -204.3671875 64.640625 C-205 67 -205 67 -207 71 C-218.55 71 -230.1 71 -242 71 C-243.19219354 68.61561291 -243.12916022 67.12343998 -243.1328125 64.46484375 C-243.13410156 63.57345703 -243.13539063 62.68207031 -243.13671875 61.76367188 C-243.13285156 60.83103516 -243.12898437 59.89839844 -243.125 58.9375 C-243.12886719 58.00099609 -243.13273438 57.06449219 -243.13671875 56.09960938 C-243.13478516 54.76446289 -243.13478516 54.76446289 -243.1328125 53.40234375 C-243.13168457 52.58241943 -243.13055664 51.76249512 -243.12939453 50.91772461 C-243 49 -243 49 -242 48 C-245.83968051 45.3428556 -248.66976147 44.56759552 -253.3125 44.3125 C-254.91544922 44.21388672 -254.91544922 44.21388672 -256.55078125 44.11328125 C-257.35902344 44.07589844 -258.16726563 44.03851563 -259 44 C-259 44.99 -259 45.98 -259 47 C-257.35 47.66 -255.7 48.32 -254 49 C-254.875 53.875 -254.875 53.875 -256 55 C-257.99958364 55.04080783 -260.00045254 55.04254356 -262 55 C-261.97679687 55.98742187 -261.95359375 56.97484375 -261.9296875 57.9921875 C-261.91164063 59.27351563 -261.89359375 60.55484375 -261.875 61.875 C-261.85179687 63.15117187 -261.82859375 64.42734375 -261.8046875 65.7421875 C-262 69 -262 69 -264 71 C-266.13891602 71.24291992 -266.13891602 71.24291992 -268.75390625 71.23046875 C-270.15866211 71.22756836 -270.15866211 71.22756836 -271.59179688 71.22460938 C-272.57212891 71.21236328 -273.55246094 71.20011719 -274.5625 71.1875 C-275.54669922 71.18685547 -276.53089844 71.18621094 -277.54492188 71.18554688 C-284.85982468 71.14017532 -284.85982468 71.14017532 -286 70 C-286.08669432 68.5112814 -286.10703494 67.018555 -286.09765625 65.52734375 C-286.09282227 64.17866211 -286.09282227 64.17866211 -286.08789062 62.80273438 C-286.07532227 61.38444336 -286.07532227 61.38444336 -286.0625 59.9375 C-286.05798828 58.98810547 -286.05347656 58.03871094 -286.04882812 57.06054688 C-286.0370011 54.70696935 -286.02052025 52.35351523 -286 50 C-285.01 49.67 -284.02 49.34 -283 49 C-283 42.73 -283 36.46 -283 30 C-319.63 30 -356.26 30 -394 30 C-394 20.43 -394 10.86 -394 1 C-357.7 1 -321.4 1 -284 1 C-283.67 0.01 -283.34 -0.98 -283 -2 C-279.70835171 -2.02895225 -276.41673601 -2.0467823 -273.125 -2.0625 C-272.18785156 -2.07087891 -271.25070312 -2.07925781 -270.28515625 -2.08789062 C-268.94130859 -2.09272461 -268.94130859 -2.09272461 -267.5703125 -2.09765625 C-266.32918701 -2.10551147 -266.32918701 -2.10551147 -265.06298828 -2.11352539 C-263 -2 -263 -2 -261 -1 C-261 -0.34 -261 0.32 -261 1 C-258.04081802 0.88641524 -255.08323217 0.75966914 -252.125 0.625 C-251.28324219 0.5940625 -250.44148437 0.563125 -249.57421875 0.53125 C-248.76855469 0.49257812 -247.96289062 0.45390625 -247.1328125 0.4140625 C-246.38918457 0.3826416 -245.64555664 0.3512207 -244.87939453 0.31884766 C-242.75989026 0.14580449 -242.75989026 0.14580449 -241 -2 C-238.75341797 -2.22705078 -238.75341797 -2.22705078 -235.9921875 -2.1953125 C-235.00605469 -2.18886719 -234.01992187 -2.18242188 -233.00390625 -2.17578125 C-231.45509766 -2.15064453 -231.45509766 -2.15064453 -229.875 -2.125 C-228.83472656 -2.11597656 -227.79445312 -2.10695313 -226.72265625 -2.09765625 C-224.14820908 -2.07403747 -221.57421788 -2.04110149 -219 -2 C-219 -1.01 -219 -0.02 -219 1 C-214.38 1 -209.76 1 -205 1 C-204.67 0.01 -204.34 -0.98 -204 -2 C-200.54173658 -2.05789006 -197.08359707 -2.09355821 -193.625 -2.125 C-192.64015625 -2.14175781 -191.6553125 -2.15851563 -190.640625 -2.17578125 C-189.69960937 -2.18222656 -188.75859375 -2.18867187 -187.7890625 -2.1953125 C-186.48509521 -2.21102295 -186.48509521 -2.21102295 -185.15478516 -2.22705078 C-183 -2 -183 -2 -181 0 C-178.7070982 0.31082151 -178.7070982 0.31082151 -176.0546875 0.265625 C-175.05953125 0.26820312 -174.064375 0.27078125 -173.0390625 0.2734375 C-171.99492187 0.26570313 -170.95078125 0.25796875 -169.875 0.25 C-168.8540625 0.25773437 -167.833125 0.26546875 -166.78125 0.2734375 C-162.28235871 0.26187223 -158.08407731 0.18302612 -153.7265625 -1 C-149.83062642 -2.04545035 -146.52425448 -2.26690863 -142.5 -2.25 C-140.65921875 -2.25773437 -140.65921875 -2.25773437 -138.78125 -2.265625 C-135.40086818 -2.02816016 -132.49471928 -1.36213662 -129.24023438 -0.4765625 C-124.72390197 0.48419174 -120.10178192 0.48006199 -115.5 0.625 C-113.98019531 0.68300781 -113.98019531 0.68300781 -112.4296875 0.7421875 C-109.95329716 0.83563619 -107.47689849 0.92139873 -105 1 C-104.67 0.01 -104.34 -0.98 -104 -2 C-100.54173658 -2.05789006 -97.08359707 -2.09355821 -93.625 -2.125 C-92.64015625 -2.14175781 -91.6553125 -2.15851563 -90.640625 -2.17578125 C-89.69960938 -2.18222656 -88.75859375 -2.18867187 -87.7890625 -2.1953125 C-86.48509521 -2.21102295 -86.48509521 -2.21102295 -85.15478516 -2.22705078 C-83 -2 -83 -2 -81 0 C-78.17129751 0.31991706 -78.17129751 0.31991706 -75 0.25 C-73.9275 0.25515625 -72.855 0.2603125 -71.75 0.265625 C-68.85637822 0.28027649 -68.85637822 0.28027649 -67 -2 C-64.38623047 -2.22705078 -64.38623047 -2.22705078 -61.1171875 -2.1953125 C-59.36728516 -2.18564453 -59.36728516 -2.18564453 -57.58203125 -2.17578125 C-56.35871094 -2.15902344 -55.13539063 -2.14226562 -53.875 -2.125 C-52.64394531 -2.11597656 -51.41289062 -2.10695313 -50.14453125 -2.09765625 C-47.09616185 -2.07402548 -44.04817618 -2.04108054 -41 -2 C-41 -1.01 -41 -0.02 -41 1 C-38.74943278 0.88566637 -36.49953326 0.75813564 -34.25 0.625 C-32.99703125 0.55539063 -31.7440625 0.48578125 -30.453125 0.4140625 C-27.31882259 0.03822986 -25.67047191 -0.47232427 -23 -2 C-15.76157183 -3.57929342 -6.72920558 -3.36460279 0 0 Z M-203 3 C-203.80424016 4.8559868 -203.80424016 4.8559868 -204.0546875 7.0390625 C-204.96078653 12.01165432 -206.45741921 16.61162328 -208.125 21.375 C-208.67346111 22.94385388 -209.21791449 24.51411619 -209.7578125 26.0859375 C-209.9964502 26.7670459 -210.23508789 27.4481543 -210.48095703 28.14990234 C-211.13506001 30.16115879 -211.13506001 30.16115879 -211 33 C-213.31 33 -215.62 33 -218 33 C-217.34 33.33 -216.68 33.66 -216 34 C-216.99 36.64 -217.98 39.28 -219 42 C-219.33 42 -219.66 42 -220 42 C-220.04898438 40.79601562 -220.09796875 39.59203125 -220.1484375 38.3515625 C-220.22346343 36.77601802 -220.29901133 35.20049834 -220.375 33.625 C-220.4059375 32.8309375 -220.436875 32.036875 -220.46875 31.21875 C-220.51816421 26.63332625 -220.51816421 26.63332625 -223 23 C-225.65537372 22.43479997 -228.29144713 22.26211802 -231 22 C-231 21.34 -231 20.68 -231 20 C-228.36 20 -225.72 20 -223 20 C-223 14.06 -223 8.12 -223 2 C-228.28 2 -233.56 2 -239 2 C-239 8.27 -239 14.54 -239 21 C-241.64 21 -244.28 21 -247 21 C-247 21.33 -247 21.66 -247 22 C-244.36 22 -241.72 22 -239 22 C-239 22.66 -239 23.32 -239 24 C-238.34 24 -237.68 24 -237 24 C-237 25.32 -237 26.64 -237 28 C-245.58 28 -254.16 28 -263 28 C-263.495 25.525 -263.495 25.525 -264 23 C-265.4579186 21.20614008 -265.4579186 21.20614008 -267 20 C-266.01 20 -265.02 20 -264 20 C-264 14.06 -264 8.12 -264 2 C-269.61 2 -275.22 2 -281 2 C-281 8.27 -281 14.54 -281 21 C-281.99 21.33 -282.98 21.66 -284 22 C-283.01 22 -282.02 22 -281 22 C-280.67 31.24 -280.34 40.48 -280 50 C-278.35 50 -276.7 50 -275 50 C-275 50.66 -275 51.32 -275 52 C-277.64 52 -280.28 52 -283 52 C-283 56.95 -283 61.9 -283 67 C-277.39 67 -271.78 67 -266 67 C-266 61.72 -266 56.44 -266 51 C-265.01 51 -264.02 51 -263 51 C-263 47.7 -263 44.4 -263 41 C-258.91668161 40.97096108 -254.8333898 40.95318811 -250.75 40.9375 C-249.01169922 40.92493164 -249.01169922 40.92493164 -247.23828125 40.91210938 C-246.12324219 40.90888672 -245.00820312 40.90566406 -243.859375 40.90234375 C-242.31975098 40.89448853 -242.31975098 40.89448853 -240.74902344 40.88647461 C-238.32374344 40.98663049 -236.31302639 41.30076922 -234 42 C-234.9590625 43.11375 -234.9590625 43.11375 -235.9375 44.25 C-239.49021869 48.98695826 -239.12861867 53.49258991 -239.0625 59.25 C-239.05798828 59.99507812 -239.05347656 60.74015625 -239.04882812 61.5078125 C-239.03709246 63.3385764 -239.0191585 65.16929873 -239 67 C-229.33456945 68.1922117 -219.71824449 68.09622024 -210 68 C-207.70954986 63.18790099 -207.70954986 63.18790099 -207 58 C-208.65 58 -210.3 58 -212 58 C-211.505 57.01 -211.505 57.01 -211 56 C-208.20826945 55.97309896 -205.41679652 55.95320947 -202.625 55.9375 C-201.8309375 55.92912109 -201.036875 55.92074219 -200.21875 55.91210938 C-194.2265625 55.88671875 -194.2265625 55.88671875 -192 57 C-192 56.34 -192 55.68 -192 55 C-191.46375 55.33 -190.9275 55.66 -190.375 56 C-187.4608939 57.22699204 -185.13132292 57.14233286 -182 57 C-181.01 60.63 -180.02 64.26 -179 68 C-173.06 68 -167.12 68 -161 68 C-162.20678321 61.63133581 -162.20678321 61.63133581 -164 60 C-166.53049402 59.92686433 -169.03304837 59.90752473 -171.5625 59.9375 C-172.27341797 59.94201172 -172.98433594 59.94652344 -173.71679688 59.95117188 C-175.47790013 59.96299136 -177.23896036 59.98092737 -179 60 C-179 59.34 -179 58.68 -179 58 C-176.03 58 -173.06 58 -170 58 C-170.33 56.35 -170.66 54.7 -171 53 C-165.35542289 54.21745781 -163.01039738 55.68882281 -159 60 C-151.65645623 66.62473129 -142.41551903 68.61356475 -132.6953125 68.28125 C-124.31127102 67.4063935 -118.34497412 64.47652794 -112 59 C-112.66 58.67 -113.32 58.34 -114 58 C-114 57.34 -114 56.68 -114 56 C-113.236875 56.0825 -112.47375 56.165 -111.6875 56.25 C-110.800625 56.1675 -109.91375 56.085 -109 56 C-107.95374591 54.70264493 -106.95298777 53.36733028 -106 52 C-104.68 51.67 -103.36 51.34 -102 51 C-102 56.61 -102 62.22 -102 68 C-96.39 68 -90.78 68 -85 68 C-85 61.07 -85 54.14 -85 47 C-84.01 46.67 -83.02 46.34 -82 46 C-81.67 45.34 -81.34 44.68 -81 44 C-80 42 -80 42 -77 41 C-77.20625 41.598125 -77.4125 42.19625 -77.625 42.8125 C-78.30671915 45.28450846 -78.30671915 45.28450846 -76 48 C-73.41619823 48.25030977 -73.41619823 48.25030977 -71 48 C-71 48.66 -71 49.32 -71 50 C-72.65 50 -74.3 50 -76 50 C-69.85992231 59.73340094 -69.85992231 59.73340094 -62 68 C-59.87826415 68.41121443 -59.87826415 68.41121443 -57.55078125 68.29296875 C-56.70322266 68.28330078 -55.85566406 68.27363281 -54.98242188 68.26367188 C-54.10134766 68.23853516 -53.22027344 68.21339844 -52.3125 68.1875 C-51.41982422 68.17396484 -50.52714844 68.16042969 -49.60742188 68.14648438 C-47.40433834 68.11114079 -45.20247418 68.06180493 -43 68 C-43.8679856 63.49804803 -46.47196671 60.78738449 -49.4375 57.4375 C-54.82188065 51.26717902 -54.82188065 51.26717902 -57 48 C-56.67 47.34 -56.34 46.68 -56 46 C-56.99 46 -57.98 46 -59 46 C-59.08121094 45.44828125 -59.16242188 44.8965625 -59.24609375 44.328125 C-60.25262129 41.21988451 -61.98359728 39.25788265 -64.0625 36.75 C-64.79597656 35.85796875 -65.52945313 34.9659375 -66.28515625 34.046875 C-66.85105469 33.37140625 -67.41695312 32.6959375 -68 32 C-66.58208437 29.06553114 -65.01667393 26.56667591 -63 24 C-64.65 24 -66.3 24 -68 24 C-68 23.34 -68 22.68 -68 22 C-66.948125 22.12375 -65.89625 22.2475 -64.8125 22.375 C-60.6369525 21.96697841 -60.6369525 21.96697841 -58.0625 19.125 C-55.81638593 16.34584127 -55.81638593 16.34584127 -56 14 C-54.20379196 12.08423915 -52.39247476 10.25325281 -50.5 8.4375 C-48.64466927 6.64370972 -46.8148667 4.83549019 -45 3 C-45 2.67 -45 2.34 -45 2 C-56.8423099 0.35615967 -56.8423099 0.35615967 -68.05810547 3.14550781 C-72.282007 6.65894557 -75.54713579 11.09427157 -78 16 C-77.34 16 -76.68 16 -76 16 C-76.60183749 18.02045442 -77.27306096 20.02111039 -78 22 C-78.66 22.33 -79.32 22.66 -80 23 C-80.99 19.535 -80.99 19.535 -82 16 C-82.99 16 -83.98 16 -85 16 C-85 11.38 -85 6.76 -85 2 C-90.61 2 -96.22 2 -102 2 C-102 6.62 -102 11.24 -102 16 C-100.68 16 -99.36 16 -98 16 C-98.33 26.23 -98.66 36.46 -99 47 C-99.99 47.33 -100.98 47.66 -102 48 C-102 48.66 -102 49.32 -102 50 C-106.27933368 48.65914211 -110.33611129 47.35073366 -114.3125 45.25 C-116.85669964 43.81055709 -116.85669964 43.81055709 -119.3125 44.125 C-121.36770343 44.94205557 -121.36770343 44.94205557 -122 48 C-122 48.66 -122 49.32 -122 50 C-130.5879787 53.09634606 -136.5900005 55.138254 -145.1796875 51.10546875 C-147 50 -147 50 -148 48 C-147.34 47.67 -146.68 47.34 -146 47 C-146.45375 46.154375 -146.9075 45.30875 -147.375 44.4375 C-149.02858414 40.93953355 -150.03009521 37.73040305 -151 34 C-152.65 34 -154.3 34 -156 34 C-156 33.34 -156 32.68 -156 32 C-154.02 32 -152.04 32 -150 32 C-149.566875 30.783125 -149.13375 29.56625 -148.6875 28.3125 C-147.70971985 25.66921873 -146.72858542 23.55410462 -145.25 21.125 C-144.8375 20.42375 -144.425 19.7225 -144 19 C-144.33 18.34 -144.66 17.68 -145 17 C-139.63625584 15.49913581 -133.92079883 14.7727736 -128.67578125 16.9765625 C-125.08396797 19.14094537 -122.17384872 21.33163029 -120 25 C-116.2397015 24.41892368 -113.46964968 23.34800504 -110.1875 21.4375 C-109.00220703 20.75494141 -109.00220703 20.75494141 -107.79296875 20.05859375 C-106.90544922 19.53458984 -106.90544922 19.53458984 -106 19 C-107.34544459 13.45004105 -111.36380111 10.01147786 -116 7 C-119.60037163 6.27983131 -119.60037163 6.27983131 -121.9375 6.23828125 C-124.42638602 5.95073949 -126.1933664 5.10258648 -128.4375 4 C-137.2760907 -0.12567947 -145.63268978 0.92511652 -155 3 C-156.68262381 3.62529939 -158.35628669 4.27859249 -160 5 C-158.68 5.33 -157.36 5.66 -156 6 C-156 6.66 -156 7.32 -156 8 C-156.88945312 8.38285156 -156.88945312 8.38285156 -157.796875 8.7734375 C-160.21224538 10.11816498 -161.51211706 11.49214367 -163.25 13.625 C-164.03117187 14.57246094 -164.03117187 14.57246094 -164.828125 15.5390625 C-165.21484375 16.02117187 -165.6015625 16.50328125 -166 17 C-164.515 17.495 -164.515 17.495 -163 18 C-163.474375 19.051875 -163.94875 20.10375 -164.4375 21.1875 C-168.50067161 30.78961782 -167.3835853 39.35275381 -164 49 C-165.32 49 -166.64 49 -168 49 C-168.19335938 48.24074219 -168.38671875 47.48148438 -168.5859375 46.69921875 C-168.97652344 45.20841797 -168.97652344 45.20841797 -169.375 43.6875 C-169.75785156 42.20830078 -169.75785156 42.20830078 -170.1484375 40.69921875 C-170.91913174 37.8194184 -170.91913174 37.8194184 -173 35 C-173.99 35 -174.98 35 -176 35 C-176 34.01 -176 33.02 -176 32 C-174.02 32.33 -172.04 32.66 -170 33 C-171.05919415 29.70006543 -172.15134788 26.41198776 -173.25 23.125 C-173.70052734 21.71927734 -173.70052734 21.71927734 -174.16015625 20.28515625 C-174.46308594 19.38925781 -174.76601562 18.49335937 -175.078125 17.5703125 C-175.35043945 16.74289551 -175.62275391 15.91547852 -175.90332031 15.06298828 C-177.24573651 12.53773965 -178.43830651 12.12888188 -181 11 C-182.265625 8.6171875 -182.265625 8.6171875 -183.25 5.875 C-183.75273437 4.50988281 -183.75273437 4.50988281 -184.265625 3.1171875 C-184.50796875 2.41851562 -184.7503125 1.71984375 -185 1 C-187.24973447 0.945862 -189.49984383 0.90714509 -191.75 0.875 C-193.00296875 0.85179688 -194.2559375 0.82859375 -195.546875 0.8046875 C-198.85989812 0.99207569 -200.30911318 1.19613288 -203 3 Z M-24 2 C-24.33 3.32 -24.66 4.64 -25 6 C-26.0828125 6.061875 -26.0828125 6.061875 -27.1875 6.125 C-31.03065783 7.3206491 -33.05864669 9.58563542 -35 13 C-35.88005337 16.72697218 -35.88005337 16.72697218 -36 20 C-32.535 21.98 -32.535 21.98 -29 24 C-29.66 24.33 -30.32 24.66 -31 25 C-30.42141121 28.9054743 -28.73020952 31.19600103 -26 34 C-24.01200182 34.70164642 -22.01301483 35.37372872 -20 36 C-19.67 36.99 -19.34 37.98 -19 39 C-15.04 39.66 -11.08 40.32 -7 41 C-7 41.66 -7 42.32 -7 43 C-6.34 43.33 -5.68 43.66 -5 44 C-5.33 44.33 -5.66 44.66 -6 45 C-6.103125 46.134375 -6.20625 47.26875 -6.3125 48.4375 C-7 52 -7 52 -8.6875 53.5 C-11.75313592 54.1628402 -13.97339983 53.77274898 -17 53 C-20.16605307 50.88929795 -21.19587357 49.26460973 -23 46 C-26.54243452 47.36591169 -29.92627929 48.90931484 -33.3125 50.625 C-34.19550781 51.07101563 -35.07851563 51.51703125 -35.98828125 51.9765625 C-36.65214844 52.31429687 -37.31601562 52.65203125 -38 53 C-36.9602329 56.61780456 -36.9602329 56.61780456 -34.265625 59.00390625 C-33.60046875 59.18824219 -32.9353125 59.37257812 -32.25 59.5625 C-28.32830957 60.80837999 -25.42124367 62.69437926 -22 65 C-17.39325797 66.8788019 -13.11799392 67.38615098 -8.1875 67.375 C-7.13453735 67.37367065 -7.13453735 67.37367065 -6.06030273 67.37231445 C-0.54121797 67.24680831 4.55002655 66.4559534 9 63 C9.33 62.01 9.66 61.02 10 60 C9.34 60 8.68 60 8 60 C8.495 58.845 8.99 57.69 9.5 56.5 C11.15562957 52.14717108 11.24775605 48.62477967 11 44 C11.66 43.67 12.32 43.34 13 43 C12.67 42.01 12.34 41.02 12 40 C11.01 39.67 10.02 39.34 9 39 C8.67 38.34 8.34 37.68 8 37 C8.66 36.67 9.32 36.34 10 36 C4.50275063 31.16707079 -1.03332322 28.60910521 -7.94921875 26.2734375 C-11.16095764 24.9328141 -13.31043598 23.17181149 -16 21 C-16.99 21 -17.98 21 -19 21 C-18.34 19.02 -17.68 17.04 -17 15 C-9.73846154 14.50769231 -9.73846154 14.50769231 -6 17 C-5.34 17.66 -4.68 18.32 -4 19 C-1.00779732 17.63629701 1.29026529 16.05091917 3.75 13.875 C4.36359375 13.33617187 4.9771875 12.79734375 5.609375 12.2421875 C6.06828125 11.83226563 6.5271875 11.42234375 7 11 C5.04096473 7.1671049 3.42823384 4.77336818 -0.625 3.125 C-8.08943248 0.97252453 -16.31453693 1.77615156 -24 2 Z M12 6 C11.95919217 7.99958364 11.95745644 10.00045254 12 12 C12.33 12 12.66 12 13 12 C13.33 10.35 13.66 8.7 14 7 C14.99 6.67 15.98 6.34 17 6 C17.33 7.32 17.66 8.64 18 10 C18.33 8.35 18.66 6.7 19 5 C15.19378955 4.56152641 15.19378955 4.56152641 12 6 Z M34 5 C33.93941406 5.79664062 33.87882812 6.59328125 33.81640625 7.4140625 C32.98418278 17.93848858 32.98418278 17.93848858 32 23 C32.66 23 33.32 23 34 23 C34.30744141 21.30230469 34.30744141 21.30230469 34.62109375 19.5703125 C34.89306972 18.08851239 35.16521387 16.60674315 35.4375 15.125 C35.57220703 14.37863281 35.70691406 13.63226563 35.84570312 12.86328125 C36.88671875 7.2265625 36.88671875 7.2265625 38 5 C36.68 5 35.36 5 34 5 Z M78 5 C77.67 7.64 77.34 10.28 77 13 C77.66 13 78.32 13 79 13 C78.95875 14.11375 78.9175 15.2275 78.875 16.375 C78.58878141 20.04366025 78.58878141 20.04366025 81 22 C82.87543354 18.13236554 82.87543354 18.13236554 82 14 C82 14.66 82 15.32 82 16 C81.34 16 80.68 16 80 16 C80 12.37 80 8.74 80 5 C79.34 5 78.68 5 78 5 Z M86 5 C85.01 7.97 84.02 10.94 83 14 C84.32 14 85.64 14 87 14 C87.33 11.03 87.66 8.06 88 5 C87.34 5 86.68 5 86 5 Z M-383 6 C-382.67 7.32 -382.34 8.64 -382 10 C-382 9.01 -382 8.02 -382 7 C-381.01 6.67 -380.02 6.34 -379 6 C-380.32 6 -381.64 6 -383 6 Z M-359 6 C-360.32 11.94 -361.64 17.88 -363 24 C-362.34 24 -361.68 24 -361 24 C-360.34 20.37 -359.68 16.74 -359 13 C-358.34 13 -357.68 13 -357 13 C-357.33 10.69 -357.66 8.38 -358 6 C-358.33 6 -358.66 6 -359 6 Z M-354 6 C-354.33 9.3 -354.66 12.6 -355 16 C-355.66 16 -356.32 16 -357 16 C-357 18.64 -357 21.28 -357 24 C-356.34 24 -355.68 24 -355 24 C-354.01 18.06 -353.02 12.12 -352 6 C-352.66 6 -353.32 6 -354 6 Z M-334 6 C-333.67 6.66 -333.34 7.32 -333 8 C-333.24948468 9.78080441 -333.57293915 11.55164727 -333.9375 13.3125 C-334.68835891 16.95739789 -335.11532428 20.27570413 -335 24 C-332.01708988 18.88643979 -330.63155165 12.89517358 -331 7 C-330.34 6.67 -329.68 6.34 -329 6 C-330.65 6 -332.3 6 -334 6 Z M-309 6 C-309 7.65 -309 9.3 -309 11 C-308.896875 10.360625 -308.79375 9.72125 -308.6875 9.0625 C-308.460625 8.381875 -308.23375 7.70125 -308 7 C-307.01 6.67 -306.02 6.34 -305 6 C-306.32 6 -307.64 6 -309 6 Z M-260 6 C-259.67 6.66 -259.34 7.32 -259 8 C-259.08811445 10.21138855 -259.2429784 12.42042185 -259.4375 14.625 C-259.53933594 15.81351563 -259.64117187 17.00203125 -259.74609375 18.2265625 C-259.82988281 19.14179687 -259.91367187 20.05703125 -260 21 C-259.67 21 -259.34 21 -259 21 C-258.87882813 20.00097656 -258.75765625 19.00195312 -258.6328125 17.97265625 C-258.46523438 16.68230469 -258.29765625 15.39195313 -258.125 14.0625 C-257.88136719 12.13083984 -257.88136719 12.13083984 -257.6328125 10.16015625 C-257.31957031 8.59587891 -257.31957031 8.59587891 -257 7 C-256.34 6.67 -255.68 6.34 -255 6 C-256.65 6 -258.3 6 -260 6 Z M-209 6 C-208 9 -208 9 -208 9 Z M56 6 C56 7.65 56 9.3 56 11 C56.33 11 56.66 11 57 11 C57 9.35 57 7.7 57 6 C56.67 6 56.34 6 56 6 Z M-285 7 C-285 8.65 -285 10.3 -285 12 C-284.67 12 -284.34 12 -284 12 C-284 10.35 -284 8.7 -284 7 C-284.33 7 -284.66 7 -285 7 Z M-384 10 C-384 11.65 -384 13.3 -384 15 C-383.01 14.67 -382.02 14.34 -381 14 C-381.66 14 -382.32 14 -383 14 C-383.33 12.68 -383.66 11.36 -384 10 Z M-310 11 C-310 12.65 -310 14.3 -310 16 C-309.01 15.34 -308.02 14.68 -307 14 C-307.66 14 -308.32 14 -309 14 C-309.33 13.01 -309.66 12.02 -310 11 Z M-210 11 C-210 12.65 -210 14.3 -210 16 C-209.67 16 -209.34 16 -209 16 C-209 14.35 -209 12.7 -209 11 C-209.33 11 -209.66 11 -210 11 Z M55 11 C54.34 14.96 53.68 18.92 53 23 C54.32 22.67 55.64 22.34 57 22 C56.34 22 55.68 22 55 22 C55.33 18.37 55.66 14.74 56 11 C55.67 11 55.34 11 55 11 Z M-286 12 C-286 13.65 -286 15.3 -286 17 C-285.34 16.01 -284.68 15.02 -284 14 C-284.66 13.34 -285.32 12.68 -286 12 Z M14 13 C15 15 15 15 15 15 Z M76 13 C75.34 16.3 74.68 19.6 74 23 C74.66 23 75.32 23 76 23 C77.1577506 19.52674819 77.06866652 16.63932552 77 13 C76.67 13 76.34 13 76 13 Z M-385 15 C-385.33 17.97 -385.66 20.94 -386 24 C-384.68 23.67 -383.36 23.34 -382 23 C-382.99 23 -383.98 23 -385 23 C-384.67 22.34 -384.34 21.68 -384 21 C-383.960008 19.00039988 -383.95653201 16.99952758 -384 15 C-384.33 15 -384.66 15 -385 15 Z M15 15 C16 17 16 17 16 17 Z M85 15 C85 16.65 85 18.3 85 20 C85.33 20 85.66 20 86 20 C86 18.35 86 16.7 86 15 C85.67 15 85.34 15 85 15 Z M-311 16 C-311.33 18.64 -311.66 21.28 -312 24 C-310.68 23.67 -309.36 23.34 -308 23 C-308.66 23 -309.32 23 -310 23 C-310 20.69 -310 18.38 -310 16 C-310.33 16 -310.66 16 -311 16 Z M-211 17 C-210 19 -210 19 -210 19 Z M-13 17 C-13 17.66 -13 18.32 -13 19 C-12.34 18.67 -11.68 18.34 -11 18 C-11.66 17.67 -12.32 17.34 -13 17 Z M10 18 C10 19.65 10 21.3 10 23 C10.66 22.67 11.32 22.34 12 22 C11.34 20.68 10.68 19.36 10 18 Z M-130 20 C-130 21.32 -130 22.64 -130 24 C-128.68 23.67 -127.36 23.34 -126 23 C-126.99 23 -127.98 23 -129 23 C-129.33 22.01 -129.66 21.02 -130 20 Z M15 20 C16 22 16 22 16 22 Z M84 21 C85 23 85 23 85 23 Z M-147 31 C-147.61261534 37.0036303 -146.13750133 41.01893037 -143 46 C-142.34 46.66 -141.68 47.32 -141 48 C-137.69316534 47.71016731 -137.69316534 47.71016731 -135 46 C-132.5625 45.75 -132.5625 45.75 -130 46 C-129.34 46.99 -128.68 47.98 -128 49 C-127.34 49 -126.68 49 -126 49 C-125.525625 48.030625 -125.05125 47.06125 -124.5625 46.0625 C-123 43 -123 43 -122 42 C-116.6819425 41.58289745 -113.63554844 42.47151903 -109 45 C-108.01 45 -107.02 45 -106 45 C-105.67 44.01 -105.34 43.02 -105 42 C-104.01 41.67 -103.02 41.34 -102 41 C-102 37.37 -102 33.74 -102 30 C-108.24796254 29.97535545 -114.49589703 29.95716657 -120.74389648 29.94506836 C-122.87118014 29.94002702 -124.99846031 29.93319409 -127.12573242 29.92456055 C-130.17627826 29.91248621 -133.22677845 29.90676986 -136.27734375 29.90234375 C-137.23462875 29.89718246 -138.19191376 29.89202118 -139.1782074 29.88670349 C-140.49946373 29.88659019 -140.49946373 29.88659019 -141.84741211 29.88647461 C-142.62684677 29.884254 -143.40628143 29.88203339 -144.20933533 29.87974548 C-146.02366535 29.80428614 -146.02366535 29.80428614 -147 31 Z M-18 46 C-17.67 47.32 -17.34 48.64 -17 50 C-14.03 50.495 -14.03 50.495 -11 51 C-10.34 49.68 -9.68 48.36 -9 47 C-12.1964086 45.93453047 -14.65747276 45.92572162 -18 46 Z " fill="#FFFFFF" transform="translate(394,94)"/>
<path d="M0 0 C4.29 0 8.58 0 13 0 C13.57468085 4.12538751 14.14595648 8.2509735 14.70898438 12.37792969 C14.90106702 13.77858603 15.09503873 15.17898478 15.29101562 16.57910156 C17.29285134 30.898355 17.29285134 30.898355 17 38 C17.66 38 18.32 38 19 38 C19.06368774 37.055802 19.06368774 37.055802 19.12866211 36.0925293 C19.74327328 28.21769047 21.07077879 20.5636004 22.5625 12.8125 C22.91344727 10.9552832 22.91344727 10.9552832 23.27148438 9.06054688 C23.84303627 6.03948687 24.42086633 3.01961575 25 0 C29.95 0 34.9 0 40 0 C37.26770113 16.60397008 34.2521784 33.12796872 30.9375 49.625 C30.77209717 50.44919434 30.60669434 51.27338867 30.4362793 52.12255859 C28.02879321 64.09679101 25.53254069 76.05164593 23 88 C19.04 88 15.08 88 11 88 C9.72355243 84.1706573 9.54238772 80.39209392 9.24609375 76.39453125 C9.14833397 75.13572395 9.14833397 75.13572395 9.04859924 73.85148621 C8.84133796 71.17208429 8.63935612 68.49231401 8.4375 65.8125 C8.29787365 63.99541596 8.15790387 62.17835828 8.01757812 60.36132812 C7.67440019 55.90784805 7.33595646 51.45403042 7 47 C6.6443396 48.64983887 6.6443396 48.64983887 6.28149414 50.33300781 C5.40064156 54.4182736 4.5189311 58.50335384 3.63696289 62.58837891 C3.25554419 64.35558106 2.87435737 66.12283329 2.4934082 67.89013672 C1.94543609 70.43209862 1.39662714 72.97387863 0.84765625 75.515625 C0.6778273 76.30430969 0.50799835 77.09299438 0.33302307 77.90557861 C-0.39764338 81.28512639 -1.16128648 84.64514591 -2 88 C-6.62 88 -11.24 88 -16 88 C-15.30518952 79.29661237 -13.76496356 70.81079777 -12.12890625 62.24609375 C-11.84333095 60.73501256 -11.55809451 59.2238673 -11.2731781 57.71266174 C-10.67813373 54.56127725 -10.08031516 51.41043719 -9.48022461 48.26000977 C-8.7153469 44.2442491 -7.95546317 40.22756496 -7.19741917 36.2105093 C-6.60930252 33.0951165 -6.01953522 29.98003814 -5.42918205 26.86506844 C-5.14866379 25.38490925 -4.86841117 23.90469969 -4.58844185 22.42443657 C-3.16808732 14.92361038 -1.71502452 7.44002072 0 0 Z " fill="#FFFFFF" transform="translate(282,0)"/>
<path d="M0 0 C9.27734375 -0.09765625 9.27734375 -0.09765625 12 0 C13.96387341 1.96387341 13.63841819 5.5866233 13.9375 8.28125 C14.02249756 9.00993286 14.10749512 9.73861572 14.19506836 10.48937988 C14.55998475 13.61898196 14.91473722 16.74971834 15.27050781 19.88037109 C15.53103792 22.1602464 15.79663484 24.43949173 16.0625 26.71875 C16.14169678 27.43228638 16.22089355 28.14582275 16.30249023 28.88098145 C16.44365031 32.23026536 16.44365031 32.23026536 18 35 C18.26478149 33.62279785 18.26478149 33.62279785 18.53491211 32.21777344 C19.19190897 28.8033774 19.84989391 25.38917483 20.50854492 21.97509766 C20.79311971 20.49893679 21.07730331 19.02270045 21.36108398 17.54638672 C21.76963511 15.42134845 22.17960379 13.2965878 22.58984375 11.171875 C22.83597412 9.8940918 23.08210449 8.61630859 23.33569336 7.29980469 C23.82823992 4.85318239 24.39470169 2.42119325 25 0 C29.62 0 34.24 0 39 0 C38.29607524 8.78270785 36.75279489 17.35895628 35.12890625 26.0078125 C34.84337261 27.54371832 34.5581353 29.07967926 34.2731781 30.61569214 C33.67811868 33.81834028 33.08026271 37.02044897 32.48022461 40.22216797 C31.71472228 44.30742791 30.95509615 48.39375298 30.19741917 52.48047066 C29.60996048 55.6465546 29.01997449 58.8121634 28.42918205 61.9776268 C28.14829215 63.48366391 27.86803322 64.98981885 27.58844185 66.49609756 C24.9096096 80.90913226 24.9096096 80.90913226 23 88 C18.71 88 14.42 88 10 88 C9.91435791 86.93040039 9.82871582 85.86080078 9.74047852 84.75878906 C9.42142599 80.78520422 9.09797059 76.81198789 8.77319336 72.83886719 C8.63332186 71.1202144 8.49463974 69.40146437 8.35717773 67.68261719 C8.15922704 65.21002008 7.95698206 62.73780581 7.75390625 60.265625 C7.6934462 59.49881409 7.63298615 58.73200317 7.57069397 57.94195557 C7.28368202 54.49492108 6.84211447 51.36845787 6 48 C3.36 61.2 0.72 74.4 -2 88 C-6.95 88 -11.9 88 -17 88 C-14.13462768 70.44779465 -10.87614294 52.99824538 -7.375 35.5625 C-7.08461349 34.11479721 -7.08461349 34.11479721 -6.7883606 32.6378479 C-4.59943676 21.74230099 -2.36746364 10.85835243 0 0 Z " fill="#FFFFFF" transform="translate(383,0)"/>
<path d="M0 0 C4.29 0 8.58 0 13 0 C13.11593506 0.98919434 13.23187012 1.97838867 13.35131836 2.99755859 C13.78178654 6.66191091 14.2171697 10.32566524 14.65405273 13.98925781 C14.84257322 15.57601254 15.0297542 17.162927 15.21557617 18.75 C15.48265561 21.02907786 15.7545217 23.30754086 16.02734375 25.5859375 C16.10967758 26.29744965 16.19201141 27.00896179 16.27684021 27.74203491 C16.70109337 31.49095603 16.70109337 31.49095603 18 35 C18.26478149 33.56950317 18.26478149 33.56950317 18.53491211 32.11010742 C19.19064035 28.57064368 19.84916971 25.03170591 20.50854492 21.49291992 C20.79348918 19.96148646 21.07767446 18.42991158 21.36108398 16.89819336 C21.7686722 14.6960749 22.17899064 12.4944801 22.58984375 10.29296875 C22.77896584 9.26625313 22.77896584 9.26625313 22.97190857 8.21879578 C23.50138969 5.39411915 24.08960396 2.73118811 25 0 C29.62 0 34.24 0 39 0 C38.41788327 7.57794001 37.3982376 14.8718636 35.890625 22.31640625 C35.57963364 23.88788925 35.57963364 23.88788925 35.26235962 25.49111938 C34.59670647 28.84929023 33.92339525 32.20587401 33.25 35.5625 C32.79252003 37.86421774 32.33565281 40.16605736 31.87939453 42.46801758 C30.98897015 46.95922048 30.09635311 51.44997805 29.20214844 55.94042969 C27.72905387 63.35030582 26.29321319 70.76693367 24.875 78.1875 C24.67551758 79.22914307 24.47603516 80.27078613 24.27050781 81.34399414 C23.84607034 83.56248411 23.42283958 85.78120492 23 88 C18.71 88 14.42 88 10 88 C9.91435791 86.92516357 9.82871582 85.85032715 9.74047852 84.74291992 C9.42183088 80.75628146 9.09825804 76.77005547 8.77319336 72.78393555 C8.63317579 71.05845828 8.49449525 69.33287198 8.35717773 67.60717773 C8.15960231 65.1271425 7.95722644 62.64753879 7.75390625 60.16796875 C7.66321617 59.01001045 7.66321617 59.01001045 7.57069397 57.82865906 C7.31092937 54.70854013 6.99432303 51.9829691 6 49 C5.68977905 50.61225464 5.68977905 50.61225464 5.37329102 52.25708008 C4.60563517 56.2438031 3.83532424 60.23000924 3.06420898 64.21606445 C2.73080124 65.94151037 2.39811424 67.66709572 2.06616211 69.39282227 C1.58897163 71.87292882 1.10919368 74.35252283 0.62890625 76.83203125 C0.48095108 77.60400345 0.33299591 78.37597565 0.18055725 79.17134094 C-0.40619111 82.18958195 -1.02642666 85.07927998 -2 88 C-6.95 88 -11.9 88 -17 88 C-15.52584078 79.92152298 -14.04828223 71.84368812 -12.56524372 63.76683712 C-11.87622265 60.01361972 -11.1885131 56.26017335 -10.50415039 52.50610352 C-7.29984092 34.93459375 -3.95724831 17.42142274 0 0 Z " fill="#FFFFFF" transform="translate(222,0)"/>
<path d="M0 0 C1.19173828 -0.00386719 2.38347656 -0.00773438 3.61132812 -0.01171875 C4.85205078 -0.00011719 6.09277344 0.01148437 7.37109375 0.0234375 C8.61568359 0.01183594 9.86027344 0.00023438 11.14257812 -0.01171875 C12.92825195 -0.00591797 12.92825195 -0.00591797 14.75 0 C15.83998291 0.00338379 16.92996582 0.00676758 18.05297852 0.01025391 C20.80859375 0.3984375 20.80859375 0.3984375 22.45925903 1.59442139 C25.82723799 6.09729842 24.03532161 13.65975148 23.35165405 18.90252686 C22.72293643 22.73370957 22.0218686 26.54713569 21.2890625 30.359375 C21.02651951 31.76261783 20.7646771 33.1659919 20.50349426 34.56948853 C19.95807696 37.4869754 19.4051322 40.4028989 18.84643555 43.31787109 C18.1334256 47.04065192 17.43842056 50.76652723 16.74880505 54.49370384 C16.21245099 57.3826926 15.66728341 60.26996368 15.11940956 63.15678787 C14.85972537 64.53013795 14.60258833 65.90397238 14.34813499 67.27830124 C13.99118846 69.19810652 13.62120583 71.11547396 13.25073242 73.03271484 C13.04421555 74.12014984 12.83769867 75.20758484 12.62492371 76.32797241 C11.51378841 80.50729001 10.0459439 84.1366101 6.99438477 87.24853516 C4.14786568 88.74603375 2.04635553 88.7865212 -1.1640625 88.796875 C-2.31068359 88.80074219 -3.45730469 88.80460937 -4.63867188 88.80859375 C-5.83169922 88.79699219 -7.02472656 88.78539063 -8.25390625 88.7734375 C-9.45080078 88.78503906 -10.64769531 88.79664062 -11.88085938 88.80859375 C-13.59885742 88.80279297 -13.59885742 88.80279297 -15.3515625 88.796875 C-16.39965088 88.79349121 -17.44773926 88.79010742 -18.52758789 88.78662109 C-21.19140625 88.3984375 -21.19140625 88.3984375 -22.99389648 87.24853516 C-25.97755785 82.63891522 -25.1284039 77.54080145 -24.25097656 72.38671875 C-24.08285965 71.37573624 -24.08285965 71.37573624 -23.91134644 70.34432983 C-23.54057832 68.13140505 -23.15556729 65.92124592 -22.76953125 63.7109375 C-22.50566205 62.16456892 -22.24238602 60.61809902 -21.97967529 59.0715332 C-21.42772993 55.83594095 -20.86873185 52.60166843 -20.3046875 49.36816406 C-19.58421284 45.23463643 -18.88119168 41.09836736 -18.18342972 36.96095276 C-17.64304609 33.7683459 -17.09347889 30.57737209 -16.54116058 27.3868103 C-16.27843822 25.86274062 -16.01851777 24.33818508 -15.76151276 22.81314087 C-15.40009779 20.67707979 -15.02635951 18.54352402 -14.64941406 16.41015625 C-14.43988098 15.19803467 -14.2303479 13.98591309 -14.01446533 12.73706055 C-12.95048964 8.42119326 -11.51690206 4.76041814 -8.39086914 1.54833984 C-5.47823779 0.02558552 -3.2803066 0.010173 0 0 Z M1.16381836 12.40673828 C-0.89306993 15.4296341 -1.28464884 18.72644398 -1.875 22.265625 C-2.01555313 23.04890671 -2.15610626 23.83218842 -2.30091858 24.63920593 C-2.75477764 27.18211298 -3.1920953 29.72755171 -3.62890625 32.2734375 C-3.93506365 34.01183751 -4.24235669 35.7500379 -4.55078125 37.48803711 C-5.00904635 40.07138713 -5.46645214 42.65485116 -5.91915894 45.23918152 C-6.75022163 49.9743471 -7.62331444 54.69644681 -8.5703125 59.41015625 C-8.76375244 60.3738916 -8.95719238 61.33762695 -9.15649414 62.33056641 C-9.50173587 64.02825439 -9.85332943 65.72466883 -10.21264648 67.41943359 C-11.00554577 71.37571122 -11.36525945 74.49846469 -10.19140625 78.3984375 C-8.45564976 79.27280168 -8.45564976 79.27280168 -6.19140625 79.3984375 C-3.2397886 77.83736358 -1.55703563 76.41575707 -0.41101074 73.2270813 C0.2426118 70.41092957 0.75649213 67.59804068 1.23046875 64.74609375 C1.51594574 63.16942177 1.51594574 63.16942177 1.80718994 61.56089783 C2.20647062 59.33421865 2.59586137 57.10574664 2.97607422 54.87573242 C3.55175956 51.50100028 4.15573777 48.13237286 4.765625 44.76367188 C7.98728038 29.18948318 7.98728038 29.18948318 8.80859375 13.3984375 C8.14859375 12.7384375 7.48859375 12.0784375 6.80859375 11.3984375 C3.0554223 11.05000938 3.0554223 11.05000938 1.16381836 12.40673828 Z " fill="#FFFFFF" transform="translate(476.19140625,-0.3984375)"/>
<path d="M0 0 C4.19911597 -0.12383963 8.39725816 -0.21444607 12.59765625 -0.2746582 C14.02557901 -0.29976347 15.45337375 -0.33385587 16.88085938 -0.37719727 C18.93651918 -0.43803678 20.99047753 -0.46624551 23.046875 -0.48828125 C24.90070801 -0.52755737 24.90070801 -0.52755737 26.79199219 -0.56762695 C30 0 30 0 32.44189453 2.28320312 C34.74903329 6.30605491 33.79975315 9.64570041 33 14 C32.68486111 16.19140126 32.36975958 18.38280789 32.0546875 20.57421875 C31.66531851 22.94594946 31.27201074 25.3170365 30.875 27.6875 C30.6996875 28.88439453 30.524375 30.08128906 30.34375 31.31445312 C28.66698509 41.09739644 28.66698509 41.09739644 24.3203125 44.83203125 C22.67675781 45.90517578 22.67675781 45.90517578 21 47 C21.49814209 47.54817383 21.99628418 48.09634766 22.50952148 48.66113281 C26.91319616 55.57140364 22.02763739 68.7046422 20.4375 76.25 C20.08655273 77.95736328 20.08655273 77.95736328 19.72851562 79.69921875 C19.15858798 82.46743875 18.5801931 85.23391333 18 88 C14.04 88 10.08 88 6 88 C6.70311656 79.85124915 8.04726809 71.96594365 9.62695312 63.94726562 C10.59389228 58.86463675 11.22185741 54.17428741 11 49 C7.535 49.495 7.535 49.495 4 50 C1.69 62.54 -0.62 75.08 -3 88 C-7.29 88 -11.58 88 -16 88 C-15.36534957 79.12396038 -13.64833973 70.54064668 -11.90429688 61.83102417 C-10.99720728 57.30064926 -10.10521616 52.7672928 -9.2109375 48.234375 C-9.02787048 47.30870224 -8.84480347 46.38302948 -8.65618896 45.42930603 C-6.71725585 35.60881108 -4.85274006 25.77456306 -3 15.9375 C-2.84666199 15.12429291 -2.69332397 14.31108582 -2.53533936 13.47323608 C-1.68857685 8.98246666 -0.84341048 4.4914004 0 0 Z M11 11 C9.34674922 15.60035001 8.25873792 20.20256557 7.375 25 C7.2409375 25.68578125 7.106875 26.3715625 6.96875 27.078125 C6.2155409 31.10548793 5.85925886 34.90571228 6 39 C10.07911045 39.41655096 10.07911045 39.41655096 13.62402344 37.75537109 C15.21868129 35.72102227 15.67029884 34.24690618 16.203125 31.7265625 C16.46609375 30.4890625 16.46609375 30.4890625 16.734375 29.2265625 C16.98960937 27.93878906 16.98960937 27.93878906 17.25 26.625 C17.435625 25.77421875 17.62125 24.9234375 17.8125 24.046875 C19.06782726 18.01051415 19.06782726 18.01051415 18 12 C16.87465895 10.64381501 16.87465895 10.64381501 13.9375 10.9375 C12.4834375 10.9684375 12.4834375 10.9684375 11 11 Z " fill="#FFFFFF" transform="translate(163,0)"/>
<path d="M0 0 C4.21749219 -0.07419134 8.43463811 -0.1286204 12.65258789 -0.16479492 C14.08722552 -0.17987589 15.52181708 -0.2003438 16.95629883 -0.22631836 C19.01915859 -0.26273437 21.08140858 -0.27973243 23.14453125 -0.29296875 C25.00621948 -0.31653442 25.00621948 -0.31653442 26.90551758 -0.34057617 C30 -0 30 -0 31.8659668 1.14331055 C34.78307338 5.91932681 33.94081883 10.74903592 32.96777344 16.01171875 C32.78502617 17.02270126 32.78502617 17.02270126 32.59858704 18.05410767 C32.19567328 20.26724355 31.77802375 22.477291 31.359375 24.6875 C31.07303998 26.23385168 30.78734441 27.78032188 30.5022583 29.3269043 C29.90342016 32.56262653 29.2973522 35.79688628 28.68603516 39.03027344 C27.90509795 43.16361823 27.14147751 47.29993507 26.3831749 51.43748474 C25.79619494 54.63014169 25.20040125 57.82110504 24.60193634 61.0116272 C24.31707034 62.53568987 24.03482362 64.06024464 23.75530243 65.58529663 C23.36233267 67.72140373 22.95761331 69.85496415 22.54980469 71.98828125 C22.32250671 73.20040283 22.09520874 74.41252441 21.86102295 75.66137695 C20.75695056 79.94242607 19.30567693 83.61703718 16.24707031 86.85668945 C13.09294627 88.46150941 10.57401489 88.33780527 7.046875 88.29296875 C6.05654266 88.28660149 6.05654266 88.28660149 5.04620361 88.28010559 C2.94704609 88.26337435 0.84886504 88.22573551 -1.25 88.1875 C-2.67706942 88.17244584 -4.10415396 88.15875871 -5.53125 88.14648438 C-9.02114817 88.11349001 -12.5104787 88.06174743 -16 88 C-13.03394504 69.50116577 -9.64277962 51.09120933 -6.16259766 32.68408203 C-5.46331682 28.98244515 -4.76695955 25.28025829 -4.0703125 21.578125 C-2.71630634 14.38489357 -1.35921548 7.19224912 0 0 Z M11 11 C8.07988175 25.20099613 5.31565802 39.42994026 2.66531372 53.68353271 C2.34741472 55.39105459 2.02798304 57.09829185 1.70700073 58.80523682 C1.25191056 61.22870773 0.80286657 63.65322372 0.35546875 66.078125 C0.21820374 66.80428009 0.08093872 67.53043518 -0.06048584 68.27859497 C-0.72077389 71.89732694 -1.15550848 75.31978199 -1 79 C3.80117633 78.81614301 3.80117633 78.81614301 7.64111328 76.31469727 C9.23310818 73.60292874 9.81473741 71.29858753 10.4296875 68.21484375 C10.6654248 67.05662109 10.90116211 65.89839844 11.14404297 64.70507812 C11.38525879 63.46177734 11.62647461 62.21847656 11.875 60.9375 C12.13039551 59.65939453 12.38579102 58.38128906 12.64892578 57.06445312 C13.31586927 53.71577315 13.96750845 50.36432891 14.61279297 47.01141357 C14.99381401 45.0321342 15.37774253 43.05341524 15.76171875 41.07470703 C16.4747259 37.38470639 17.17791324 33.69303891 17.875 30 C18.0901123 28.86812256 18.30522461 27.73624512 18.52685547 26.57006836 C18.81906982 24.98850952 18.81906982 24.98850952 19.1171875 23.375 C19.37411377 21.99441406 19.37411377 21.99441406 19.63623047 20.5859375 C20.00209081 17.98513701 20.20624075 15.62020768 20 13 C18.04366025 10.58878141 18.04366025 10.58878141 14.375 10.875 C12.704375 10.936875 12.704375 10.936875 11 11 Z " fill="#FFFFFF" transform="translate(426,0)"/>
<path d="M0 0 C4.29 0 8.58 0 13 0 C9.60476992 21.17551391 5.71457247 42.26019377 1.85058594 63.35400391 C0.89545622 68.56844239 -0.05341146 73.78400439 -1 79 C3.95 78.505 3.95 78.505 9 78 C10.35261832 70.73102913 11.70343505 63.46172636 13.05273438 56.19213867 C13.50994718 53.73013738 13.96761355 51.26822026 14.42578125 48.80639648 C15.09240443 45.22402786 15.75758257 41.64139528 16.421875 38.05859375 C16.64008911 36.88259613 16.85830322 35.70659851 17.08312988 34.4949646 C18.72208568 25.61662371 20.28144495 16.72596216 21.75701904 7.81895447 C21.9071344 6.93131912 22.05724976 6.04368378 22.21191406 5.12915039 C22.34084045 4.35181046 22.46976685 3.57447052 22.6026001 2.77357483 C23 1 23 1 24 0 C25.85287502 -0.07226502 27.70833878 -0.0838122 29.5625 -0.0625 C30.57441406 -0.05347656 31.58632812 -0.04445312 32.62890625 -0.03515625 C33.41136719 -0.02355469 34.19382813 -0.01195312 35 0 C34.27938492 8.88449707 32.75680201 17.57316633 31.1640625 26.33203125 C30.88116185 27.89758859 30.59831573 29.46315578 30.31552124 31.0287323 C29.72502801 34.29110366 29.13107297 37.55282422 28.53515625 40.81420898 C27.77353542 44.98632685 27.02501161 49.16068231 26.27955055 53.33571339 C25.70128112 56.5617694 25.11392929 59.78612343 24.5240593 63.01007652 C24.24407568 64.54880836 23.96740471 66.08814691 23.69417191 67.62809181 C23.31168449 69.77842607 22.91645723 71.92604978 22.51806641 74.07348633 C22.29680084 75.29352859 22.07553528 76.51357086 21.8475647 77.77058411 C20.58649076 82.57556505 19.14973274 85.23351151 15 88 C10.84745662 88.44071805 6.67336783 88.32415745 2.5 88.3125 C1.34628906 88.32861328 0.19257812 88.34472656 -0.99609375 88.36132812 C-2.10082031 88.36197266 -3.20554687 88.36261719 -4.34375 88.36328125 C-5.35630859 88.36626221 -6.36886719 88.36924316 -7.41210938 88.37231445 C-10 88 -10 88 -11.79101562 86.78979492 C-14.84399446 82.27012856 -13.83606494 77.49000698 -12.93603516 72.41162109 C-12.81099106 71.66468491 -12.68594696 70.91774872 -12.55711365 70.1481781 C-12.14305103 67.68838186 -11.71623804 65.23098752 -11.2890625 62.7734375 C-10.99785136 61.0615329 -10.70736489 59.34950488 -10.41757202 57.63735962 C-9.80918924 54.05383845 -9.19501728 50.47137742 -8.57617188 46.88964844 C-7.7826041 42.29640765 -6.99889109 37.70155911 -6.21891212 33.10599327 C-5.47475765 28.72374412 -4.72591253 24.34230072 -3.9765625 19.9609375 C-3.83376484 19.1238966 -3.69096718 18.2868557 -3.54384232 17.42444992 C-3.13938954 15.05904428 -2.73163089 12.69423423 -2.32275391 10.32958984 C-2.14345085 9.27754112 -2.14345085 9.27754112 -1.96052551 8.20423889 C-1.46774204 5.3724202 -0.91091372 2.73274116 0 0 Z " fill="#FFFFFF" transform="translate(55,0)"/>
<path d="M0 0 C1.14984375 -0.02900391 2.2996875 -0.05800781 3.484375 -0.08789062 C4.59039062 -0.09626953 5.69640625 -0.10464844 6.8359375 -0.11328125 C8.35646729 -0.13515503 8.35646729 -0.13515503 9.90771484 -0.1574707 C13.35378994 0.43854857 14.52063162 1.56810186 16.625 4.3125 C17.34150444 10.23112518 15.85519295 15.97723647 14.625 21.75 C14.33882812 23.13348633 14.33882812 23.13348633 14.046875 24.54492188 C13.57907312 26.80206596 13.10288722 29.05746966 12.625 31.3125 C8.335 31.3125 4.045 31.3125 -0.375 31.3125 C-0.230625 29.9925 -0.08625 28.6725 0.0625 27.3125 C0.15144531 26.49652344 0.24039063 25.68054688 0.33203125 24.83984375 C0.60191726 22.51162714 0.92213776 20.1955834 1.25 17.875 C1.93101383 14.47586993 1.93101383 14.47586993 0.625 12.3125 C-2.31591587 12.49665432 -2.31591587 12.49665432 -5.375 13.3125 C-8.51594402 18.10599645 -9.06238159 23.73707155 -8.375 29.3125 C-6.18979495 33.78134276 -3.49178626 37.68794613 -0.55419922 41.68896484 C1.11006313 43.98034055 2.63192774 46.34429188 4.125 48.75 C4.5890625 49.47058594 5.053125 50.19117188 5.53125 50.93359375 C8.63136157 57.67633642 7.28069768 63.96758232 5.875 70.9375 C5.70484375 71.865625 5.5346875 72.79375 5.359375 73.75 C3.63099115 82.62067591 3.63099115 82.62067591 0.625 86.3125 C-4.28899879 89.40639794 -9.82581839 88.64147587 -15.4375 88.625 C-17.08975586 88.64916992 -17.08975586 88.64916992 -18.77539062 88.67382812 C-20.35803711 88.67479492 -20.35803711 88.67479492 -21.97265625 88.67578125 C-22.93695557 88.67876221 -23.90125488 88.68174316 -24.89477539 88.68481445 C-27.79050891 88.25012663 -28.65004894 87.6336147 -30.375 85.3125 C-32.27247391 79.50091324 -30.59854245 73.76149932 -29.4375 67.9375 C-29.24220703 66.91527344 -29.04691406 65.89304687 -28.84570312 64.83984375 C-28.36464476 62.32895375 -27.87105851 59.82046963 -27.375 57.3125 C-23.085 57.3125 -18.795 57.3125 -14.375 57.3125 C-14.519375 58.24191406 -14.66375 59.17132813 -14.8125 60.12890625 C-14.998125 61.36511719 -15.18375 62.60132813 -15.375 63.875 C-15.560625 65.09316406 -15.74625 66.31132813 -15.9375 67.56640625 C-16.36055077 71.18877848 -16.45001425 74.66962046 -16.375 78.3125 C-13.43408413 78.12834568 -13.43408413 78.12834568 -10.375 77.3125 C-7.12099025 72.41423797 -6.51554226 66.05465521 -6.375 60.3125 C-7.34873355 56.52509468 -9.26818964 53.58430507 -11.375 50.3125 C-12.68387388 48.21566293 -13.97835235 46.11140877 -15.25878906 43.99707031 C-16.14873332 42.53333784 -17.05621581 41.08008097 -17.98339844 39.63964844 C-22.52070995 32.27558839 -23.06225212 25.75080742 -21.23632812 17.3671875 C-21.05521484 16.60664063 -20.87410156 15.84609375 -20.6875 15.0625 C-20.52572266 14.28648438 -20.36394531 13.51046875 -20.19726562 12.7109375 C-19.12739049 8.01470659 -17.83902628 4.83801787 -14.375 1.3125 C-10.15358817 -0.79820592 -4.63815515 0.03873738 0 0 Z " fill="#FFFFFF" transform="translate(32.375,-0.3125)"/>
<path d="M0 0 C2.04829351 -0.01718002 4.09495861 -0.06104387 6.14282227 -0.10522461 C7.43381836 -0.11360352 8.72481445 -0.12198242 10.05493164 -0.13061523 C11.83637573 -0.15248901 11.83637573 -0.15248901 13.65380859 -0.17480469 C16.75415039 0.29516602 16.75415039 0.29516602 19.17285156 1.88427734 C22.53368458 7.00828939 20.56323343 13.1363305 19.39868164 18.80297852 C18.95244277 20.94381659 18.50093882 23.08314662 18.03808594 25.22045898 C17.56718547 27.41766936 17.12431947 29.61941561 16.68188477 31.82250977 C16.38085723 33.23303136 16.07817829 34.64320174 15.77368164 36.05297852 C15.506604 37.32286621 15.23952637 38.59275391 14.96435547 39.90112305 C13.38749687 44.32345273 10.98540232 47.17954005 6.75415039 49.29516602 C4.03654931 49.36698423 1.34555651 49.38816108 -1.37084961 49.35766602 C-2.12495117 49.3531543 -2.87905273 49.34864258 -3.65600586 49.34399414 C-5.51932088 49.33220101 -7.38259516 49.31426543 -9.24584961 49.29516602 C-9.3322168 50.02735352 -9.41858398 50.75954102 -9.50756836 51.51391602 C-10.58210467 59.79474629 -12.114396 67.93305198 -13.80834961 76.10766602 C-14.03031006 77.18790039 -14.25227051 78.26813477 -14.48095703 79.38110352 C-14.79963745 80.89510742 -14.79963745 80.89510742 -15.12475586 82.43969727 C-15.31626221 83.35082275 -15.50776855 84.26194824 -15.70507812 85.20068359 C-16.24584961 87.29516602 -16.24584961 87.29516602 -17.24584961 88.29516602 C-21.24569439 88.43863247 -25.24414943 88.33728918 -29.24584961 88.29516602 C-27.87210762 78.94681978 -26.250286 69.6608267 -24.49584961 60.37719727 C-24.23428735 58.98486959 -23.97289777 57.59250947 -23.71166992 56.20011902 C-23.16835993 53.30650878 -22.62369417 50.41315861 -22.07788086 47.52001953 C-21.38348169 43.83923474 -20.69145009 40.15801013 -20.00030518 36.47661304 C-19.33295558 32.92249017 -18.66445587 29.36858391 -17.99584961 25.81469727 C-17.80907654 24.82121245 -17.80907654 24.82121245 -17.61853027 23.80765724 C-16.83370974 19.63565676 -16.04167577 15.46507973 -15.24584961 11.29516602 C-15.05442383 10.27611176 -14.86299805 9.2570575 -14.66577148 8.2071228 C-14.40376953 6.8424437 -14.40376953 6.8424437 -14.13647461 5.45019531 C-13.98726562 4.66468796 -13.83805664 3.8791806 -13.68432617 3.06987 C-12.43113652 -2.00232965 -4.20659352 0.02461171 0 0 Z M-1.24584961 11.29516602 C-3.19129509 14.21333423 -3.68876828 15.69226368 -4.31616211 19.04125977 C-4.49018555 19.96100586 -4.66420898 20.88075195 -4.84350586 21.82836914 C-5.0175293 22.78678711 -5.19155273 23.74520508 -5.37084961 24.73266602 C-5.55260742 25.6872168 -5.73436523 26.64176758 -5.92163086 27.62524414 C-6.66575989 31.62283956 -7.24584961 35.21064473 -7.24584961 39.29516602 C-4.60584961 39.29516602 -1.96584961 39.29516602 0.75415039 39.29516602 C2.8933798 33.59055425 4.4061914 27.87848133 5.62915039 21.92016602 C5.78552979 21.21827148 5.94190918 20.51637695 6.10302734 19.79321289 C6.93668989 15.89042955 6.93668989 15.89042955 5.48461914 12.34204102 C3.07743141 10.88577395 1.51235909 10.87082622 -1.24584961 11.29516602 Z " fill="#FFFFFF" transform="translate(107.245849609375,-0.295166015625)"/>
<path d="M0 0 C7.92 0 15.84 0 24 0 C24 7 24 7 22 12 C18.04 12 14.08 12 10 12 C9.896875 13.175625 9.79375 14.35125 9.6875 15.5625 C7.84054816 32.31890369 7.84054816 32.31890369 5 38 C8.96 38 12.92 38 17 38 C16.125 46.875 16.125 46.875 15 48 C12.98035801 48.07244053 10.95832876 48.08377188 8.9375 48.0625 C7.83277344 48.05347656 6.72804687 48.04445312 5.58984375 48.03515625 C4.73519531 48.02355469 3.88054687 48.01195312 3 48 C2.96261719 48.59683594 2.92523438 49.19367187 2.88671875 49.80859375 C2.2163411 58.65494984 0.62359432 67.28977389 -1 76 C2.63 76 6.26 76 10 76 C10.08384078 80.27587998 9.84728203 83.76358987 9 88 C0.42 88 -8.16 88 -17 88 C-15.875467 75.63013699 -15.875467 75.63013699 -14.90625 70.9453125 C-14.68477295 69.85702148 -14.4632959 68.76873047 -14.23510742 67.64746094 C-13.99252197 66.48504883 -13.74993652 65.32263672 -13.5 64.125 C-13.10605092 62.20046593 -12.7121395 60.275924 -12.31913757 58.35119629 C-12.03171212 56.94471518 -11.74353306 55.53838791 -11.45466614 54.13220215 C-10.15446323 47.79407416 -8.89305247 41.44851467 -7.63671875 35.1015625 C-7.22791331 33.04019216 -6.81905909 30.97883149 -6.41015625 28.91748047 C-5.79894281 25.83602723 -5.18837907 22.75445393 -4.58007812 19.67242432 C-4.00790662 16.7758647 -3.43209082 13.88005143 -2.85546875 10.984375 C-2.68278976 10.10552643 -2.51011078 9.22667786 -2.3321991 8.32119751 C-1.11391395 2.22782791 -1.11391395 2.22782791 0 0 Z " fill="#FFFFFF" transform="translate(134,0)"/>
<path d="M0 0 C8.25 0 16.5 0 25 0 C24.34 3.96 23.68 7.92 23 12 C18.71 12 14.42 12 10 12 C9.896875 13.340625 9.79375 14.68125 9.6875 16.0625 C8.99492526 23.14102126 7.47314042 30.05122444 6 37 C9.63 37.33 13.26 37.66 17 38 C16.505 42.95 16.505 42.95 16 48 C11.71 48 7.42 48 3 48 C2.896875 49.65 2.79375 51.3 2.6875 53 C2.0544591 60.78267928 0.54217164 68.35703615 -1 76 C2.96 76 6.92 76 11 76 C10.34 79.96 9.68 83.92 9 88 C0.42 88 -8.16 88 -17 88 C-16.39667644 82.57008795 -15.80576408 77.53040856 -14.74072266 72.23364258 C-14.49021149 70.97816116 -14.23970032 69.72267975 -13.9815979 68.42915344 C-13.70919317 67.08425769 -13.43667856 65.73938418 -13.1640625 64.39453125 C-12.88090444 62.98367952 -12.5980635 61.57276412 -12.31552124 60.16178894 C-11.72439238 57.21374971 -11.13079883 54.26622232 -10.53515625 51.3190918 C-9.78002874 47.58283548 -9.02897563 43.84577656 -8.27955055 40.10837269 C-7.55488935 36.495157 -6.82836854 32.88231603 -6.1015625 29.26953125 C-5.9671236 28.60073252 -5.83268471 27.93193378 -5.69417191 27.24286842 C-3.8637394 18.14634664 -1.95945843 9.06954565 0 0 Z " fill="#FFFFFF" transform="translate(355,0)"/>
<path d="M0 0 C8.91 0 17.82 0 27 0 C26.67 3.96 26.34 7.92 26 12 C23.36 12 20.72 12 18 12 C17.95645386 12.69906967 17.91290771 13.39813934 17.86804199 14.11839294 C17.2791249 22.33165913 16.02002659 30.31653089 14.53125 38.41015625 C14.28802105 39.75337558 14.04523172 41.09667458 13.80285645 42.44004822 C13.29862879 45.22817169 12.79072903 48.01558988 12.27978516 50.80249023 C11.62536952 54.37238445 10.97797667 57.94350717 10.33298492 61.51511478 C9.83387315 64.27693283 9.33234028 67.03830641 8.8299408 69.79952812 C8.47416516 71.75538669 8.11945954 73.71143981 7.76477051 75.66749573 C7.54784546 76.8498027 7.33092041 78.03210968 7.10742188 79.25024414 C6.91724487 80.2910463 6.72706787 81.33184845 6.53112793 82.40419006 C6 85 6 85 5 88 C0.38 88 -4.24 88 -9 88 C-4.8191525 62.6392547 -0.46840007 37.31163286 4 12 C2.02 12 0.04 12 -2 12 C-1.85904936 10.3745692 -1.71207913 8.74965949 -1.5625 7.125 C-1.48128906 6.22007812 -1.40007812 5.31515625 -1.31640625 4.3828125 C-1 2 -1 2 0 0 Z " fill="#FFFFFF" transform="translate(325,0)"/>
<path d="M0 0 C1.65322266 0.01740234 1.65322266 0.01740234 3.33984375 0.03515625 C4.44457031 0.04417969 5.54929687 0.05320313 6.6875 0.0625 C7.54214844 0.07410156 8.39679688 0.08570313 9.27734375 0.09765625 C6.31128879 18.59649048 2.92012337 37.00644692 -0.56005859 55.41357422 C-1.25933943 59.1152111 -1.9556967 62.81739796 -2.65234375 66.51953125 C-4.00635002 73.71276323 -5.36371274 80.90535506 -6.72265625 88.09765625 C-11.01265625 88.09765625 -15.30265625 88.09765625 -19.72265625 88.09765625 C-19.08829072 82.66764584 -18.27197265 77.3223674 -17.24804688 71.95336914 C-17.10320358 71.18327515 -16.95836029 70.41318115 -16.80912781 69.61975098 C-16.33495653 67.10277847 -15.85712592 64.58651872 -15.37890625 62.0703125 C-15.04632207 60.31296244 -14.71384488 58.55559212 -14.38146973 56.79820251 C-13.68717699 53.13068501 -12.99094692 49.46354161 -12.29345703 45.79663086 C-11.39795291 41.08733635 -10.50833128 36.37695168 -9.62024689 31.66625309 C-8.93667292 28.04478279 -8.24952555 24.42399754 -7.56132507 20.80340385 C-7.2315581 19.06561911 -6.90303486 17.3275979 -6.57575989 15.58934212 C-6.11997107 13.17089926 -5.65927566 10.75344256 -5.19726562 8.33618164 C-5.06217087 7.61363693 -4.92707611 6.89109222 -4.78788757 6.14665222 C-3.62838134 0.1301428 -3.62838134 0.1301428 0 0 Z " fill="#FFFFFF" transform="translate(268.72265625,-0.09765625)"/>
<path d="M0 0 C0.66 0 1.32 0 2 0 C2.50367757 1.45706726 3.00282556 2.91570096 3.5 4.375 C3.7784375 5.18710938 4.056875 5.99921875 4.34375 6.8359375 C5 9 5 9 5 11 C4.01 11.33 3.02 11.66 2 12 C2.495 12.9075 2.99 13.815 3.5 14.75 C5 18 5 18 5 22 C0.38 22 -4.24 22 -9 22 C-8.67 19.36 -8.34 16.72 -8 14 C-8.66 13.67 -9.32 13.34 -10 13 C-9.67 12.01 -9.34 11.02 -9 10 C-7.02 9.67 -5.04 9.34 -3 9 C-2.01 6.03 -1.02 3.06 0 0 Z M-4 14 C-4.33 15.32 -4.66 16.64 -5 18 C-3.35 18 -1.7 18 0 18 C0 17.01 0 16.02 0 15 C-1.32 14.67 -2.64 14.34 -4 14 Z " fill="#FFFFFF" transform="translate(202,116)"/>
<path d="M0 0 C0.99 0 1.98 0 3 0 C3 0.66 3 1.32 3 2 C2.01 2 1.02 2 0 2 C0 1.34 0 0.68 0 0 Z " fill="#FFFFFF" transform="translate(306,116)"/>
<path d="M0 0 C0.66 0 1.32 0 2 0 C2 0.66 2 1.32 2 2 C1.34 2 0.68 2 0 2 C0 1.34 0 0.68 0 0 Z " fill="#FFFFFF" transform="translate(173,138)"/>
<path d="M0 0 C0.66 0 1.32 0 2 0 C2 0.66 2 1.32 2 2 C1.34 2 0.68 2 0 2 C0 1.34 0 0.68 0 0 Z " fill="#FFFFFF" transform="translate(234,128)"/>
<path d="M0 0 C0.99 0.495 0.99 0.495 2 1 C1.01 1.495 1.01 1.495 0 2 C0 1.34 0 0.68 0 0 Z " fill="#FFFFFF" transform="translate(171,144)"/>
</svg>
