<?xml version="1.0" encoding="UTF-8"?>
<svg version="1.1" xmlns="http://www.w3.org/2000/svg" width="518" height="144">
<path d="M0 0 C1.29421875 -0.00128906 2.5884375 -0.00257812 3.921875 -0.00390625 C4.59444336 -0.00181152 5.26701172 0.0002832 5.95996094 0.00244141 C8.02286065 0.007811 10.08554439 0.0024789 12.1484375 -0.00390625 C13.44007812 -0.00261719 14.73171875 -0.00132813 16.0625 0 C17.25311035 0.00112793 18.4437207 0.00225586 19.67041016 0.00341797 C22.3984375 0.1328125 22.3984375 0.1328125 23.3984375 1.1328125 C23.49463191 2.82839953 23.52031409 4.5280209 23.51869202 6.22633362 C23.52075401 7.88177689 23.52075401 7.88177689 23.52285767 9.57066345 C23.51746475 11.40269066 23.51746475 11.40269066 23.51196289 13.27172852 C23.51210892 14.54959229 23.51225494 15.82745605 23.5124054 17.14404297 C23.51269335 20.65834841 23.5067969 24.17262 23.49983144 27.68691754 C23.49359762 31.35580606 23.49299408 35.02469527 23.49180603 38.69358826 C23.4886928 45.64571685 23.48047952 52.5978298 23.47045654 59.54995149 C23.45929516 67.4627603 23.45378489 75.37556984 23.44876111 83.28838456 C23.4382969 99.56986971 23.42069761 115.85133911 23.3984375 132.1328125 C19.22397998 133.52429834 15.14769763 133.53909949 10.7734375 133.7578125 C9.88914062 133.809375 9.00484375 133.8609375 8.09375 133.9140625 C7.25328125 133.95789063 6.4128125 134.00171875 5.546875 134.046875 C4.38937744 134.1080249 4.38937744 134.1080249 3.20849609 134.17041016 C1.3984375 134.1328125 1.3984375 134.1328125 0.3984375 133.1328125 C0.27348522 130.66927983 0.21242885 128.23248165 0.19311523 125.76733398 C0.18308251 124.98415078 0.17304979 124.20096758 0.16271305 123.39405155 C0.13121617 120.847367 0.10651104 118.30066694 0.08203125 115.75390625 C0.06363811 114.18623331 0.044802 112.61856549 0.0255127 111.05090332 C-0.04305797 105.22410053 -0.10303185 99.39719914 -0.1640625 93.5703125 C-0.3084375 80.5559375 -0.4528125 67.5415625 -0.6015625 54.1328125 C-4.8915625 80.8628125 -9.1815625 107.5928125 -13.6015625 135.1328125 C-18.71841004 136.59476894 -22.39793054 137.43980434 -27.5390625 137.7578125 C-29.25416016 137.86996094 -29.25416016 137.86996094 -31.00390625 137.984375 C-31.86113281 138.03335938 -32.71835937 138.08234375 -33.6015625 138.1328125 C-34.9690258 132.89397216 -36.09451245 127.69147882 -36.93017578 122.33984375 C-37.04751068 121.60715775 -37.16484558 120.87447174 -37.28573608 120.11958313 C-37.66778456 117.72867735 -38.0448723 115.33701861 -38.421875 112.9453125 C-38.68775171 111.27517884 -38.95394109 109.60509493 -39.22042847 107.93505859 C-39.91727998 103.56264473 -40.6099105 99.18957259 -41.30163574 94.81634521 C-42.00971845 90.34460255 -42.72183032 85.87350176 -43.43359375 81.40234375 C-44.82683959 72.64645354 -46.21562281 63.88986193 -47.6015625 55.1328125 C-47.61186996 56.18295029 -47.62217743 57.23308807 -47.63279724 58.31504822 C-47.73035791 68.1893296 -47.83307508 78.06354552 -47.94090176 87.9377203 C-47.99617524 93.01469134 -48.04960217 98.09166809 -48.09887695 103.16870117 C-48.14645541 108.06406913 -48.19879558 112.95936471 -48.25450325 117.85464668 C-48.27495645 119.72662121 -48.29366451 121.5986156 -48.31063652 123.47062492 C-48.33461518 126.08327326 -48.36467824 128.69578347 -48.39624023 131.30834961 C-48.4019957 132.09021637 -48.40775116 132.87208313 -48.41368103 133.67764282 C-48.48751034 139.01876034 -48.48751034 139.01876034 -49.6015625 140.1328125 C-51.82242197 140.53580289 -54.05406464 140.88003067 -56.2890625 141.1953125 C-58.12017578 141.46021484 -58.12017578 141.46021484 -59.98828125 141.73046875 C-63.2384191 142.09237599 -66.33724771 142.16240191 -69.6015625 142.1328125 C-69.62489059 123.89635252 -69.64254123 105.65989639 -69.65337467 87.42342472 C-69.65853782 78.95651311 -69.66558088 70.48961075 -69.67700195 62.02270508 C-69.68694822 54.64564156 -69.69341579 47.26858475 -69.69565099 39.89151472 C-69.6969582 35.98299197 -69.70004467 32.07448838 -69.70729256 28.16597176 C-69.71405187 24.49134808 -69.71617965 20.81675157 -69.71467018 17.14212227 C-69.71507888 15.14201639 -69.72047454 13.14191352 -69.72598267 11.14181519 C-69.724608 9.96245895 -69.72323334 8.78310272 -69.72181702 7.56800842 C-69.72273881 6.53652207 -69.7236606 5.50503572 -69.72461033 4.44229221 C-69.6015625 2.1328125 -69.6015625 2.1328125 -68.6015625 1.1328125 C-66.2258773 1.0444158 -63.87947576 1.01750945 -61.50390625 1.03515625 C-60.44061852 1.03727867 -60.44061852 1.03727867 -59.35585022 1.03944397 C-57.08354538 1.04505807 -54.81133775 1.05761287 -52.5390625 1.0703125 C-51.00195454 1.07532569 -49.46484505 1.07988891 -47.92773438 1.08398438 C-44.15230927 1.09418271 -40.3769496 1.1131423 -36.6015625 1.1328125 C-34.56065952 12.35775152 -32.73541635 23.59298825 -31.12109375 34.88671875 C-30.90141197 36.40945237 -30.68149226 37.93215168 -30.46134949 39.45481873 C-29.89186381 43.39817288 -29.3255372 47.34197393 -28.75994873 51.28588867 C-28.17852423 55.33605872 -27.5940008 59.38578148 -27.00976562 63.43554688 C-25.87072536 71.33420954 -24.7350339 79.23334877 -23.6015625 87.1328125 C-22.27998304 81.44144704 -21.14591745 75.76443248 -20.26953125 69.98828125 C-20.15262939 69.23212524 -20.03572754 68.47596924 -19.9152832 67.69689941 C-19.53655358 65.23853388 -19.16262659 62.77946783 -18.7890625 60.3203125 C-18.65972321 59.47675201 -18.53038391 58.63319153 -18.39712524 57.7640686 C-16.17026309 43.24018568 -14.10558868 28.69613855 -12.1628418 14.1315918 C-12.06447021 13.40355347 -11.96609863 12.67551514 -11.86474609 11.92541504 C-11.60010432 9.96585471 -11.3393386 8.00577202 -11.07885742 6.0456543 C-10.6015625 3.1328125 -10.6015625 3.1328125 -9.6015625 1.1328125 C-6.20183967 -0.00042844 -3.58299149 0.00338794 0 0 Z " fill="#FCFCFC" transform="translate(69.6015625,1.8671875)"/>
<path d="M0 0 C0.74620605 0.00491455 1.49241211 0.0098291 2.26123047 0.01489258 C11.0387219 0.20057394 19.25875515 1.94662796 25.6875 8.3125 C31.50335701 15.57896338 33.98950162 22.10084409 33.97802734 31.45410156 C33.98474457 32.24846115 33.99146179 33.04282074 33.99838257 33.86125183 C34.01730727 36.47527404 34.02128422 39.08903864 34.0234375 41.703125 C34.02987021 43.53147484 34.03659892 45.35982367 34.04360962 47.18817139 C34.05556925 51.01788721 34.05929189 54.84751292 34.05810547 58.67724609 C34.05790257 63.56390144 34.08518024 68.44997331 34.11964989 73.33649063 C34.14198488 77.11310432 34.14594096 80.88957918 34.14488602 84.66625214 C34.14723299 86.46663164 34.1560051 88.26701549 34.17155075 90.06732941 C34.27140756 102.82808643 33.70203283 112.93940334 24.4609375 122.62890625 C17.18245422 129.5386558 6.64966197 132.3283381 -3.3125 132.3125 C-12.62681908 131.49230061 -20.35487958 129.91331937 -27.3125 123.3125 C-33.00173752 115.92964553 -34.61916115 108.33707008 -34.5871582 99.12744141 C-34.59226913 98.35229691 -34.59738007 97.5771524 -34.60264587 96.77851868 C-34.61643763 94.24028597 -34.61559295 91.702328 -34.61328125 89.1640625 C-34.61717403 87.38341167 -34.62150989 85.60276177 -34.62626648 83.82211304 C-34.63370641 80.09850041 -34.63345371 76.37498263 -34.62817383 72.65136719 C-34.62238356 67.90162051 -34.63931035 63.15226435 -34.6625185 58.40258217 C-34.67731724 54.72720098 -34.6781192 51.05191251 -34.67500877 47.37650681 C-34.67551895 45.62637942 -34.68069904 43.87624642 -34.69082069 42.12614822 C-34.75321038 29.8306174 -34.55936629 19.10859983 -26.3359375 9.2890625 C-19.13822022 2.25808771 -9.81606415 -0.07656663 0 0 Z M-8.3125 22.3125 C-10.77585097 26.00752646 -10.61510452 28.83994898 -10.61889648 33.11694336 C-10.62722 33.91074905 -10.63554352 34.70455475 -10.64411926 35.52241516 C-10.6682348 38.14910775 -10.67699263 40.77555217 -10.68359375 43.40234375 C-10.69255798 45.22693457 -10.70167978 47.05152462 -10.71095276 48.87611389 C-10.72744888 52.70185128 -10.73514416 56.52750107 -10.73803711 60.35327148 C-10.74342562 65.25753033 -10.78112198 70.16096733 -10.82678127 75.06499386 C-10.85650886 78.83365392 -10.8637597 82.6021149 -10.86476326 86.37088203 C-10.86897312 88.17902966 -10.88143808 89.98717749 -10.90228081 91.79520988 C-10.92911086 94.32364436 -10.92439629 96.85015842 -10.91186523 99.37866211 C-10.92669952 100.12632843 -10.94153381 100.87399475 -10.95681763 101.64431763 C-10.9030667 105.44910179 -10.62078508 106.99395423 -7.93128967 109.77296448 C-3.75585177 112.22762322 -0.00970856 112.22263236 4.6875 111.3125 C8.03375024 108.78573961 9.36727847 107.27316458 10.6875 103.3125 C10.79338397 100.89058254 10.8447199 98.49700919 10.84863281 96.07470703 C10.85359772 95.34102905 10.85856262 94.60735107 10.86367798 93.85144043 C10.87828255 91.42438824 10.88509854 88.99740141 10.890625 86.5703125 C10.89637761 84.88263955 10.90213533 83.19496662 10.90789795 81.5072937 C10.91840291 77.96823828 10.92424896 74.42920554 10.92773438 70.89013672 C10.93321979 66.35836928 10.95725084 61.82690219 10.98570633 57.29522896 C11.00434195 53.80877815 11.00953879 50.32239958 11.01107025 46.83590317 C11.01409494 45.16536694 11.02211729 43.49483193 11.03525543 41.82434464 C11.05233651 39.48569204 11.05043102 37.14777194 11.04394531 34.80908203 C11.0531601 34.12111542 11.06237488 33.4331488 11.0718689 32.72433472 C11.03450879 28.41745071 10.27693742 25.76078459 7.6875 22.3125 C2.99001765 18.78938824 -3.38369944 19.63686541 -8.3125 22.3125 Z " fill="#FCFCFC" transform="translate(156.3125,-0.3125)"/>
<path d="M0 0 C7.49014073 6.33277205 12.04838092 13.20260113 13.3046875 23.078125 C13.50346461 27.75193544 13.57725247 32.40648814 13.3046875 37.078125 C11.52066354 38.86214896 9.14590353 38.21045029 6.7734375 38.21484375 C6.04125 38.21097656 5.3090625 38.20710938 4.5546875 38.203125 C3.83796875 38.20699219 3.12125 38.21085937 2.3828125 38.21484375 C-1.4354245 38.20782493 -4.98468464 37.99847758 -8.6953125 37.078125 C-8.80488281 36.04171875 -8.91445313 35.0053125 -9.02734375 33.9375 C-9.18684889 32.56763236 -9.34704134 31.19784463 -9.5078125 29.828125 C-9.57806641 29.14621094 -9.64832031 28.46429688 -9.72070312 27.76171875 C-10.20315893 23.78628288 -10.60286019 20.77463419 -13.6953125 18.078125 C-16.32487196 17.48214645 -16.32487196 17.48214645 -19.1953125 17.640625 C-20.63390625 17.64255859 -20.63390625 17.64255859 -22.1015625 17.64453125 C-25.06120558 18.13929086 -25.94186352 18.68961276 -27.6953125 21.078125 C-29.87779803 27.6255816 -28.60137855 32.99731825 -26.11328125 39.28125 C-22.66151185 46.08969874 -16.74723434 51.05167917 -11.3515625 56.3203125 C4.95100444 72.29491075 4.95100444 72.29491075 9.3046875 81.078125 C9.64371094 81.75230469 9.98273437 82.42648438 10.33203125 83.12109375 C15.18504118 93.60985715 15.30267575 109.55863959 11.7421875 120.453125 C8.57364638 127.44385733 3.30418801 132.57585807 -3.84765625 135.421875 C-14.56475279 137.89165856 -26.70529239 137.02764309 -36.30859375 131.6015625 C-45.81099197 125.43556188 -51.01039271 117.89002586 -53.3828125 106.890625 C-53.84220649 101.28601827 -53.77137085 95.6979923 -53.6953125 90.078125 C-51.34106575 90.05085573 -48.98714288 90.03115781 -46.6328125 90.015625 C-45.32183594 90.00402344 -44.01085937 89.99242188 -42.66015625 89.98046875 C-32.54379735 90.22964015 -32.54379735 90.22964015 -30.6953125 92.078125 C-30.49160934 95.17139522 -30.34920898 98.25689129 -30.265625 101.35546875 C-30.06028609 105.71036488 -29.49329135 108.6814795 -26.6953125 112.078125 C-22.83011304 113.92386632 -18.92178936 114.33907752 -14.7578125 113.453125 C-12.33457704 111.83763469 -11.78846015 110.74387101 -10.6953125 108.078125 C-9.45993675 99.83159077 -11.64848763 91.48781071 -16.5703125 84.828125 C-17.60026364 83.56845437 -18.64126672 82.31770434 -19.6953125 81.078125 C-20.4790625 80.0675 -21.2628125 79.056875 -22.0703125 78.015625 C-24.735546 75.0331018 -27.55852975 72.51858029 -30.5859375 69.91796875 C-40.72675775 61.07291998 -49.72011433 50.53227129 -52.6953125 37.078125 C-53.4283854 24.84421985 -53.4104424 14.79283605 -45.5703125 4.765625 C-34.64701142 -6.86392399 -13.05219018 -9.30677908 0 0 Z " fill="#FBFBFB" transform="translate(504.6953125,5.921875)"/>
<path d="M0 0 C0.91644287 0.00523682 1.83288574 0.01047363 2.77709961 0.01586914 C3.76645508 0.0190918 4.75581055 0.02231445 5.77514648 0.02563477 C6.81606445 0.03401367 7.85698242 0.04239258 8.92944336 0.05102539 C10.49662109 0.05779297 10.49662109 0.05779297 12.09545898 0.06469727 C14.68600996 0.07652627 17.27644895 0.0930085 19.86694336 0.11352539 C21.40243201 5.12265659 22.44193996 10.06444266 23.19555664 15.25195312 C23.31289154 16.03326096 23.43022644 16.81456879 23.55111694 17.61955261 C23.93424296 20.17810525 24.31079554 22.73757801 24.68725586 25.29711914 C24.95303366 27.0807949 25.21922432 28.86440918 25.48580933 30.64796448 C26.18366378 35.32441746 26.87593206 40.00168062 27.5670166 44.67913818 C28.27427905 49.45920426 28.98685419 54.23847795 29.69897461 59.01782227 C31.09348056 68.38229133 32.48208278 77.74762542 33.86694336 87.11352539 C35.74235578 79.40954001 36.91095584 71.63307274 38.0544281 63.79547882 C38.40449477 61.39850337 38.75917849 59.00225098 39.1151123 56.60614014 C40.12539627 49.80016051 41.12829975 42.99310564 42.1262207 36.18530273 C42.73931471 32.00500649 43.35837024 27.82562792 43.98106384 23.6467514 C44.21620499 22.06030999 44.44902938 20.47352335 44.67945862 18.88639069 C45.00134966 16.66989548 45.3307806 14.45463979 45.66186523 12.23950195 C45.84680542 10.9809137 46.03174561 9.72232544 46.22229004 8.42559814 C46.86694336 5.11352539 46.86694336 5.11352539 48.86694336 0.11352539 C55.46694336 0.11352539 62.06694336 0.11352539 68.86694336 0.11352539 C69.80546385 3.86760736 69.87070271 5.31549552 69.24137878 8.95797729 C69.07736069 9.93084686 68.91334259 10.90371643 68.74435425 11.90606689 C68.55688629 12.96694519 68.36941833 14.02782349 68.17626953 15.12084961 C67.98455673 16.24321014 67.79284393 17.36557068 67.59532166 18.52194214 C66.95823452 22.23880175 66.30930873 25.95348576 65.65991211 29.66821289 C65.21428777 32.24877052 64.76925274 34.82942997 64.32478333 37.41018677 C63.39126738 42.82319325 62.45132492 48.23505297 61.50732422 53.64624023 C60.41756037 59.89329634 59.33681201 66.14185847 58.26117343 72.39136112 C57.22503627 78.41065763 56.18347248 84.42899958 55.1392765 90.44690323 C54.69594103 93.00395309 54.2538044 95.56121109 53.81288719 98.11867905 C53.19519198 101.69575419 52.57136933 105.27170663 51.94580078 108.84741211 C51.76440552 109.90424194 51.58301025 110.96107178 51.39611816 112.04992676 C51.22364059 113.02843597 51.05116302 114.00694519 50.87345886 115.0151062 C50.72651675 115.85980406 50.57957464 116.70450191 50.42817974 117.57479668 C49.78675138 120.47627038 48.80662309 123.2944862 47.86694336 126.11352539 C38.29694336 126.11352539 28.72694336 126.11352539 18.86694336 126.11352539 C16.77214221 119.82912196 15.15884169 114.1739952 14.10522461 107.73266602 C13.95354828 106.84182312 13.80187195 105.95098022 13.64559937 105.03314209 C13.15012707 102.11311512 12.66475341 99.19150694 12.17944336 96.26977539 C11.83283767 94.21575228 11.48557681 92.16183964 11.13769531 90.10803223 C10.22511494 84.71027209 9.32100756 79.31112724 8.41882324 73.91162109 C7.50787616 68.46769977 6.58963785 63.0250099 5.67163086 57.58227539 C4.63495739 51.43544712 3.59882768 45.28853868 2.56933594 39.14050293 C2.25578743 37.27018071 1.94222972 35.39986003 1.62866211 33.52954102 C1.47982071 32.63947609 1.33097931 31.74941116 1.17762756 30.83237457 C0.46673179 26.59996926 -0.26099329 22.37184847 -1.02905273 18.14941406 C-1.16989792 17.37189537 -1.3107431 16.59437668 -1.45585632 15.79329681 C-1.71798965 14.35527228 -1.98381055 12.91791244 -2.25422668 11.48142242 C-2.89146742 7.98780663 -3.37338574 4.66696277 -3.13305664 1.11352539 C-2.13305664 0.11352539 -2.13305664 0.11352539 0 0 Z " fill="#FBFBFB" transform="translate(217.133056640625,0.886474609375)"/>
<path d="M0 0 C1.19794189 -0.00315216 2.39588379 -0.00630432 3.63012695 -0.009552 C4.93425537 -0.00752777 6.23838379 -0.00550354 7.58203125 -0.00341797 C8.9234214 -0.00409107 10.26481144 -0.00506115 11.60620117 -0.00631714 C14.42074746 -0.00779382 17.23526207 -0.00564051 20.04980469 -0.00097656 C23.66493756 0.00472073 27.2799962 0.00144156 30.89512634 -0.00454903 C33.66598067 -0.00815544 36.43681727 -0.00701569 39.20767212 -0.00442123 C41.19142708 -0.0034258 43.17518272 -0.00647288 45.15893555 -0.009552 C46.35687744 -0.00639984 47.55481934 -0.00324768 48.7890625 0 C49.84971924 0.00079559 50.91037598 0.00159119 52.00317383 0.00241089 C54.39453125 0.12939453 54.39453125 0.12939453 55.39453125 1.12939453 C55.48122557 2.61811313 55.50156619 4.11083953 55.4921875 5.60205078 C55.48896484 6.50117188 55.48574219 7.40029297 55.48242188 8.32666016 C55.46985352 9.74495117 55.46985352 9.74495117 55.45703125 11.19189453 C55.45251953 12.14128906 55.44800781 13.09068359 55.44335938 14.06884766 C55.43153235 16.42242518 55.4150515 18.7758793 55.39453125 21.12939453 C50.62565488 21.15414517 45.85681604 21.17227856 41.08789062 21.18432617 C39.46613921 21.18934958 37.8443923 21.19616947 36.22265625 21.20483398 C33.88931156 21.21698682 31.55602685 21.22264281 29.22265625 21.22705078 C28.4995929 21.23221207 27.77652954 21.23737335 27.03155518 21.24269104 C23.56566416 21.24307579 20.78956876 20.97815391 17.39453125 20.12939453 C17.39453125 30.68939453 17.39453125 41.24939453 17.39453125 52.12939453 C25.77102886 52.08990666 25.77102886 52.08990666 34.14746094 52.03930664 C35.71608887 52.0355603 35.71608887 52.0355603 37.31640625 52.03173828 C38.3847168 52.02650146 39.45302734 52.02126465 40.55371094 52.01586914 C43.39453125 52.12939453 43.39453125 52.12939453 47.39453125 53.12939453 C47.39453125 59.72939453 47.39453125 66.32939453 47.39453125 73.12939453 C43.89447825 73.15655011 40.39463938 73.17630881 36.89453125 73.19189453 C35.91226563 73.20027344 34.93 73.20865234 33.91796875 73.21728516 C32.95117188 73.22050781 31.984375 73.22373047 30.98828125 73.22705078 C30.10849609 73.2322876 29.22871094 73.23752441 28.32226562 73.24291992 C24.66357466 73.10105107 21.02769763 72.58354033 17.39453125 72.12939453 C17.39453125 84.33939453 17.39453125 96.54939453 17.39453125 109.12939453 C21.35453125 109.12939453 25.31453125 109.12939453 29.39453125 109.12939453 C31.59809857 109.23089307 33.80097432 109.35767818 36 109.53173828 C37.08474609 109.61746094 38.16949219 109.70318359 39.28710938 109.79150391 C40.37443359 109.88238281 41.46175781 109.97326172 42.58203125 110.06689453 C43.71189453 110.15390625 44.84175781 110.24091797 46.00585938 110.33056641 C54.26715064 111.00201392 54.26715064 111.00201392 55.39453125 112.12939453 C55.48122557 113.61811313 55.50156619 115.11083953 55.4921875 116.60205078 C55.48896484 117.50117187 55.48574219 118.40029297 55.48242188 119.32666016 C55.46985352 120.74495117 55.46985352 120.74495117 55.45703125 122.19189453 C55.45251953 123.14128906 55.44800781 124.09068359 55.44335938 125.06884766 C55.43153234 127.42242822 55.41421219 129.77587034 55.39453125 132.12939453 C47.67253361 132.24912555 40.07588848 131.90353809 32.3828125 131.25439453 C31.28857468 131.16561035 30.19433685 131.07682617 29.06694031 130.98535156 C25.61328296 130.70418048 22.1601669 130.41689455 18.70703125 130.12939453 C16.34834054 129.93627967 13.98961682 129.74356754 11.63085938 129.55126953 C5.88502709 129.0819632 0.13962506 128.60765176 -5.60546875 128.12939453 C-6.60109779 125.1425074 -6.73116108 123.18580382 -6.73245239 120.06784058 C-6.73527222 119.02180664 -6.73809204 117.97577271 -6.74099731 116.89804077 C-6.73897308 115.75090607 -6.73694885 114.60377136 -6.73486328 113.421875 C-6.7366156 112.21360046 -6.73836792 111.00532593 -6.74017334 109.76043701 C-6.74382357 106.44658168 -6.74296374 103.13278868 -6.73979425 99.81893682 C-6.73726507 96.3547237 -6.73960965 92.89051327 -6.74118042 89.42630005 C-6.74299999 83.61069255 -6.74060086 77.79509776 -6.73583984 71.97949219 C-6.73039252 65.24762992 -6.73216414 58.51579792 -6.73766625 51.78393638 C-6.74219733 46.00980776 -6.74284811 40.23568828 -6.74022758 34.46155846 C-6.73866543 31.010275 -6.73846944 27.55900579 -6.74176407 24.10772324 C-6.74517661 20.26451175 -6.74045317 16.42133447 -6.73486328 12.578125 C-6.73688751 11.42694183 -6.73891174 10.27575867 -6.74099731 9.08969116 C-6.73817749 8.04929687 -6.73535767 7.00890259 -6.73245239 5.9369812 C-6.73207537 5.02738081 -6.73169834 4.11778042 -6.73130989 3.18061638 C-6.47231639 -1.0410009 -3.58734678 0.00269085 0 0 Z " fill="#FAFAFA" transform="translate(372.60546875,1.87060546875)"/>
<path d="M0 0 C0.98484375 -0.00128906 1.9696875 -0.00257812 2.984375 -0.00390625 C4.02078125 -0.00003906 5.0571875 0.00382812 6.125 0.0078125 C7.67960937 0.00201172 7.67960937 0.00201172 9.265625 -0.00390625 C10.25046875 -0.00261719 11.2353125 -0.00132813 12.25 0 C13.16007812 0.00112793 14.07015625 0.00225586 15.0078125 0.00341797 C17.125 0.1328125 17.125 0.1328125 18.125 1.1328125 C18.22320173 2.75005635 18.25131935 4.37159883 18.25198364 5.99182129 C18.25480347 7.04352005 18.25762329 8.09521881 18.26052856 9.17878723 C18.25850433 10.34246323 18.2564801 11.50613922 18.25439453 12.70507812 C18.25614685 13.92281418 18.25789917 15.14055023 18.25970459 16.39518738 C18.26336281 19.74428366 18.26248966 23.09331852 18.2593255 26.44241142 C18.25680154 29.94000204 18.25913954 33.43758995 18.26071167 36.93518066 C18.26253326 42.80981927 18.26012734 48.68444533 18.25537109 54.55908203 C18.24992849 61.36020301 18.25169116 68.16129401 18.2571975 74.96241426 C18.26172893 80.79170378 18.26237903 86.62098424 18.25975883 92.45027494 C18.25819622 95.93624075 18.25800185 99.42219244 18.26129532 102.90815735 C18.26470835 106.79229913 18.2599838 110.67640708 18.25439453 114.56054688 C18.25641876 115.72422287 18.25844299 116.88789886 18.26052856 118.08683777 C18.25629883 119.66438591 18.25629883 119.66438591 18.25198364 121.27380371 C18.25160662 122.19337608 18.25122959 123.11294846 18.25084114 124.06038666 C18.125 126.1328125 18.125 126.1328125 17.125 127.1328125 C15.75674531 127.23148919 14.38352555 127.26360318 13.01171875 127.265625 C12.17576172 127.26691406 11.33980469 127.26820313 10.47851562 127.26953125 C9.59873047 127.26566406 8.71894531 127.26179688 7.8125 127.2578125 C6.51022461 127.26361328 6.51022461 127.26361328 5.18164062 127.26953125 C3.9219043 127.26759766 3.9219043 127.26759766 2.63671875 127.265625 C1.86803467 127.26449707 1.09935059 127.26336914 0.30737305 127.26220703 C-1.87459124 127.13283674 -3.76771679 126.68904707 -5.875 126.1328125 C-5.89832902 109.85210947 -5.91597919 93.57141183 -5.92681217 77.29069614 C-5.93197512 69.73179631 -5.9390178 62.17290685 -5.95043945 54.61401367 C-5.96038632 48.02801584 -5.96685343 41.44202552 -5.96908849 34.85602039 C-5.9703956 31.36668179 -5.97348142 27.87736466 -5.98073006 24.38803291 C-5.98874398 20.49900018 -5.98899114 16.60998872 -5.98852539 12.72094727 C-5.99212067 11.55570023 -5.99571594 10.39045319 -5.99942017 9.18989563 C-5.9980455 8.13675171 -5.99667084 7.08360779 -5.99525452 5.99855042 C-5.99663721 4.61724363 -5.99663721 4.61724363 -5.99804783 3.20803165 C-5.76047397 -0.7986853 -3.47096915 0.00430184 0 0 Z " fill="#FEFEFE" transform="translate(317.875,0.8671875)"/>
<path d="M0 0 C3.64581687 -0.02887512 7.29160463 -0.04675585 10.9375 -0.0625 C12.49887695 -0.07506836 12.49887695 -0.07506836 14.09179688 -0.08789062 C15.57583008 -0.09272461 15.57583008 -0.09272461 17.08984375 -0.09765625 C18.46450806 -0.10551147 18.46450806 -0.10551147 19.86694336 -0.11352539 C22 0 22 0 23 1 C23.09820173 2.61724385 23.12631935 4.23878633 23.12698364 5.85900879 C23.12980347 6.91070755 23.13262329 7.96240631 23.13552856 9.04597473 C23.13350433 10.20965073 23.1314801 11.37332672 23.12939453 12.57226562 C23.13114685 13.79000168 23.13289917 15.00773773 23.13470459 16.26237488 C23.13836281 19.61147116 23.13748966 22.96050602 23.1343255 26.30959892 C23.13180154 29.80718954 23.13413954 33.30477745 23.13571167 36.80236816 C23.13753326 42.67700677 23.13512734 48.55163283 23.13037109 54.42626953 C23.12492849 61.22739051 23.12669116 68.02848151 23.1321975 74.82960176 C23.13672893 80.65889128 23.13737903 86.48817174 23.13475883 92.31746244 C23.13319622 95.80342825 23.13300185 99.28937994 23.13629532 102.77534485 C23.13970835 106.65948663 23.1349838 110.54359458 23.12939453 114.42773438 C23.13141876 115.59141037 23.13344299 116.75508636 23.13552856 117.95402527 C23.13129883 119.53157341 23.13129883 119.53157341 23.12698364 121.14099121 C23.12660662 122.06056358 23.12622959 122.98013596 23.12584114 123.92757416 C23 126 23 126 22 127 C20.58429877 127.08651611 19.164405 127.10704904 17.74609375 127.09765625 C16.89208984 127.09443359 16.03808594 127.09121094 15.15820312 127.08789062 C14.26037109 127.07951172 13.36253906 127.07113281 12.4375 127.0625 C11.53580078 127.05798828 10.63410156 127.05347656 9.70507812 127.04882812 C7.46998686 127.03700225 5.23502563 127.0205222 3 127 C3 126.34 3 125.68 3 125 C8.94 125 14.88 125 21 125 C21 84.41 21 43.82 21 2 C14.07 2 7.14 2 0 2 C0 1.34 0 0.68 0 0 Z " fill="#ECECEC" transform="translate(313,1)"/>
</svg>
